<mxfile host="app.diagrams.net" agent="Mozilla/5.0 (Windows NT 10.0; Win64; x64) AppleWebKit/537.36 (KHTML, like Gecko) Chrome/128.0.0.0 Safari/537.36" version="24.7.8">
  <diagram name="Page-1" id="ff44883e-f642-bcb2-894b-16b3d25a3f0b">
    <mxGraphModel dx="4097" dy="3468" grid="1" gridSize="10" guides="1" tooltips="1" connect="1" arrows="1" fold="1" page="1" pageScale="1.5" pageWidth="1169" pageHeight="826" background="none" math="0" shadow="0">
      <root>
        <mxCell id="0" style=";html=1;" />
        <mxCell id="1" style=";html=1;" parent="0" />
        <mxCell id="iIViWj5kwo_5ftV5tEHs-10" style="edgeStyle=none;curved=1;rounded=0;orthogonalLoop=1;jettySize=auto;html=1;exitX=1;exitY=0.5;exitDx=0;exitDy=0;fontSize=12;startSize=8;endSize=8;entryX=0;entryY=0.5;entryDx=0;entryDy=0;" parent="1" source="f0bcc99304e6f5a-2" target="iIViWj5kwo_5ftV5tEHs-11" edge="1">
          <mxGeometry relative="1" as="geometry">
            <mxPoint x="520" y="420.4117647058823" as="targetPoint" />
          </mxGeometry>
        </mxCell>
        <mxCell id="iIViWj5kwo_5ftV5tEHs-38" value="&lt;font style=&quot;font-size: 20px;&quot;&gt;z&lt;/font&gt;" style="edgeLabel;html=1;align=center;verticalAlign=middle;resizable=0;points=[];fontSize=12;" parent="iIViWj5kwo_5ftV5tEHs-10" vertex="1" connectable="0">
          <mxGeometry x="-0.4769" y="3" relative="1" as="geometry">
            <mxPoint x="19" y="-17" as="offset" />
          </mxGeometry>
        </mxCell>
        <mxCell id="f0bcc99304e6f5a-2" value="q1" style="ellipse;whiteSpace=wrap;html=1;rounded=0;shadow=1;strokeColor=#666666;strokeWidth=1;fontSize=30;align=center;fillColor=#f5f5f5;" parent="1" vertex="1">
          <mxGeometry x="272" y="380" width="80" height="80" as="geometry" />
        </mxCell>
        <mxCell id="iIViWj5kwo_5ftV5tEHs-1" value="" style="edgeStyle=none;orthogonalLoop=1;jettySize=auto;html=1;rounded=0;fontSize=12;startSize=8;endSize=8;curved=1;entryX=0;entryY=0.5;entryDx=0;entryDy=0;" parent="1" target="iIViWj5kwo_5ftV5tEHs-2" edge="1">
          <mxGeometry width="140" relative="1" as="geometry">
            <mxPoint y="620" as="sourcePoint" />
            <mxPoint x="40" y="580" as="targetPoint" />
            <Array as="points" />
          </mxGeometry>
        </mxCell>
        <mxCell id="iIViWj5kwo_5ftV5tEHs-7" style="edgeStyle=none;curved=0;rounded=0;orthogonalLoop=1;jettySize=auto;html=1;exitX=1;exitY=0.5;exitDx=0;exitDy=0;entryX=0;entryY=0.5;entryDx=0;entryDy=0;fontSize=12;startSize=8;endSize=8;" parent="1" source="iIViWj5kwo_5ftV5tEHs-2" target="iIViWj5kwo_5ftV5tEHs-3" edge="1">
          <mxGeometry relative="1" as="geometry">
            <Array as="points" />
          </mxGeometry>
        </mxCell>
        <mxCell id="iIViWj5kwo_5ftV5tEHs-9" value="&lt;span style=&quot;font-size: 20px;&quot;&gt;y&lt;/span&gt;" style="edgeLabel;html=1;align=center;verticalAlign=middle;resizable=0;points=[];fontSize=12;" parent="iIViWj5kwo_5ftV5tEHs-7" vertex="1" connectable="0">
          <mxGeometry x="0.7841" relative="1" as="geometry">
            <mxPoint x="-11" y="-20" as="offset" />
          </mxGeometry>
        </mxCell>
        <mxCell id="YlWmxhlo7YsZjN-7zyNk-15" style="edgeStyle=orthogonalEdgeStyle;rounded=0;orthogonalLoop=1;jettySize=auto;html=1;exitX=1;exitY=0.5;exitDx=0;exitDy=0;entryX=0;entryY=0.5;entryDx=0;entryDy=0;" edge="1" parent="1" source="iIViWj5kwo_5ftV5tEHs-2" target="YlWmxhlo7YsZjN-7zyNk-5">
          <mxGeometry relative="1" as="geometry" />
        </mxCell>
        <mxCell id="YlWmxhlo7YsZjN-7zyNk-16" style="edgeStyle=orthogonalEdgeStyle;rounded=0;orthogonalLoop=1;jettySize=auto;html=1;entryX=0;entryY=0.5;entryDx=0;entryDy=0;" edge="1" parent="1" source="iIViWj5kwo_5ftV5tEHs-2" target="f0bcc99304e6f5a-2">
          <mxGeometry relative="1" as="geometry">
            <Array as="points">
              <mxPoint x="206" y="620" />
              <mxPoint x="206" y="420" />
            </Array>
          </mxGeometry>
        </mxCell>
        <mxCell id="YlWmxhlo7YsZjN-7zyNk-30" value="&lt;font style=&quot;font-size: 20px;&quot;&gt;w&lt;/font&gt;" style="edgeLabel;html=1;align=center;verticalAlign=middle;resizable=0;points=[];" vertex="1" connectable="0" parent="YlWmxhlo7YsZjN-7zyNk-16">
          <mxGeometry x="0.7972" y="-2" relative="1" as="geometry">
            <mxPoint x="2" y="-22" as="offset" />
          </mxGeometry>
        </mxCell>
        <mxCell id="iIViWj5kwo_5ftV5tEHs-2" value="q0" style="ellipse;whiteSpace=wrap;html=1;rounded=0;shadow=1;strokeColor=#666666;strokeWidth=1;fontSize=30;align=center;fillColor=#f5f5f5;" parent="1" vertex="1">
          <mxGeometry x="60" y="580" width="80" height="80" as="geometry" />
        </mxCell>
        <mxCell id="iIViWj5kwo_5ftV5tEHs-29" value="" style="edgeStyle=none;curved=1;rounded=0;orthogonalLoop=1;jettySize=auto;html=1;fontSize=12;startSize=8;endSize=8;" parent="1" source="iIViWj5kwo_5ftV5tEHs-3" target="iIViWj5kwo_5ftV5tEHs-27" edge="1">
          <mxGeometry relative="1" as="geometry" />
        </mxCell>
        <mxCell id="iIViWj5kwo_5ftV5tEHs-40" value="&lt;font style=&quot;font-size: 20px;&quot;&gt;x&lt;/font&gt;" style="edgeLabel;html=1;align=center;verticalAlign=middle;resizable=0;points=[];fontSize=12;" parent="iIViWj5kwo_5ftV5tEHs-29" vertex="1" connectable="0">
          <mxGeometry x="-0.0833" y="2" relative="1" as="geometry">
            <mxPoint y="-18" as="offset" />
          </mxGeometry>
        </mxCell>
        <mxCell id="iIViWj5kwo_5ftV5tEHs-3" value="q4" style="ellipse;whiteSpace=wrap;html=1;rounded=0;shadow=1;strokeColor=#666666;strokeWidth=1;fontSize=30;align=center;fillColor=#f5f5f5;" parent="1" vertex="1">
          <mxGeometry x="264.35" y="580" width="80" height="80" as="geometry" />
        </mxCell>
        <mxCell id="iIViWj5kwo_5ftV5tEHs-23" style="edgeStyle=none;curved=1;rounded=0;orthogonalLoop=1;jettySize=auto;html=1;entryX=0;entryY=0.5;entryDx=0;entryDy=0;fontSize=12;startSize=8;endSize=8;" parent="1" source="iIViWj5kwo_5ftV5tEHs-11" edge="1">
          <mxGeometry relative="1" as="geometry">
            <mxPoint x="600" y="420" as="targetPoint" />
          </mxGeometry>
        </mxCell>
        <mxCell id="iIViWj5kwo_5ftV5tEHs-39" value="&lt;font style=&quot;font-size: 20px;&quot;&gt;w&lt;/font&gt;" style="edgeLabel;html=1;align=center;verticalAlign=middle;resizable=0;points=[];fontSize=12;" parent="iIViWj5kwo_5ftV5tEHs-23" vertex="1" connectable="0">
          <mxGeometry x="-0.0833" y="3" relative="1" as="geometry">
            <mxPoint y="-17" as="offset" />
          </mxGeometry>
        </mxCell>
        <mxCell id="iIViWj5kwo_5ftV5tEHs-11" value="q2" style="ellipse;whiteSpace=wrap;html=1;rounded=0;shadow=1;strokeColor=#666666;strokeWidth=1;fontSize=30;align=center;fillColor=#f5f5f5;" parent="1" vertex="1">
          <mxGeometry x="440" y="380" width="80" height="80" as="geometry" />
        </mxCell>
        <mxCell id="iIViWj5kwo_5ftV5tEHs-12" value="q8" style="ellipse;whiteSpace=wrap;html=1;rounded=0;shadow=1;strokeColor=#666666;strokeWidth=1;fontSize=30;align=center;fillColor=#C7C7C7;" parent="1" vertex="1">
          <mxGeometry x="1320" y="240" width="80" height="80" as="geometry" />
        </mxCell>
        <mxCell id="iIViWj5kwo_5ftV5tEHs-13" value="q5" style="ellipse;whiteSpace=wrap;html=1;rounded=0;shadow=1;strokeColor=#666666;strokeWidth=1;fontSize=30;align=center;fillColor=#C7C7C7;" parent="1" vertex="1">
          <mxGeometry x="1320" y="120" width="80" height="80" as="geometry" />
        </mxCell>
        <mxCell id="iIViWj5kwo_5ftV5tEHs-14" value="q6" style="ellipse;whiteSpace=wrap;html=1;rounded=0;shadow=1;strokeColor=#666666;strokeWidth=1;fontSize=30;align=center;fillColor=#C7C7C7;" parent="1" vertex="1">
          <mxGeometry x="1320" width="80" height="80" as="geometry" />
        </mxCell>
        <mxCell id="iIViWj5kwo_5ftV5tEHs-27" value="q5" style="ellipse;whiteSpace=wrap;html=1;rounded=0;shadow=1;strokeColor=#666666;strokeWidth=1;fontSize=30;align=center;fillColor=#f5f5f5;" parent="1" vertex="1">
          <mxGeometry x="424.35" y="580" width="80" height="80" as="geometry" />
        </mxCell>
        <mxCell id="iIViWj5kwo_5ftV5tEHs-42" style="edgeStyle=none;curved=1;rounded=0;orthogonalLoop=1;jettySize=auto;html=1;exitX=1;exitY=0.5;exitDx=0;exitDy=0;fontSize=12;startSize=8;endSize=8;entryX=0;entryY=0.5;entryDx=0;entryDy=0;" parent="1" source="iIViWj5kwo_5ftV5tEHs-44" target="iIViWj5kwo_5ftV5tEHs-55" edge="1">
          <mxGeometry relative="1" as="geometry">
            <mxPoint x="1480" y="400.4117647058823" as="targetPoint" />
          </mxGeometry>
        </mxCell>
        <mxCell id="iIViWj5kwo_5ftV5tEHs-43" value="&lt;font style=&quot;font-size: 20px;&quot;&gt;z&lt;/font&gt;" style="edgeLabel;html=1;align=center;verticalAlign=middle;resizable=0;points=[];fontSize=12;" parent="iIViWj5kwo_5ftV5tEHs-42" vertex="1" connectable="0">
          <mxGeometry x="-0.4769" y="3" relative="1" as="geometry">
            <mxPoint x="19" y="-17" as="offset" />
          </mxGeometry>
        </mxCell>
        <mxCell id="iIViWj5kwo_5ftV5tEHs-70" style="edgeStyle=none;curved=0;rounded=0;orthogonalLoop=1;jettySize=auto;html=1;exitX=0.5;exitY=0;exitDx=0;exitDy=0;entryX=0;entryY=0.5;entryDx=0;entryDy=0;fontSize=12;startSize=8;endSize=8;" parent="1" source="iIViWj5kwo_5ftV5tEHs-44" target="iIViWj5kwo_5ftV5tEHs-14" edge="1">
          <mxGeometry relative="1" as="geometry">
            <Array as="points">
              <mxPoint x="1280" y="40" />
            </Array>
          </mxGeometry>
        </mxCell>
        <mxCell id="iIViWj5kwo_5ftV5tEHs-76" value="&lt;font style=&quot;font-size: 20px;&quot;&gt;b&lt;/font&gt;" style="edgeLabel;html=1;align=center;verticalAlign=middle;resizable=0;points=[];fontSize=12;" parent="iIViWj5kwo_5ftV5tEHs-70" vertex="1" connectable="0">
          <mxGeometry x="0.8611" relative="1" as="geometry">
            <mxPoint y="-20" as="offset" />
          </mxGeometry>
        </mxCell>
        <mxCell id="iIViWj5kwo_5ftV5tEHs-71" style="edgeStyle=none;curved=0;rounded=0;orthogonalLoop=1;jettySize=auto;html=1;exitX=0.5;exitY=0;exitDx=0;exitDy=0;entryX=0;entryY=0.5;entryDx=0;entryDy=0;fontSize=12;startSize=8;endSize=8;" parent="1" source="iIViWj5kwo_5ftV5tEHs-44" target="iIViWj5kwo_5ftV5tEHs-13" edge="1">
          <mxGeometry relative="1" as="geometry">
            <Array as="points">
              <mxPoint x="1280" y="160" />
            </Array>
          </mxGeometry>
        </mxCell>
        <mxCell id="iIViWj5kwo_5ftV5tEHs-78" value="&lt;span style=&quot;font-size: 20px;&quot;&gt;c&lt;/span&gt;" style="edgeLabel;html=1;align=center;verticalAlign=middle;resizable=0;points=[];fontSize=12;" parent="iIViWj5kwo_5ftV5tEHs-71" vertex="1" connectable="0">
          <mxGeometry x="0.7722" y="2" relative="1" as="geometry">
            <mxPoint y="-18" as="offset" />
          </mxGeometry>
        </mxCell>
        <mxCell id="iIViWj5kwo_5ftV5tEHs-72" style="edgeStyle=none;curved=0;rounded=0;orthogonalLoop=1;jettySize=auto;html=1;exitX=0.5;exitY=0;exitDx=0;exitDy=0;entryX=0;entryY=0.5;entryDx=0;entryDy=0;fontSize=12;startSize=8;endSize=8;" parent="1" source="iIViWj5kwo_5ftV5tEHs-44" target="iIViWj5kwo_5ftV5tEHs-12" edge="1">
          <mxGeometry relative="1" as="geometry">
            <Array as="points">
              <mxPoint x="1280" y="280" />
            </Array>
          </mxGeometry>
        </mxCell>
        <mxCell id="iIViWj5kwo_5ftV5tEHs-79" value="&lt;font style=&quot;font-size: 20px;&quot;&gt;y&lt;/font&gt;" style="edgeLabel;html=1;align=center;verticalAlign=middle;resizable=0;points=[];fontSize=12;" parent="iIViWj5kwo_5ftV5tEHs-72" vertex="1" connectable="0">
          <mxGeometry x="0.5778" y="1" relative="1" as="geometry">
            <mxPoint y="-19" as="offset" />
          </mxGeometry>
        </mxCell>
        <mxCell id="iIViWj5kwo_5ftV5tEHs-44" value="q6" style="ellipse;whiteSpace=wrap;html=1;rounded=0;shadow=1;strokeColor=#666666;strokeWidth=1;fontSize=30;align=center;fillColor=#f5f5f5;" parent="1" vertex="1">
          <mxGeometry x="1240" y="360" width="80" height="80" as="geometry" />
        </mxCell>
        <mxCell id="iIViWj5kwo_5ftV5tEHs-49" value="q5" style="ellipse;whiteSpace=wrap;html=1;rounded=0;shadow=1;strokeColor=#666666;strokeWidth=1;fontSize=30;align=center;fillColor=#f5f5f5;" parent="1" vertex="1">
          <mxGeometry x="1000" y="520" width="80" height="80" as="geometry" />
        </mxCell>
        <mxCell id="iIViWj5kwo_5ftV5tEHs-86" style="edgeStyle=none;curved=0;rounded=0;orthogonalLoop=1;jettySize=auto;html=1;exitX=0.5;exitY=1;exitDx=0;exitDy=0;entryX=0;entryY=0.5;entryDx=0;entryDy=0;fontSize=12;startSize=8;endSize=8;" parent="1" source="iIViWj5kwo_5ftV5tEHs-52" target="iIViWj5kwo_5ftV5tEHs-64" edge="1">
          <mxGeometry relative="1" as="geometry">
            <Array as="points">
              <mxPoint x="1280" y="920" />
            </Array>
          </mxGeometry>
        </mxCell>
        <mxCell id="iIViWj5kwo_5ftV5tEHs-92" value="&lt;font style=&quot;font-size: 20px;&quot;&gt;d&lt;/font&gt;" style="edgeLabel;html=1;align=center;verticalAlign=middle;resizable=0;points=[];fontSize=12;" parent="iIViWj5kwo_5ftV5tEHs-86" vertex="1" connectable="0">
          <mxGeometry x="0.8705" y="1" relative="1" as="geometry">
            <mxPoint y="-19" as="offset" />
          </mxGeometry>
        </mxCell>
        <mxCell id="iIViWj5kwo_5ftV5tEHs-88" style="edgeStyle=none;curved=0;rounded=0;orthogonalLoop=1;jettySize=auto;html=1;exitX=0.5;exitY=1;exitDx=0;exitDy=0;entryX=0;entryY=0.5;entryDx=0;entryDy=0;fontSize=12;startSize=8;endSize=8;" parent="1" source="iIViWj5kwo_5ftV5tEHs-52" target="iIViWj5kwo_5ftV5tEHs-66" edge="1">
          <mxGeometry relative="1" as="geometry">
            <Array as="points">
              <mxPoint x="1280" y="680" />
            </Array>
          </mxGeometry>
        </mxCell>
        <mxCell id="iIViWj5kwo_5ftV5tEHs-89" value="&lt;font style=&quot;font-size: 20px;&quot;&gt;a&lt;/font&gt;" style="edgeLabel;html=1;align=center;verticalAlign=middle;resizable=0;points=[];fontSize=12;" parent="iIViWj5kwo_5ftV5tEHs-88" vertex="1" connectable="0">
          <mxGeometry x="0.5868" y="4" relative="1" as="geometry">
            <mxPoint y="-16" as="offset" />
          </mxGeometry>
        </mxCell>
        <mxCell id="iIViWj5kwo_5ftV5tEHs-52" value="q8" style="ellipse;whiteSpace=wrap;html=1;rounded=0;shadow=1;strokeColor=#666666;strokeWidth=1;fontSize=30;align=center;fillColor=#f5f5f5;" parent="1" vertex="1">
          <mxGeometry x="1240" y="520" width="80" height="80" as="geometry" />
        </mxCell>
        <mxCell id="iIViWj5kwo_5ftV5tEHs-53" style="edgeStyle=none;curved=1;rounded=0;orthogonalLoop=1;jettySize=auto;html=1;entryX=0;entryY=0.5;entryDx=0;entryDy=0;fontSize=12;startSize=8;endSize=8;" parent="1" source="iIViWj5kwo_5ftV5tEHs-55" edge="1">
          <mxGeometry relative="1" as="geometry">
            <mxPoint x="1559.9999999999686" y="400" as="targetPoint" />
          </mxGeometry>
        </mxCell>
        <mxCell id="iIViWj5kwo_5ftV5tEHs-54" value="&lt;span style=&quot;font-size: 20px;&quot;&gt;y&lt;/span&gt;" style="edgeLabel;html=1;align=center;verticalAlign=middle;resizable=0;points=[];fontSize=12;" parent="iIViWj5kwo_5ftV5tEHs-53" vertex="1" connectable="0">
          <mxGeometry x="-0.0833" y="3" relative="1" as="geometry">
            <mxPoint y="-17" as="offset" />
          </mxGeometry>
        </mxCell>
        <mxCell id="iIViWj5kwo_5ftV5tEHs-55" value="q12" style="ellipse;whiteSpace=wrap;html=1;rounded=0;shadow=1;strokeColor=#666666;strokeWidth=1;fontSize=30;align=center;fillColor=#f5f5f5;" parent="1" vertex="1">
          <mxGeometry x="1400" y="360" width="80" height="80" as="geometry" />
        </mxCell>
        <mxCell id="YlWmxhlo7YsZjN-7zyNk-32" style="edgeStyle=orthogonalEdgeStyle;rounded=0;orthogonalLoop=1;jettySize=auto;html=1;exitX=1;exitY=0.5;exitDx=0;exitDy=0;" edge="1" parent="1" source="iIViWj5kwo_5ftV5tEHs-59" target="YRFl2U0ToXUnBVI3a0Rl-51">
          <mxGeometry relative="1" as="geometry" />
        </mxCell>
        <mxCell id="iIViWj5kwo_5ftV5tEHs-59" value="q16" style="ellipse;whiteSpace=wrap;html=1;rounded=0;shadow=1;strokeColor=#666666;strokeWidth=1;fontSize=30;align=center;fillColor=#f5f5f5;" parent="1" vertex="1">
          <mxGeometry x="1400" y="520" width="80" height="80" as="geometry" />
        </mxCell>
        <mxCell id="iIViWj5kwo_5ftV5tEHs-61" value="q19" style="ellipse;whiteSpace=wrap;html=1;rounded=0;shadow=1;strokeColor=#666666;strokeWidth=1;fontSize=30;align=center;fillColor=#C7C7C7;" parent="1" vertex="1">
          <mxGeometry x="1480" y="240" width="80" height="80" as="geometry" />
        </mxCell>
        <mxCell id="iIViWj5kwo_5ftV5tEHs-62" value="q15" style="ellipse;whiteSpace=wrap;html=1;rounded=0;shadow=1;strokeColor=#666666;strokeWidth=1;fontSize=30;align=center;fillColor=#C7C7C7;" parent="1" vertex="1">
          <mxGeometry x="1480" y="120" width="80" height="80" as="geometry" />
        </mxCell>
        <mxCell id="iIViWj5kwo_5ftV5tEHs-63" value="q11" style="ellipse;whiteSpace=wrap;html=1;rounded=0;shadow=1;strokeColor=#666666;strokeWidth=1;fontSize=30;align=center;fillColor=#C7C7C7;" parent="1" vertex="1">
          <mxGeometry x="1480" width="80" height="80" as="geometry" />
        </mxCell>
        <mxCell id="iIViWj5kwo_5ftV5tEHs-64" value="q8" style="ellipse;whiteSpace=wrap;html=1;rounded=0;shadow=1;strokeColor=#666666;strokeWidth=1;fontSize=30;align=center;fillColor=#C7C7C7;" parent="1" vertex="1">
          <mxGeometry x="1320" y="880" width="80" height="80" as="geometry" />
        </mxCell>
        <mxCell id="iIViWj5kwo_5ftV5tEHs-65" value="q5" style="ellipse;whiteSpace=wrap;html=1;rounded=0;shadow=1;strokeColor=#666666;strokeWidth=1;fontSize=30;align=center;fillColor=#C7C7C7;" parent="1" vertex="1">
          <mxGeometry x="1320" y="760" width="80" height="80" as="geometry" />
        </mxCell>
        <mxCell id="iIViWj5kwo_5ftV5tEHs-66" value="q5" style="ellipse;whiteSpace=wrap;html=1;rounded=0;shadow=1;strokeColor=#666666;strokeWidth=1;fontSize=30;align=center;fillColor=#C7C7C7;" parent="1" vertex="1">
          <mxGeometry x="1320" y="640" width="80" height="80" as="geometry" />
        </mxCell>
        <mxCell id="iIViWj5kwo_5ftV5tEHs-67" value="q19" style="ellipse;whiteSpace=wrap;html=1;rounded=0;shadow=1;strokeColor=#666666;strokeWidth=1;fontSize=30;align=center;fillColor=#C7C7C7;" parent="1" vertex="1">
          <mxGeometry x="1480" y="880" width="80" height="80" as="geometry" />
        </mxCell>
        <mxCell id="iIViWj5kwo_5ftV5tEHs-68" value="q16" style="ellipse;whiteSpace=wrap;html=1;rounded=0;shadow=1;strokeColor=#666666;strokeWidth=1;fontSize=30;align=center;fillColor=#C7C7C7;" parent="1" vertex="1">
          <mxGeometry x="1480" y="760" width="80" height="80" as="geometry" />
        </mxCell>
        <mxCell id="iIViWj5kwo_5ftV5tEHs-69" value="q11" style="ellipse;whiteSpace=wrap;html=1;rounded=0;shadow=1;strokeColor=#666666;strokeWidth=1;fontSize=30;align=center;fillColor=#C7C7C7;" parent="1" vertex="1">
          <mxGeometry x="1480" y="640" width="80" height="80" as="geometry" />
        </mxCell>
        <mxCell id="iIViWj5kwo_5ftV5tEHs-80" style="edgeStyle=none;curved=0;rounded=0;orthogonalLoop=1;jettySize=auto;html=1;exitX=0.5;exitY=0;exitDx=0;exitDy=0;entryX=0;entryY=0.5;entryDx=0;entryDy=0;fontSize=12;startSize=8;endSize=8;" parent="1" edge="1">
          <mxGeometry relative="1" as="geometry">
            <mxPoint x="1440" y="360" as="sourcePoint" />
            <mxPoint x="1480" y="40" as="targetPoint" />
            <Array as="points">
              <mxPoint x="1440" y="40" />
            </Array>
          </mxGeometry>
        </mxCell>
        <mxCell id="iIViWj5kwo_5ftV5tEHs-81" value="&lt;font style=&quot;font-size: 20px;&quot;&gt;w&lt;/font&gt;" style="edgeLabel;html=1;align=center;verticalAlign=middle;resizable=0;points=[];fontSize=12;" parent="iIViWj5kwo_5ftV5tEHs-80" vertex="1" connectable="0">
          <mxGeometry x="0.8611" relative="1" as="geometry">
            <mxPoint y="-20" as="offset" />
          </mxGeometry>
        </mxCell>
        <mxCell id="iIViWj5kwo_5ftV5tEHs-82" style="edgeStyle=none;curved=0;rounded=0;orthogonalLoop=1;jettySize=auto;html=1;exitX=0.5;exitY=0;exitDx=0;exitDy=0;entryX=0;entryY=0.5;entryDx=0;entryDy=0;fontSize=12;startSize=8;endSize=8;" parent="1" edge="1">
          <mxGeometry relative="1" as="geometry">
            <mxPoint x="1440" y="360" as="sourcePoint" />
            <mxPoint x="1480" y="160" as="targetPoint" />
            <Array as="points">
              <mxPoint x="1440" y="160" />
            </Array>
          </mxGeometry>
        </mxCell>
        <mxCell id="iIViWj5kwo_5ftV5tEHs-83" value="&lt;span style=&quot;font-size: 20px;&quot;&gt;x&lt;/span&gt;" style="edgeLabel;html=1;align=center;verticalAlign=middle;resizable=0;points=[];fontSize=12;" parent="iIViWj5kwo_5ftV5tEHs-82" vertex="1" connectable="0">
          <mxGeometry x="0.7722" y="2" relative="1" as="geometry">
            <mxPoint y="-18" as="offset" />
          </mxGeometry>
        </mxCell>
        <mxCell id="iIViWj5kwo_5ftV5tEHs-84" style="edgeStyle=none;curved=0;rounded=0;orthogonalLoop=1;jettySize=auto;html=1;exitX=0.5;exitY=0;exitDx=0;exitDy=0;entryX=0;entryY=0.5;entryDx=0;entryDy=0;fontSize=12;startSize=8;endSize=8;" parent="1" edge="1">
          <mxGeometry relative="1" as="geometry">
            <mxPoint x="1440" y="360" as="sourcePoint" />
            <mxPoint x="1480" y="280" as="targetPoint" />
            <Array as="points">
              <mxPoint x="1440" y="280" />
            </Array>
          </mxGeometry>
        </mxCell>
        <mxCell id="iIViWj5kwo_5ftV5tEHs-85" value="&lt;font style=&quot;font-size: 20px;&quot;&gt;z&lt;/font&gt;" style="edgeLabel;html=1;align=center;verticalAlign=middle;resizable=0;points=[];fontSize=12;" parent="iIViWj5kwo_5ftV5tEHs-84" vertex="1" connectable="0">
          <mxGeometry x="0.5778" y="1" relative="1" as="geometry">
            <mxPoint y="-19" as="offset" />
          </mxGeometry>
        </mxCell>
        <mxCell id="iIViWj5kwo_5ftV5tEHs-87" style="edgeStyle=none;curved=0;rounded=0;orthogonalLoop=1;jettySize=auto;html=1;exitX=0.5;exitY=1;exitDx=0;exitDy=0;entryX=0;entryY=0.5;entryDx=0;entryDy=0;fontSize=12;startSize=8;endSize=8;" parent="1" source="iIViWj5kwo_5ftV5tEHs-52" target="iIViWj5kwo_5ftV5tEHs-65" edge="1">
          <mxGeometry relative="1" as="geometry">
            <Array as="points">
              <mxPoint x="1280" y="800" />
            </Array>
          </mxGeometry>
        </mxCell>
        <mxCell id="iIViWj5kwo_5ftV5tEHs-91" value="&lt;font style=&quot;font-size: 20px;&quot;&gt;c&lt;/font&gt;" style="edgeLabel;html=1;align=center;verticalAlign=middle;resizable=0;points=[];fontSize=12;" parent="iIViWj5kwo_5ftV5tEHs-87" vertex="1" connectable="0">
          <mxGeometry x="0.7841" y="1" relative="1" as="geometry">
            <mxPoint y="-19" as="offset" />
          </mxGeometry>
        </mxCell>
        <mxCell id="iIViWj5kwo_5ftV5tEHs-93" style="edgeStyle=none;curved=0;rounded=0;orthogonalLoop=1;jettySize=auto;html=1;exitX=0.5;exitY=1;exitDx=0;exitDy=0;entryX=0;entryY=0.5;entryDx=0;entryDy=0;fontSize=12;startSize=8;endSize=8;" parent="1" edge="1">
          <mxGeometry relative="1" as="geometry">
            <mxPoint x="1440" y="600" as="sourcePoint" />
            <Array as="points">
              <mxPoint x="1440" y="920" />
            </Array>
            <mxPoint x="1479.9999999999845" y="920" as="targetPoint" />
          </mxGeometry>
        </mxCell>
        <mxCell id="iIViWj5kwo_5ftV5tEHs-94" value="&lt;font style=&quot;font-size: 20px;&quot;&gt;z&lt;/font&gt;" style="edgeLabel;html=1;align=center;verticalAlign=middle;resizable=0;points=[];fontSize=12;" parent="iIViWj5kwo_5ftV5tEHs-93" vertex="1" connectable="0">
          <mxGeometry x="0.8705" y="1" relative="1" as="geometry">
            <mxPoint y="-19" as="offset" />
          </mxGeometry>
        </mxCell>
        <mxCell id="iIViWj5kwo_5ftV5tEHs-95" style="edgeStyle=none;curved=0;rounded=0;orthogonalLoop=1;jettySize=auto;html=1;exitX=0.5;exitY=1;exitDx=0;exitDy=0;entryX=0;entryY=0.5;entryDx=0;entryDy=0;fontSize=12;startSize=8;endSize=8;" parent="1" edge="1">
          <mxGeometry relative="1" as="geometry">
            <mxPoint x="1440" y="600" as="sourcePoint" />
            <Array as="points">
              <mxPoint x="1440" y="680" />
            </Array>
            <mxPoint x="1479.9999999999845" y="680" as="targetPoint" />
          </mxGeometry>
        </mxCell>
        <mxCell id="iIViWj5kwo_5ftV5tEHs-96" value="&lt;font style=&quot;font-size: 20px;&quot;&gt;w&lt;/font&gt;" style="edgeLabel;html=1;align=center;verticalAlign=middle;resizable=0;points=[];fontSize=12;" parent="iIViWj5kwo_5ftV5tEHs-95" vertex="1" connectable="0">
          <mxGeometry x="0.5868" y="4" relative="1" as="geometry">
            <mxPoint y="-16" as="offset" />
          </mxGeometry>
        </mxCell>
        <mxCell id="iIViWj5kwo_5ftV5tEHs-100" style="edgeStyle=none;curved=0;rounded=0;orthogonalLoop=1;jettySize=auto;html=1;exitX=0.5;exitY=1;exitDx=0;exitDy=0;entryX=0;entryY=0.5;entryDx=0;entryDy=0;fontSize=12;startSize=8;endSize=8;" parent="1" edge="1">
          <mxGeometry relative="1" as="geometry">
            <mxPoint x="1440" y="600" as="sourcePoint" />
            <Array as="points">
              <mxPoint x="1440" y="800" />
            </Array>
            <mxPoint x="1479.9999999999845" y="800" as="targetPoint" />
          </mxGeometry>
        </mxCell>
        <mxCell id="iIViWj5kwo_5ftV5tEHs-101" value="&lt;font style=&quot;font-size: 20px;&quot;&gt;x&lt;/font&gt;" style="edgeLabel;html=1;align=center;verticalAlign=middle;resizable=0;points=[];fontSize=12;" parent="iIViWj5kwo_5ftV5tEHs-100" vertex="1" connectable="0">
          <mxGeometry x="0.7841" y="1" relative="1" as="geometry">
            <mxPoint y="-19" as="offset" />
          </mxGeometry>
        </mxCell>
        <mxCell id="EqjX6n_9IyycGUnKyrME-22" value="M = ({w, x, y, z}, {q0, q1, q2, q3, q4, q5, q6, q7, q8, q9, q10, q11, q12, q13, q14, q15, q16, q17, q18, q19, q20, q21, q22, q23, q24, q25q, q26, q27, q28, q29, q30, q31, q32, q33, q34, q35}, δ, q0, {q27, q31 q35})" style="text;whiteSpace=wrap;fontSize=45;" parent="1" vertex="1">
          <mxGeometry y="-200" width="3580" height="30" as="geometry" />
        </mxCell>
        <mxCell id="EqjX6n_9IyycGUnKyrME-24" style="edgeStyle=none;curved=0;rounded=0;orthogonalLoop=1;jettySize=auto;html=1;exitX=0.5;exitY=1;exitDx=0;exitDy=0;entryX=0;entryY=0.5;entryDx=0;entryDy=0;fontSize=12;startSize=8;endSize=8;" parent="1" target="EqjX6n_9IyycGUnKyrME-27" edge="1">
          <mxGeometry relative="1" as="geometry">
            <Array as="points">
              <mxPoint x="1040" y="680" />
            </Array>
            <mxPoint x="1040" y="600" as="sourcePoint" />
          </mxGeometry>
        </mxCell>
        <mxCell id="EqjX6n_9IyycGUnKyrME-25" value="&lt;font style=&quot;font-size: 20px;&quot;&gt;y&lt;/font&gt;" style="edgeLabel;html=1;align=center;verticalAlign=middle;resizable=0;points=[];fontSize=12;" parent="EqjX6n_9IyycGUnKyrME-24" vertex="1" connectable="0">
          <mxGeometry x="0.5868" y="4" relative="1" as="geometry">
            <mxPoint y="-16" as="offset" />
          </mxGeometry>
        </mxCell>
        <mxCell id="EqjX6n_9IyycGUnKyrME-27" value="q5" style="ellipse;whiteSpace=wrap;html=1;rounded=0;shadow=1;strokeColor=#666666;strokeWidth=1;fontSize=30;align=center;fillColor=#C7C7C7;" parent="1" vertex="1">
          <mxGeometry x="1080" y="640" width="80" height="80" as="geometry" />
        </mxCell>
        <mxCell id="YRFl2U0ToXUnBVI3a0Rl-28" style="edgeStyle=none;curved=1;rounded=0;orthogonalLoop=1;jettySize=auto;html=1;exitX=1;exitY=0.5;exitDx=0;exitDy=0;fontSize=12;startSize=8;endSize=8;entryX=0;entryY=0.5;entryDx=0;entryDy=0;" parent="1" target="YRFl2U0ToXUnBVI3a0Rl-33" edge="1">
          <mxGeometry relative="1" as="geometry">
            <mxPoint x="680" y="420.4117647058823" as="targetPoint" />
            <mxPoint x="520" y="420" as="sourcePoint" />
          </mxGeometry>
        </mxCell>
        <mxCell id="YRFl2U0ToXUnBVI3a0Rl-30" value="" style="edgeStyle=none;curved=1;rounded=0;orthogonalLoop=1;jettySize=auto;html=1;fontSize=12;startSize=8;endSize=8;exitX=1;exitY=0.5;exitDx=0;exitDy=0;" parent="1" target="YRFl2U0ToXUnBVI3a0Rl-35" edge="1" source="iIViWj5kwo_5ftV5tEHs-27">
          <mxGeometry relative="1" as="geometry">
            <mxPoint x="504.35" y="640" as="sourcePoint" />
          </mxGeometry>
        </mxCell>
        <mxCell id="YRFl2U0ToXUnBVI3a0Rl-31" value="&lt;font style=&quot;font-size: 20px;&quot;&gt;w&lt;/font&gt;" style="edgeLabel;html=1;align=center;verticalAlign=middle;resizable=0;points=[];fontSize=12;" parent="YRFl2U0ToXUnBVI3a0Rl-30" vertex="1" connectable="0">
          <mxGeometry x="-0.0833" y="2" relative="1" as="geometry">
            <mxPoint y="-18" as="offset" />
          </mxGeometry>
        </mxCell>
        <mxCell id="YRFl2U0ToXUnBVI3a0Rl-32" value="&lt;font style=&quot;font-size: 20px;&quot;&gt;z&lt;/font&gt;" style="edgeLabel;html=1;align=center;verticalAlign=middle;resizable=0;points=[];fontSize=12;" parent="1" vertex="1" connectable="0">
          <mxGeometry x="716.4705882352946" y="400" as="geometry" />
        </mxCell>
        <mxCell id="YRFl2U0ToXUnBVI3a0Rl-33" value="q3" style="ellipse;whiteSpace=wrap;html=1;rounded=0;shadow=1;strokeColor=#666666;strokeWidth=1;fontSize=30;align=center;fillColor=#f5f5f5;" parent="1" vertex="1">
          <mxGeometry x="600" y="380" width="80" height="80" as="geometry" />
        </mxCell>
        <mxCell id="YRFl2U0ToXUnBVI3a0Rl-35" value="q6" style="ellipse;whiteSpace=wrap;html=1;rounded=0;shadow=1;strokeColor=#666666;strokeWidth=1;fontSize=30;align=center;fillColor=#f5f5f5;" parent="1" vertex="1">
          <mxGeometry x="600" y="580" width="80" height="80" as="geometry" />
        </mxCell>
        <mxCell id="YRFl2U0ToXUnBVI3a0Rl-36" style="edgeStyle=none;curved=1;rounded=0;orthogonalLoop=1;jettySize=auto;html=1;entryX=0;entryY=0.5;entryDx=0;entryDy=0;fontSize=12;startSize=8;endSize=8;" parent="1" edge="1">
          <mxGeometry relative="1" as="geometry">
            <mxPoint x="680" y="420" as="sourcePoint" />
            <mxPoint x="760" y="420" as="targetPoint" />
          </mxGeometry>
        </mxCell>
        <mxCell id="YRFl2U0ToXUnBVI3a0Rl-39" style="edgeStyle=none;curved=1;rounded=0;orthogonalLoop=1;jettySize=auto;html=1;exitX=1;exitY=0.5;exitDx=0;exitDy=0;fontSize=12;startSize=8;endSize=8;entryX=0;entryY=0.5;entryDx=0;entryDy=0;" parent="1" target="YRFl2U0ToXUnBVI3a0Rl-43" edge="1">
          <mxGeometry relative="1" as="geometry">
            <mxPoint x="840" y="420.4117647058823" as="targetPoint" />
            <mxPoint x="680" y="420" as="sourcePoint" />
          </mxGeometry>
        </mxCell>
        <mxCell id="YRFl2U0ToXUnBVI3a0Rl-40" value="" style="edgeStyle=none;curved=1;rounded=0;orthogonalLoop=1;jettySize=auto;html=1;fontSize=12;startSize=8;endSize=8;exitX=1;exitY=0.5;exitDx=0;exitDy=0;" parent="1" target="YRFl2U0ToXUnBVI3a0Rl-45" edge="1" source="YRFl2U0ToXUnBVI3a0Rl-35">
          <mxGeometry relative="1" as="geometry">
            <mxPoint x="664.35" y="640" as="sourcePoint" />
          </mxGeometry>
        </mxCell>
        <mxCell id="YRFl2U0ToXUnBVI3a0Rl-41" value="&lt;font style=&quot;font-size: 20px;&quot;&gt;z&lt;/font&gt;" style="edgeLabel;html=1;align=center;verticalAlign=middle;resizable=0;points=[];fontSize=12;" parent="YRFl2U0ToXUnBVI3a0Rl-40" vertex="1" connectable="0">
          <mxGeometry x="-0.0833" y="2" relative="1" as="geometry">
            <mxPoint y="-18" as="offset" />
          </mxGeometry>
        </mxCell>
        <mxCell id="YRFl2U0ToXUnBVI3a0Rl-43" value="q12" style="ellipse;whiteSpace=wrap;html=1;rounded=0;shadow=1;strokeColor=#666666;strokeWidth=1;fontSize=30;align=center;fillColor=#C7C7C7;" parent="1" vertex="1">
          <mxGeometry x="760" y="380" width="80" height="80" as="geometry" />
        </mxCell>
        <mxCell id="YRFl2U0ToXUnBVI3a0Rl-45" value="q12" style="ellipse;whiteSpace=wrap;html=1;rounded=0;shadow=1;strokeColor=#666666;strokeWidth=1;fontSize=30;align=center;fillColor=#C7C7C7;" parent="1" vertex="1">
          <mxGeometry x="760" y="580" width="80" height="80" as="geometry" />
        </mxCell>
        <mxCell id="YRFl2U0ToXUnBVI3a0Rl-46" style="edgeStyle=none;curved=1;rounded=0;orthogonalLoop=1;jettySize=auto;html=1;entryX=0;entryY=0.5;entryDx=0;entryDy=0;fontSize=12;startSize=8;endSize=8;" parent="1" source="YRFl2U0ToXUnBVI3a0Rl-48" edge="1">
          <mxGeometry relative="1" as="geometry">
            <mxPoint x="1719.9999999999686" y="400" as="targetPoint" />
          </mxGeometry>
        </mxCell>
        <mxCell id="YRFl2U0ToXUnBVI3a0Rl-47" value="&lt;span style=&quot;font-size: 20px;&quot;&gt;x&lt;/span&gt;" style="edgeLabel;html=1;align=center;verticalAlign=middle;resizable=0;points=[];fontSize=12;" parent="YRFl2U0ToXUnBVI3a0Rl-46" vertex="1" connectable="0">
          <mxGeometry x="-0.0833" y="3" relative="1" as="geometry">
            <mxPoint y="-17" as="offset" />
          </mxGeometry>
        </mxCell>
        <mxCell id="YRFl2U0ToXUnBVI3a0Rl-48" value="q13" style="ellipse;whiteSpace=wrap;html=1;rounded=0;shadow=1;strokeColor=#666666;strokeWidth=1;fontSize=30;align=center;fillColor=#f5f5f5;" parent="1" vertex="1">
          <mxGeometry x="1560" y="360" width="80" height="80" as="geometry" />
        </mxCell>
        <mxCell id="YlWmxhlo7YsZjN-7zyNk-31" style="edgeStyle=orthogonalEdgeStyle;rounded=0;orthogonalLoop=1;jettySize=auto;html=1;" edge="1" parent="1" source="YRFl2U0ToXUnBVI3a0Rl-51" target="YRFl2U0ToXUnBVI3a0Rl-77">
          <mxGeometry relative="1" as="geometry" />
        </mxCell>
        <mxCell id="YRFl2U0ToXUnBVI3a0Rl-51" value="q17" style="ellipse;whiteSpace=wrap;html=1;rounded=0;shadow=1;strokeColor=#666666;strokeWidth=1;fontSize=30;align=center;fillColor=#f5f5f5;" parent="1" vertex="1">
          <mxGeometry x="1560" y="520" width="80" height="80" as="geometry" />
        </mxCell>
        <mxCell id="YRFl2U0ToXUnBVI3a0Rl-52" value="q19" style="ellipse;whiteSpace=wrap;html=1;rounded=0;shadow=1;strokeColor=#666666;strokeWidth=1;fontSize=30;align=center;fillColor=#C7C7C7;" parent="1" vertex="1">
          <mxGeometry x="1640" y="240" width="80" height="80" as="geometry" />
        </mxCell>
        <mxCell id="YRFl2U0ToXUnBVI3a0Rl-53" value="q10" style="ellipse;whiteSpace=wrap;html=1;rounded=0;shadow=1;strokeColor=#666666;strokeWidth=1;fontSize=30;align=center;fillColor=#C7C7C7;" parent="1" vertex="1">
          <mxGeometry x="1640" y="120" width="80" height="80" as="geometry" />
        </mxCell>
        <mxCell id="YRFl2U0ToXUnBVI3a0Rl-54" value="q11" style="ellipse;whiteSpace=wrap;html=1;rounded=0;shadow=1;strokeColor=#666666;strokeWidth=1;fontSize=30;align=center;fillColor=#C7C7C7;" parent="1" vertex="1">
          <mxGeometry x="1640" width="80" height="80" as="geometry" />
        </mxCell>
        <mxCell id="YRFl2U0ToXUnBVI3a0Rl-55" value="q10" style="ellipse;whiteSpace=wrap;html=1;rounded=0;shadow=1;strokeColor=#666666;strokeWidth=1;fontSize=30;align=center;fillColor=#C7C7C7;" parent="1" vertex="1">
          <mxGeometry x="1640" y="880" width="80" height="80" as="geometry" />
        </mxCell>
        <mxCell id="YRFl2U0ToXUnBVI3a0Rl-56" value="q15" style="ellipse;whiteSpace=wrap;html=1;rounded=0;shadow=1;strokeColor=#666666;strokeWidth=1;fontSize=30;align=center;fillColor=#C7C7C7;" parent="1" vertex="1">
          <mxGeometry x="1640" y="760" width="80" height="80" as="geometry" />
        </mxCell>
        <mxCell id="YRFl2U0ToXUnBVI3a0Rl-57" value="q11" style="ellipse;whiteSpace=wrap;html=1;rounded=0;shadow=1;strokeColor=#666666;strokeWidth=1;fontSize=30;align=center;fillColor=#C7C7C7;" parent="1" vertex="1">
          <mxGeometry x="1640" y="640" width="80" height="80" as="geometry" />
        </mxCell>
        <mxCell id="YRFl2U0ToXUnBVI3a0Rl-58" style="edgeStyle=none;curved=0;rounded=0;orthogonalLoop=1;jettySize=auto;html=1;exitX=0.5;exitY=0;exitDx=0;exitDy=0;entryX=0;entryY=0.5;entryDx=0;entryDy=0;fontSize=12;startSize=8;endSize=8;" parent="1" edge="1">
          <mxGeometry relative="1" as="geometry">
            <mxPoint x="1600" y="360" as="sourcePoint" />
            <mxPoint x="1640" y="40" as="targetPoint" />
            <Array as="points">
              <mxPoint x="1600" y="40" />
            </Array>
          </mxGeometry>
        </mxCell>
        <mxCell id="YRFl2U0ToXUnBVI3a0Rl-59" value="&lt;font style=&quot;font-size: 20px;&quot;&gt;w&lt;/font&gt;" style="edgeLabel;html=1;align=center;verticalAlign=middle;resizable=0;points=[];fontSize=12;" parent="YRFl2U0ToXUnBVI3a0Rl-58" vertex="1" connectable="0">
          <mxGeometry x="0.8611" relative="1" as="geometry">
            <mxPoint y="-20" as="offset" />
          </mxGeometry>
        </mxCell>
        <mxCell id="YRFl2U0ToXUnBVI3a0Rl-60" style="edgeStyle=none;curved=0;rounded=0;orthogonalLoop=1;jettySize=auto;html=1;exitX=0.5;exitY=0;exitDx=0;exitDy=0;entryX=0;entryY=0.5;entryDx=0;entryDy=0;fontSize=12;startSize=8;endSize=8;" parent="1" edge="1">
          <mxGeometry relative="1" as="geometry">
            <mxPoint x="1600" y="360" as="sourcePoint" />
            <mxPoint x="1640" y="160" as="targetPoint" />
            <Array as="points">
              <mxPoint x="1600" y="160" />
            </Array>
          </mxGeometry>
        </mxCell>
        <mxCell id="YRFl2U0ToXUnBVI3a0Rl-61" value="&lt;span style=&quot;font-size: 20px;&quot;&gt;y&lt;/span&gt;" style="edgeLabel;html=1;align=center;verticalAlign=middle;resizable=0;points=[];fontSize=12;" parent="YRFl2U0ToXUnBVI3a0Rl-60" vertex="1" connectable="0">
          <mxGeometry x="0.7722" y="2" relative="1" as="geometry">
            <mxPoint y="-18" as="offset" />
          </mxGeometry>
        </mxCell>
        <mxCell id="YRFl2U0ToXUnBVI3a0Rl-62" style="edgeStyle=none;curved=0;rounded=0;orthogonalLoop=1;jettySize=auto;html=1;exitX=0.5;exitY=0;exitDx=0;exitDy=0;entryX=0;entryY=0.5;entryDx=0;entryDy=0;fontSize=12;startSize=8;endSize=8;" parent="1" edge="1">
          <mxGeometry relative="1" as="geometry">
            <mxPoint x="1600" y="360" as="sourcePoint" />
            <mxPoint x="1640" y="280" as="targetPoint" />
            <Array as="points">
              <mxPoint x="1600" y="280" />
            </Array>
          </mxGeometry>
        </mxCell>
        <mxCell id="YRFl2U0ToXUnBVI3a0Rl-63" value="&lt;font style=&quot;font-size: 20px;&quot;&gt;z&lt;/font&gt;" style="edgeLabel;html=1;align=center;verticalAlign=middle;resizable=0;points=[];fontSize=12;" parent="YRFl2U0ToXUnBVI3a0Rl-62" vertex="1" connectable="0">
          <mxGeometry x="0.5778" y="1" relative="1" as="geometry">
            <mxPoint y="-19" as="offset" />
          </mxGeometry>
        </mxCell>
        <mxCell id="YRFl2U0ToXUnBVI3a0Rl-64" style="edgeStyle=none;curved=0;rounded=0;orthogonalLoop=1;jettySize=auto;html=1;exitX=0.5;exitY=1;exitDx=0;exitDy=0;entryX=0;entryY=0.5;entryDx=0;entryDy=0;fontSize=12;startSize=8;endSize=8;" parent="1" edge="1">
          <mxGeometry relative="1" as="geometry">
            <mxPoint x="1600" y="600" as="sourcePoint" />
            <Array as="points">
              <mxPoint x="1600" y="920" />
            </Array>
            <mxPoint x="1639.9999999999845" y="920" as="targetPoint" />
          </mxGeometry>
        </mxCell>
        <mxCell id="YRFl2U0ToXUnBVI3a0Rl-65" value="&lt;font style=&quot;font-size: 20px;&quot;&gt;y&lt;/font&gt;" style="edgeLabel;html=1;align=center;verticalAlign=middle;resizable=0;points=[];fontSize=12;" parent="YRFl2U0ToXUnBVI3a0Rl-64" vertex="1" connectable="0">
          <mxGeometry x="0.8705" y="1" relative="1" as="geometry">
            <mxPoint y="-19" as="offset" />
          </mxGeometry>
        </mxCell>
        <mxCell id="YRFl2U0ToXUnBVI3a0Rl-66" style="edgeStyle=none;curved=0;rounded=0;orthogonalLoop=1;jettySize=auto;html=1;exitX=0.5;exitY=1;exitDx=0;exitDy=0;entryX=0;entryY=0.5;entryDx=0;entryDy=0;fontSize=12;startSize=8;endSize=8;" parent="1" edge="1">
          <mxGeometry relative="1" as="geometry">
            <mxPoint x="1600" y="600" as="sourcePoint" />
            <Array as="points">
              <mxPoint x="1600" y="680" />
            </Array>
            <mxPoint x="1639.9999999999845" y="680" as="targetPoint" />
          </mxGeometry>
        </mxCell>
        <mxCell id="YRFl2U0ToXUnBVI3a0Rl-67" value="&lt;font style=&quot;font-size: 20px;&quot;&gt;w&lt;/font&gt;" style="edgeLabel;html=1;align=center;verticalAlign=middle;resizable=0;points=[];fontSize=12;" parent="YRFl2U0ToXUnBVI3a0Rl-66" vertex="1" connectable="0">
          <mxGeometry x="0.5868" y="4" relative="1" as="geometry">
            <mxPoint y="-16" as="offset" />
          </mxGeometry>
        </mxCell>
        <mxCell id="YRFl2U0ToXUnBVI3a0Rl-68" style="edgeStyle=none;curved=0;rounded=0;orthogonalLoop=1;jettySize=auto;html=1;exitX=0.5;exitY=1;exitDx=0;exitDy=0;entryX=0;entryY=0.5;entryDx=0;entryDy=0;fontSize=12;startSize=8;endSize=8;" parent="1" edge="1">
          <mxGeometry relative="1" as="geometry">
            <mxPoint x="1600" y="600" as="sourcePoint" />
            <Array as="points">
              <mxPoint x="1600" y="800" />
            </Array>
            <mxPoint x="1639.9999999999845" y="800" as="targetPoint" />
          </mxGeometry>
        </mxCell>
        <mxCell id="YRFl2U0ToXUnBVI3a0Rl-69" value="&lt;font style=&quot;font-size: 20px;&quot;&gt;x&lt;/font&gt;" style="edgeLabel;html=1;align=center;verticalAlign=middle;resizable=0;points=[];fontSize=12;" parent="YRFl2U0ToXUnBVI3a0Rl-68" vertex="1" connectable="0">
          <mxGeometry x="0.7841" y="1" relative="1" as="geometry">
            <mxPoint y="-19" as="offset" />
          </mxGeometry>
        </mxCell>
        <mxCell id="YRFl2U0ToXUnBVI3a0Rl-72" style="edgeStyle=none;curved=1;rounded=0;orthogonalLoop=1;jettySize=auto;html=1;entryX=0;entryY=0.5;entryDx=0;entryDy=0;fontSize=12;startSize=8;endSize=8;" parent="1" source="YRFl2U0ToXUnBVI3a0Rl-74" edge="1">
          <mxGeometry relative="1" as="geometry">
            <mxPoint x="1879.9999999999686" y="400" as="targetPoint" />
          </mxGeometry>
        </mxCell>
        <mxCell id="YRFl2U0ToXUnBVI3a0Rl-73" value="&lt;span style=&quot;font-size: 20px;&quot;&gt;y&lt;/span&gt;" style="edgeLabel;html=1;align=center;verticalAlign=middle;resizable=0;points=[];fontSize=12;" parent="YRFl2U0ToXUnBVI3a0Rl-72" vertex="1" connectable="0">
          <mxGeometry x="-0.0833" y="3" relative="1" as="geometry">
            <mxPoint y="-17" as="offset" />
          </mxGeometry>
        </mxCell>
        <mxCell id="YRFl2U0ToXUnBVI3a0Rl-74" value="q14" style="ellipse;whiteSpace=wrap;html=1;rounded=0;shadow=1;strokeColor=#666666;strokeWidth=1;fontSize=30;align=center;fillColor=#f5f5f5;" parent="1" vertex="1">
          <mxGeometry x="1720" y="360" width="80" height="80" as="geometry" />
        </mxCell>
        <mxCell id="YlWmxhlo7YsZjN-7zyNk-35" style="edgeStyle=orthogonalEdgeStyle;rounded=0;orthogonalLoop=1;jettySize=auto;html=1;exitX=1;exitY=0.5;exitDx=0;exitDy=0;entryX=0;entryY=0.5;entryDx=0;entryDy=0;" edge="1" parent="1" source="YRFl2U0ToXUnBVI3a0Rl-77" target="YRFl2U0ToXUnBVI3a0Rl-97">
          <mxGeometry relative="1" as="geometry" />
        </mxCell>
        <mxCell id="YRFl2U0ToXUnBVI3a0Rl-77" value="q18" style="ellipse;whiteSpace=wrap;html=1;rounded=0;shadow=1;strokeColor=#666666;strokeWidth=1;fontSize=30;align=center;fillColor=#f5f5f5;" parent="1" vertex="1">
          <mxGeometry x="1720" y="520" width="80" height="80" as="geometry" />
        </mxCell>
        <mxCell id="YRFl2U0ToXUnBVI3a0Rl-78" value="q19" style="ellipse;whiteSpace=wrap;html=1;rounded=0;shadow=1;strokeColor=#666666;strokeWidth=1;fontSize=30;align=center;fillColor=#C7C7C7;" parent="1" vertex="1">
          <mxGeometry x="1800" y="240" width="80" height="80" as="geometry" />
        </mxCell>
        <mxCell id="YRFl2U0ToXUnBVI3a0Rl-79" value="q16" style="ellipse;whiteSpace=wrap;html=1;rounded=0;shadow=1;strokeColor=#666666;strokeWidth=1;fontSize=30;align=center;fillColor=#C7C7C7;" parent="1" vertex="1">
          <mxGeometry x="1800" y="120" width="80" height="80" as="geometry" />
        </mxCell>
        <mxCell id="YRFl2U0ToXUnBVI3a0Rl-80" value="q11" style="ellipse;whiteSpace=wrap;html=1;rounded=0;shadow=1;strokeColor=#666666;strokeWidth=1;fontSize=30;align=center;fillColor=#C7C7C7;" parent="1" vertex="1">
          <mxGeometry x="1800" width="80" height="80" as="geometry" />
        </mxCell>
        <mxCell id="YRFl2U0ToXUnBVI3a0Rl-81" value="q19" style="ellipse;whiteSpace=wrap;html=1;rounded=0;shadow=1;strokeColor=#666666;strokeWidth=1;fontSize=30;align=center;fillColor=#C7C7C7;" parent="1" vertex="1">
          <mxGeometry x="1800" y="880" width="80" height="80" as="geometry" />
        </mxCell>
        <mxCell id="YRFl2U0ToXUnBVI3a0Rl-82" value="q10" style="ellipse;whiteSpace=wrap;html=1;rounded=0;shadow=1;strokeColor=#666666;strokeWidth=1;fontSize=30;align=center;fillColor=#C7C7C7;" parent="1" vertex="1">
          <mxGeometry x="1800" y="760" width="80" height="80" as="geometry" />
        </mxCell>
        <mxCell id="YRFl2U0ToXUnBVI3a0Rl-83" value="q15" style="ellipse;whiteSpace=wrap;html=1;rounded=0;shadow=1;strokeColor=#666666;strokeWidth=1;fontSize=30;align=center;fillColor=#C7C7C7;" parent="1" vertex="1">
          <mxGeometry x="1800" y="640" width="80" height="80" as="geometry" />
        </mxCell>
        <mxCell id="YRFl2U0ToXUnBVI3a0Rl-84" style="edgeStyle=none;curved=0;rounded=0;orthogonalLoop=1;jettySize=auto;html=1;exitX=0.5;exitY=0;exitDx=0;exitDy=0;entryX=0;entryY=0.5;entryDx=0;entryDy=0;fontSize=12;startSize=8;endSize=8;" parent="1" edge="1">
          <mxGeometry relative="1" as="geometry">
            <mxPoint x="1760" y="360" as="sourcePoint" />
            <mxPoint x="1800" y="40" as="targetPoint" />
            <Array as="points">
              <mxPoint x="1760" y="40" />
            </Array>
          </mxGeometry>
        </mxCell>
        <mxCell id="YRFl2U0ToXUnBVI3a0Rl-85" value="&lt;font style=&quot;font-size: 20px;&quot;&gt;w&lt;/font&gt;" style="edgeLabel;html=1;align=center;verticalAlign=middle;resizable=0;points=[];fontSize=12;" parent="YRFl2U0ToXUnBVI3a0Rl-84" vertex="1" connectable="0">
          <mxGeometry x="0.8611" relative="1" as="geometry">
            <mxPoint y="-20" as="offset" />
          </mxGeometry>
        </mxCell>
        <mxCell id="YRFl2U0ToXUnBVI3a0Rl-86" style="edgeStyle=none;curved=0;rounded=0;orthogonalLoop=1;jettySize=auto;html=1;exitX=0.5;exitY=0;exitDx=0;exitDy=0;entryX=0;entryY=0.5;entryDx=0;entryDy=0;fontSize=12;startSize=8;endSize=8;" parent="1" edge="1">
          <mxGeometry relative="1" as="geometry">
            <mxPoint x="1760" y="360" as="sourcePoint" />
            <mxPoint x="1800" y="160" as="targetPoint" />
            <Array as="points">
              <mxPoint x="1760" y="160" />
            </Array>
          </mxGeometry>
        </mxCell>
        <mxCell id="YRFl2U0ToXUnBVI3a0Rl-87" value="&lt;span style=&quot;font-size: 20px;&quot;&gt;x&lt;/span&gt;" style="edgeLabel;html=1;align=center;verticalAlign=middle;resizable=0;points=[];fontSize=12;" parent="YRFl2U0ToXUnBVI3a0Rl-86" vertex="1" connectable="0">
          <mxGeometry x="0.7722" y="2" relative="1" as="geometry">
            <mxPoint y="-18" as="offset" />
          </mxGeometry>
        </mxCell>
        <mxCell id="YRFl2U0ToXUnBVI3a0Rl-88" style="edgeStyle=none;curved=0;rounded=0;orthogonalLoop=1;jettySize=auto;html=1;exitX=0.5;exitY=0;exitDx=0;exitDy=0;entryX=0;entryY=0.5;entryDx=0;entryDy=0;fontSize=12;startSize=8;endSize=8;" parent="1" edge="1">
          <mxGeometry relative="1" as="geometry">
            <mxPoint x="1760" y="360" as="sourcePoint" />
            <mxPoint x="1800" y="280" as="targetPoint" />
            <Array as="points">
              <mxPoint x="1760" y="280" />
            </Array>
          </mxGeometry>
        </mxCell>
        <mxCell id="YRFl2U0ToXUnBVI3a0Rl-89" value="&lt;font style=&quot;font-size: 20px;&quot;&gt;z&lt;/font&gt;" style="edgeLabel;html=1;align=center;verticalAlign=middle;resizable=0;points=[];fontSize=12;" parent="YRFl2U0ToXUnBVI3a0Rl-88" vertex="1" connectable="0">
          <mxGeometry x="0.5778" y="1" relative="1" as="geometry">
            <mxPoint y="-19" as="offset" />
          </mxGeometry>
        </mxCell>
        <mxCell id="YRFl2U0ToXUnBVI3a0Rl-90" style="edgeStyle=none;curved=0;rounded=0;orthogonalLoop=1;jettySize=auto;html=1;exitX=0.5;exitY=1;exitDx=0;exitDy=0;entryX=0;entryY=0.5;entryDx=0;entryDy=0;fontSize=12;startSize=8;endSize=8;" parent="1" edge="1">
          <mxGeometry relative="1" as="geometry">
            <mxPoint x="1760" y="600" as="sourcePoint" />
            <Array as="points">
              <mxPoint x="1760" y="920" />
            </Array>
            <mxPoint x="1799.9999999999845" y="920" as="targetPoint" />
          </mxGeometry>
        </mxCell>
        <mxCell id="YRFl2U0ToXUnBVI3a0Rl-91" value="&lt;font style=&quot;font-size: 20px;&quot;&gt;z&lt;/font&gt;" style="edgeLabel;html=1;align=center;verticalAlign=middle;resizable=0;points=[];fontSize=12;" parent="YRFl2U0ToXUnBVI3a0Rl-90" vertex="1" connectable="0">
          <mxGeometry x="0.8705" y="1" relative="1" as="geometry">
            <mxPoint y="-19" as="offset" />
          </mxGeometry>
        </mxCell>
        <mxCell id="YRFl2U0ToXUnBVI3a0Rl-92" style="edgeStyle=none;curved=0;rounded=0;orthogonalLoop=1;jettySize=auto;html=1;exitX=0.5;exitY=1;exitDx=0;exitDy=0;entryX=0;entryY=0.5;entryDx=0;entryDy=0;fontSize=12;startSize=8;endSize=8;" parent="1" edge="1">
          <mxGeometry relative="1" as="geometry">
            <mxPoint x="1760" y="600" as="sourcePoint" />
            <Array as="points">
              <mxPoint x="1760" y="680" />
            </Array>
            <mxPoint x="1799.9999999999845" y="680" as="targetPoint" />
          </mxGeometry>
        </mxCell>
        <mxCell id="YRFl2U0ToXUnBVI3a0Rl-93" value="&lt;font style=&quot;font-size: 20px;&quot;&gt;x&lt;/font&gt;" style="edgeLabel;html=1;align=center;verticalAlign=middle;resizable=0;points=[];fontSize=12;" parent="YRFl2U0ToXUnBVI3a0Rl-92" vertex="1" connectable="0">
          <mxGeometry x="0.5868" y="4" relative="1" as="geometry">
            <mxPoint y="-16" as="offset" />
          </mxGeometry>
        </mxCell>
        <mxCell id="YRFl2U0ToXUnBVI3a0Rl-94" style="edgeStyle=none;curved=0;rounded=0;orthogonalLoop=1;jettySize=auto;html=1;exitX=0.5;exitY=1;exitDx=0;exitDy=0;entryX=0;entryY=0.5;entryDx=0;entryDy=0;fontSize=12;startSize=8;endSize=8;" parent="1" edge="1">
          <mxGeometry relative="1" as="geometry">
            <mxPoint x="1760" y="600" as="sourcePoint" />
            <Array as="points">
              <mxPoint x="1760" y="800" />
            </Array>
            <mxPoint x="1799.9999999999845" y="800" as="targetPoint" />
          </mxGeometry>
        </mxCell>
        <mxCell id="YRFl2U0ToXUnBVI3a0Rl-95" value="&lt;font style=&quot;font-size: 20px;&quot;&gt;y&lt;/font&gt;" style="edgeLabel;html=1;align=center;verticalAlign=middle;resizable=0;points=[];fontSize=12;" parent="YRFl2U0ToXUnBVI3a0Rl-94" vertex="1" connectable="0">
          <mxGeometry x="0.7841" y="1" relative="1" as="geometry">
            <mxPoint y="-19" as="offset" />
          </mxGeometry>
        </mxCell>
        <mxCell id="YRFl2U0ToXUnBVI3a0Rl-96" value="q29" style="ellipse;whiteSpace=wrap;html=1;rounded=0;shadow=1;strokeColor=#666666;strokeWidth=1;fontSize=30;align=center;fillColor=#C7C7C7;" parent="1" vertex="1">
          <mxGeometry x="1880" y="360" width="80" height="80" as="geometry" />
        </mxCell>
        <mxCell id="YRFl2U0ToXUnBVI3a0Rl-97" value="q34" style="ellipse;whiteSpace=wrap;html=1;rounded=0;shadow=1;strokeColor=#666666;strokeWidth=1;fontSize=30;align=center;fillColor=#C7C7C7;" parent="1" vertex="1">
          <mxGeometry x="1880" y="520" width="80" height="80" as="geometry" />
        </mxCell>
        <mxCell id="YRFl2U0ToXUnBVI3a0Rl-98" value="q10" style="ellipse;whiteSpace=wrap;html=1;rounded=0;shadow=1;strokeColor=#666666;strokeWidth=1;fontSize=30;align=center;fillColor=#C7C7C7;" parent="1" vertex="1">
          <mxGeometry x="1320" y="240" width="80" height="80" as="geometry" />
        </mxCell>
        <mxCell id="YRFl2U0ToXUnBVI3a0Rl-99" value="q15" style="ellipse;whiteSpace=wrap;html=1;rounded=0;shadow=1;strokeColor=#666666;strokeWidth=1;fontSize=30;align=center;fillColor=#C7C7C7;" parent="1" vertex="1">
          <mxGeometry x="1320" y="120" width="80" height="80" as="geometry" />
        </mxCell>
        <mxCell id="YRFl2U0ToXUnBVI3a0Rl-100" value="q11" style="ellipse;whiteSpace=wrap;html=1;rounded=0;shadow=1;strokeColor=#666666;strokeWidth=1;fontSize=30;align=center;fillColor=#C7C7C7;" parent="1" vertex="1">
          <mxGeometry x="1320" width="80" height="80" as="geometry" />
        </mxCell>
        <mxCell id="YRFl2U0ToXUnBVI3a0Rl-101" style="edgeStyle=none;curved=1;rounded=0;orthogonalLoop=1;jettySize=auto;html=1;exitX=1;exitY=0.5;exitDx=0;exitDy=0;fontSize=12;startSize=8;endSize=8;entryX=0;entryY=0.5;entryDx=0;entryDy=0;" parent="1" source="YRFl2U0ToXUnBVI3a0Rl-109" edge="1">
          <mxGeometry relative="1" as="geometry">
            <mxPoint x="1400" y="400" as="targetPoint" />
          </mxGeometry>
        </mxCell>
        <mxCell id="YRFl2U0ToXUnBVI3a0Rl-102" value="&lt;font style=&quot;font-size: 20px;&quot;&gt;z&lt;/font&gt;" style="edgeLabel;html=1;align=center;verticalAlign=middle;resizable=0;points=[];fontSize=12;" parent="YRFl2U0ToXUnBVI3a0Rl-101" vertex="1" connectable="0">
          <mxGeometry x="-0.4769" y="3" relative="1" as="geometry">
            <mxPoint x="19" y="-17" as="offset" />
          </mxGeometry>
        </mxCell>
        <mxCell id="YRFl2U0ToXUnBVI3a0Rl-103" style="edgeStyle=none;curved=0;rounded=0;orthogonalLoop=1;jettySize=auto;html=1;exitX=0.5;exitY=0;exitDx=0;exitDy=0;entryX=0;entryY=0.5;entryDx=0;entryDy=0;fontSize=12;startSize=8;endSize=8;" parent="1" source="YRFl2U0ToXUnBVI3a0Rl-109" target="YRFl2U0ToXUnBVI3a0Rl-100" edge="1">
          <mxGeometry relative="1" as="geometry">
            <Array as="points">
              <mxPoint x="1280" y="40" />
            </Array>
          </mxGeometry>
        </mxCell>
        <mxCell id="YRFl2U0ToXUnBVI3a0Rl-104" value="&lt;font style=&quot;font-size: 20px;&quot;&gt;w&lt;/font&gt;" style="edgeLabel;html=1;align=center;verticalAlign=middle;resizable=0;points=[];fontSize=12;" parent="YRFl2U0ToXUnBVI3a0Rl-103" vertex="1" connectable="0">
          <mxGeometry x="0.8611" relative="1" as="geometry">
            <mxPoint y="-20" as="offset" />
          </mxGeometry>
        </mxCell>
        <mxCell id="YRFl2U0ToXUnBVI3a0Rl-105" style="edgeStyle=none;curved=0;rounded=0;orthogonalLoop=1;jettySize=auto;html=1;exitX=0.5;exitY=0;exitDx=0;exitDy=0;entryX=0;entryY=0.5;entryDx=0;entryDy=0;fontSize=12;startSize=8;endSize=8;" parent="1" source="YRFl2U0ToXUnBVI3a0Rl-109" target="YRFl2U0ToXUnBVI3a0Rl-99" edge="1">
          <mxGeometry relative="1" as="geometry">
            <Array as="points">
              <mxPoint x="1280" y="160" />
            </Array>
          </mxGeometry>
        </mxCell>
        <mxCell id="YRFl2U0ToXUnBVI3a0Rl-106" value="&lt;span style=&quot;font-size: 20px;&quot;&gt;x&lt;/span&gt;" style="edgeLabel;html=1;align=center;verticalAlign=middle;resizable=0;points=[];fontSize=12;" parent="YRFl2U0ToXUnBVI3a0Rl-105" vertex="1" connectable="0">
          <mxGeometry x="0.7722" y="2" relative="1" as="geometry">
            <mxPoint y="-18" as="offset" />
          </mxGeometry>
        </mxCell>
        <mxCell id="YRFl2U0ToXUnBVI3a0Rl-107" style="edgeStyle=none;curved=0;rounded=0;orthogonalLoop=1;jettySize=auto;html=1;exitX=0.5;exitY=0;exitDx=0;exitDy=0;entryX=0;entryY=0.5;entryDx=0;entryDy=0;fontSize=12;startSize=8;endSize=8;" parent="1" source="YRFl2U0ToXUnBVI3a0Rl-109" target="YRFl2U0ToXUnBVI3a0Rl-98" edge="1">
          <mxGeometry relative="1" as="geometry">
            <Array as="points">
              <mxPoint x="1280" y="280" />
            </Array>
          </mxGeometry>
        </mxCell>
        <mxCell id="YRFl2U0ToXUnBVI3a0Rl-109" value="q11" style="ellipse;whiteSpace=wrap;html=1;rounded=0;shadow=1;strokeColor=#666666;strokeWidth=1;fontSize=30;align=center;fillColor=#f5f5f5;" parent="1" vertex="1">
          <mxGeometry x="1240" y="360" width="80" height="80" as="geometry" />
        </mxCell>
        <mxCell id="YRFl2U0ToXUnBVI3a0Rl-112" style="edgeStyle=none;curved=0;rounded=0;orthogonalLoop=1;jettySize=auto;html=1;exitX=1;exitY=0.5;exitDx=0;exitDy=0;fontSize=12;startSize=8;endSize=8;" parent="1" source="YRFl2U0ToXUnBVI3a0Rl-114" target="YRFl2U0ToXUnBVI3a0Rl-121" edge="1">
          <mxGeometry relative="1" as="geometry">
            <Array as="points">
              <mxPoint x="1170" y="560" />
            </Array>
          </mxGeometry>
        </mxCell>
        <mxCell id="YRFl2U0ToXUnBVI3a0Rl-113" value="&lt;span style=&quot;font-size: 20px;&quot;&gt;x&lt;/span&gt;" style="edgeLabel;html=1;align=center;verticalAlign=middle;resizable=0;points=[];fontSize=12;" parent="YRFl2U0ToXUnBVI3a0Rl-112" vertex="1" connectable="0">
          <mxGeometry x="0.7841" relative="1" as="geometry">
            <mxPoint x="-23" y="-20" as="offset" />
          </mxGeometry>
        </mxCell>
        <mxCell id="YlWmxhlo7YsZjN-7zyNk-94" style="edgeStyle=orthogonalEdgeStyle;rounded=0;orthogonalLoop=1;jettySize=auto;html=1;exitX=1;exitY=0.5;exitDx=0;exitDy=0;entryX=0;entryY=0.5;entryDx=0;entryDy=0;" edge="1" parent="1" source="YRFl2U0ToXUnBVI3a0Rl-114" target="YlWmxhlo7YsZjN-7zyNk-88">
          <mxGeometry relative="1" as="geometry" />
        </mxCell>
        <mxCell id="YlWmxhlo7YsZjN-7zyNk-96" style="edgeStyle=orthogonalEdgeStyle;rounded=0;orthogonalLoop=1;jettySize=auto;html=1;exitX=1;exitY=0.5;exitDx=0;exitDy=0;entryX=0;entryY=0.5;entryDx=0;entryDy=0;" edge="1" parent="1" source="YRFl2U0ToXUnBVI3a0Rl-114" target="YRFl2U0ToXUnBVI3a0Rl-109">
          <mxGeometry relative="1" as="geometry" />
        </mxCell>
        <mxCell id="YlWmxhlo7YsZjN-7zyNk-98" value="&lt;font style=&quot;font-size: 20px;&quot;&gt;w&lt;/font&gt;" style="edgeLabel;html=1;align=center;verticalAlign=middle;resizable=0;points=[];" vertex="1" connectable="0" parent="YlWmxhlo7YsZjN-7zyNk-96">
          <mxGeometry x="0.7225" y="1" relative="1" as="geometry">
            <mxPoint y="-19" as="offset" />
          </mxGeometry>
        </mxCell>
        <mxCell id="YRFl2U0ToXUnBVI3a0Rl-114" value="q10" style="ellipse;whiteSpace=wrap;html=1;rounded=0;shadow=1;strokeColor=#666666;strokeWidth=1;fontSize=30;align=center;fillColor=#f5f5f5;" parent="1" vertex="1">
          <mxGeometry x="1000" y="520" width="80" height="80" as="geometry" />
        </mxCell>
        <mxCell id="YRFl2U0ToXUnBVI3a0Rl-117" style="edgeStyle=none;curved=0;rounded=0;orthogonalLoop=1;jettySize=auto;html=1;exitX=0.5;exitY=1;exitDx=0;exitDy=0;entryX=0;entryY=0.5;entryDx=0;entryDy=0;fontSize=12;startSize=8;endSize=8;" parent="1" source="YRFl2U0ToXUnBVI3a0Rl-121" target="YRFl2U0ToXUnBVI3a0Rl-122" edge="1">
          <mxGeometry relative="1" as="geometry">
            <Array as="points">
              <mxPoint x="1280" y="920" />
            </Array>
          </mxGeometry>
        </mxCell>
        <mxCell id="YRFl2U0ToXUnBVI3a0Rl-118" value="&lt;font style=&quot;font-size: 20px;&quot;&gt;z&lt;/font&gt;" style="edgeLabel;html=1;align=center;verticalAlign=middle;resizable=0;points=[];fontSize=12;" parent="YRFl2U0ToXUnBVI3a0Rl-117" vertex="1" connectable="0">
          <mxGeometry x="0.8705" y="1" relative="1" as="geometry">
            <mxPoint y="-19" as="offset" />
          </mxGeometry>
        </mxCell>
        <mxCell id="YRFl2U0ToXUnBVI3a0Rl-119" style="edgeStyle=none;curved=0;rounded=0;orthogonalLoop=1;jettySize=auto;html=1;exitX=0.5;exitY=1;exitDx=0;exitDy=0;entryX=0;entryY=0.5;entryDx=0;entryDy=0;fontSize=12;startSize=8;endSize=8;" parent="1" source="YRFl2U0ToXUnBVI3a0Rl-121" target="YRFl2U0ToXUnBVI3a0Rl-124" edge="1">
          <mxGeometry relative="1" as="geometry">
            <Array as="points">
              <mxPoint x="1280" y="680" />
            </Array>
          </mxGeometry>
        </mxCell>
        <mxCell id="YRFl2U0ToXUnBVI3a0Rl-120" value="&lt;font style=&quot;font-size: 20px;&quot;&gt;w&lt;/font&gt;" style="edgeLabel;html=1;align=center;verticalAlign=middle;resizable=0;points=[];fontSize=12;" parent="YRFl2U0ToXUnBVI3a0Rl-119" vertex="1" connectable="0">
          <mxGeometry x="0.5868" y="4" relative="1" as="geometry">
            <mxPoint y="-16" as="offset" />
          </mxGeometry>
        </mxCell>
        <mxCell id="YlWmxhlo7YsZjN-7zyNk-33" style="edgeStyle=orthogonalEdgeStyle;rounded=0;orthogonalLoop=1;jettySize=auto;html=1;exitX=1;exitY=0.5;exitDx=0;exitDy=0;" edge="1" parent="1" source="YRFl2U0ToXUnBVI3a0Rl-121" target="iIViWj5kwo_5ftV5tEHs-59">
          <mxGeometry relative="1" as="geometry" />
        </mxCell>
        <mxCell id="YRFl2U0ToXUnBVI3a0Rl-121" value="q15" style="ellipse;whiteSpace=wrap;html=1;rounded=0;shadow=1;strokeColor=#666666;strokeWidth=1;fontSize=30;align=center;fillColor=#f5f5f5;" parent="1" vertex="1">
          <mxGeometry x="1240" y="520" width="80" height="80" as="geometry" />
        </mxCell>
        <mxCell id="YRFl2U0ToXUnBVI3a0Rl-122" value="q19" style="ellipse;whiteSpace=wrap;html=1;rounded=0;shadow=1;strokeColor=#666666;strokeWidth=1;fontSize=30;align=center;fillColor=#C7C7C7;" parent="1" vertex="1">
          <mxGeometry x="1320" y="880" width="80" height="80" as="geometry" />
        </mxCell>
        <mxCell id="YRFl2U0ToXUnBVI3a0Rl-123" value="q10" style="ellipse;whiteSpace=wrap;html=1;rounded=0;shadow=1;strokeColor=#666666;strokeWidth=1;fontSize=30;align=center;fillColor=#C7C7C7;" parent="1" vertex="1">
          <mxGeometry x="1320" y="760" width="80" height="80" as="geometry" />
        </mxCell>
        <mxCell id="YRFl2U0ToXUnBVI3a0Rl-124" value="q11" style="ellipse;whiteSpace=wrap;html=1;rounded=0;shadow=1;strokeColor=#666666;strokeWidth=1;fontSize=30;align=center;fillColor=#C7C7C7;" parent="1" vertex="1">
          <mxGeometry x="1320" y="640" width="80" height="80" as="geometry" />
        </mxCell>
        <mxCell id="YRFl2U0ToXUnBVI3a0Rl-125" style="edgeStyle=none;curved=0;rounded=0;orthogonalLoop=1;jettySize=auto;html=1;exitX=0.5;exitY=1;exitDx=0;exitDy=0;entryX=0;entryY=0.5;entryDx=0;entryDy=0;fontSize=12;startSize=8;endSize=8;" parent="1" source="YRFl2U0ToXUnBVI3a0Rl-121" target="YRFl2U0ToXUnBVI3a0Rl-123" edge="1">
          <mxGeometry relative="1" as="geometry">
            <Array as="points">
              <mxPoint x="1280" y="800" />
            </Array>
          </mxGeometry>
        </mxCell>
        <mxCell id="YRFl2U0ToXUnBVI3a0Rl-126" value="&lt;font style=&quot;font-size: 20px;&quot;&gt;y&lt;/font&gt;" style="edgeLabel;html=1;align=center;verticalAlign=middle;resizable=0;points=[];fontSize=12;" parent="YRFl2U0ToXUnBVI3a0Rl-125" vertex="1" connectable="0">
          <mxGeometry x="0.7841" y="1" relative="1" as="geometry">
            <mxPoint y="-19" as="offset" />
          </mxGeometry>
        </mxCell>
        <mxCell id="YRFl2U0ToXUnBVI3a0Rl-130" value="q10" style="ellipse;whiteSpace=wrap;html=1;rounded=0;shadow=1;strokeColor=#666666;strokeWidth=1;fontSize=30;align=center;fillColor=#C7C7C7;" parent="1" vertex="1">
          <mxGeometry x="1080" y="640" width="80" height="80" as="geometry" />
        </mxCell>
        <mxCell id="YRFl2U0ToXUnBVI3a0Rl-133" style="edgeStyle=none;curved=1;rounded=0;orthogonalLoop=1;jettySize=auto;html=1;exitX=1;exitY=0.5;exitDx=0;exitDy=0;fontSize=12;startSize=8;endSize=8;entryX=0;entryY=0.5;entryDx=0;entryDy=0;" parent="1" source="YRFl2U0ToXUnBVI3a0Rl-160" edge="1">
          <mxGeometry relative="1" as="geometry">
            <mxPoint x="2520" y="400" as="targetPoint" />
          </mxGeometry>
        </mxCell>
        <mxCell id="YRFl2U0ToXUnBVI3a0Rl-134" value="&lt;font style=&quot;font-size: 20px;&quot;&gt;x&lt;/font&gt;" style="edgeLabel;html=1;align=center;verticalAlign=middle;resizable=0;points=[];fontSize=12;" parent="YRFl2U0ToXUnBVI3a0Rl-133" vertex="1" connectable="0">
          <mxGeometry x="-0.4769" y="3" relative="1" as="geometry">
            <mxPoint x="19" y="-17" as="offset" />
          </mxGeometry>
        </mxCell>
        <mxCell id="YRFl2U0ToXUnBVI3a0Rl-141" style="edgeStyle=none;curved=0;rounded=0;orthogonalLoop=1;jettySize=auto;html=1;entryX=0;entryY=0.5;entryDx=0;entryDy=0;fontSize=12;startSize=8;endSize=8;" parent="1" source="YRFl2U0ToXUnBVI3a0Rl-161" target="YRFl2U0ToXUnBVI3a0Rl-160" edge="1">
          <mxGeometry relative="1" as="geometry">
            <Array as="points">
              <mxPoint x="2290" y="560" />
              <mxPoint x="2290" y="400" />
            </Array>
          </mxGeometry>
        </mxCell>
        <mxCell id="YRFl2U0ToXUnBVI3a0Rl-142" value="&lt;font style=&quot;font-size: 20px;&quot;&gt;w&lt;/font&gt;" style="edgeLabel;html=1;align=center;verticalAlign=middle;resizable=0;points=[];fontSize=12;" parent="YRFl2U0ToXUnBVI3a0Rl-141" vertex="1" connectable="0">
          <mxGeometry x="0.7841" y="2" relative="1" as="geometry">
            <mxPoint y="-18" as="offset" />
          </mxGeometry>
        </mxCell>
        <mxCell id="YRFl2U0ToXUnBVI3a0Rl-143" style="edgeStyle=none;curved=0;rounded=0;orthogonalLoop=1;jettySize=auto;html=1;exitX=1;exitY=0.5;exitDx=0;exitDy=0;fontSize=12;startSize=8;endSize=8;" parent="1" source="YRFl2U0ToXUnBVI3a0Rl-161" target="YRFl2U0ToXUnBVI3a0Rl-162" edge="1">
          <mxGeometry relative="1" as="geometry">
            <Array as="points">
              <mxPoint x="2290" y="560" />
              <mxPoint x="2290" y="720" />
              <mxPoint x="2290" y="1040" />
              <mxPoint x="2290" y="1160" />
            </Array>
          </mxGeometry>
        </mxCell>
        <mxCell id="YRFl2U0ToXUnBVI3a0Rl-144" value="&lt;span style=&quot;font-size: 20px;&quot;&gt;y&lt;/span&gt;" style="edgeLabel;html=1;align=center;verticalAlign=middle;resizable=0;points=[];fontSize=12;" parent="YRFl2U0ToXUnBVI3a0Rl-143" vertex="1" connectable="0">
          <mxGeometry x="0.7841" relative="1" as="geometry">
            <mxPoint x="29" y="-20" as="offset" />
          </mxGeometry>
        </mxCell>
        <mxCell id="YRFl2U0ToXUnBVI3a0Rl-145" value="" style="edgeStyle=none;curved=1;rounded=0;orthogonalLoop=1;jettySize=auto;html=1;fontSize=12;startSize=8;endSize=8;" parent="1" source="YRFl2U0ToXUnBVI3a0Rl-162" edge="1">
          <mxGeometry relative="1" as="geometry">
            <mxPoint x="2520" y="1160" as="targetPoint" />
          </mxGeometry>
        </mxCell>
        <mxCell id="YRFl2U0ToXUnBVI3a0Rl-146" value="&lt;font style=&quot;font-size: 20px;&quot;&gt;z&lt;/font&gt;" style="edgeLabel;html=1;align=center;verticalAlign=middle;resizable=0;points=[];fontSize=12;" parent="YRFl2U0ToXUnBVI3a0Rl-145" vertex="1" connectable="0">
          <mxGeometry x="-0.0833" y="2" relative="1" as="geometry">
            <mxPoint y="-18" as="offset" />
          </mxGeometry>
        </mxCell>
        <mxCell id="YRFl2U0ToXUnBVI3a0Rl-153" style="edgeStyle=none;curved=0;rounded=0;orthogonalLoop=1;jettySize=auto;html=1;exitX=0.5;exitY=1;exitDx=0;exitDy=0;entryX=0;entryY=0.5;entryDx=0;entryDy=0;fontSize=12;startSize=8;endSize=8;" parent="1" target="YRFl2U0ToXUnBVI3a0Rl-167" edge="1">
          <mxGeometry relative="1" as="geometry">
            <Array as="points">
              <mxPoint x="2160" y="680" />
            </Array>
            <mxPoint x="2160" y="600" as="sourcePoint" />
          </mxGeometry>
        </mxCell>
        <mxCell id="YRFl2U0ToXUnBVI3a0Rl-154" value="&lt;font style=&quot;font-size: 20px;&quot;&gt;z&lt;/font&gt;" style="edgeLabel;html=1;align=center;verticalAlign=middle;resizable=0;points=[];fontSize=12;" parent="YRFl2U0ToXUnBVI3a0Rl-153" vertex="1" connectable="0">
          <mxGeometry x="0.5868" y="4" relative="1" as="geometry">
            <mxPoint y="-16" as="offset" />
          </mxGeometry>
        </mxCell>
        <mxCell id="YRFl2U0ToXUnBVI3a0Rl-160" value="q24" style="ellipse;whiteSpace=wrap;html=1;rounded=0;shadow=1;strokeColor=#666666;strokeWidth=1;fontSize=30;align=center;fillColor=#f5f5f5;" parent="1" vertex="1">
          <mxGeometry x="2360" y="360" width="80" height="80" as="geometry" />
        </mxCell>
        <mxCell id="YRFl2U0ToXUnBVI3a0Rl-204" style="edgeStyle=orthogonalEdgeStyle;rounded=0;orthogonalLoop=1;jettySize=auto;html=1;exitX=1;exitY=0.5;exitDx=0;exitDy=0;" parent="1" source="YRFl2U0ToXUnBVI3a0Rl-161" edge="1">
          <mxGeometry relative="1" as="geometry">
            <mxPoint x="2360" y="560" as="targetPoint" />
          </mxGeometry>
        </mxCell>
        <mxCell id="YRFl2U0ToXUnBVI3a0Rl-234" value="&lt;font style=&quot;font-size: 20px;&quot;&gt;x&lt;/font&gt;" style="edgeLabel;html=1;align=center;verticalAlign=middle;resizable=0;points=[];" parent="YRFl2U0ToXUnBVI3a0Rl-204" vertex="1" connectable="0">
          <mxGeometry x="0.5088" y="1" relative="1" as="geometry">
            <mxPoint y="-19" as="offset" />
          </mxGeometry>
        </mxCell>
        <mxCell id="YRFl2U0ToXUnBVI3a0Rl-161" value="q23" style="ellipse;whiteSpace=wrap;html=1;rounded=0;shadow=1;strokeColor=#666666;strokeWidth=1;fontSize=30;align=center;fillColor=#f5f5f5;" parent="1" vertex="1">
          <mxGeometry x="2120" y="520" width="80" height="80" as="geometry" />
        </mxCell>
        <mxCell id="YRFl2U0ToXUnBVI3a0Rl-217" value="" style="edgeStyle=orthogonalEdgeStyle;rounded=0;orthogonalLoop=1;jettySize=auto;html=1;" parent="1" source="YRFl2U0ToXUnBVI3a0Rl-162" target="YRFl2U0ToXUnBVI3a0Rl-216" edge="1">
          <mxGeometry relative="1" as="geometry" />
        </mxCell>
        <mxCell id="YRFl2U0ToXUnBVI3a0Rl-162" value="q32" style="ellipse;whiteSpace=wrap;html=1;rounded=0;shadow=1;strokeColor=#666666;strokeWidth=1;fontSize=30;align=center;fillColor=#f5f5f5;" parent="1" vertex="1">
          <mxGeometry x="2360" y="1120" width="80" height="80" as="geometry" />
        </mxCell>
        <mxCell id="YRFl2U0ToXUnBVI3a0Rl-167" value="q23" style="ellipse;whiteSpace=wrap;html=1;rounded=0;shadow=1;strokeColor=#666666;strokeWidth=1;fontSize=30;align=center;fillColor=#C7C7C7;" parent="1" vertex="1">
          <mxGeometry x="2200" y="640" width="80" height="80" as="geometry" />
        </mxCell>
        <mxCell id="YRFl2U0ToXUnBVI3a0Rl-206" value="" style="edgeStyle=orthogonalEdgeStyle;rounded=0;orthogonalLoop=1;jettySize=auto;html=1;" parent="1" source="YRFl2U0ToXUnBVI3a0Rl-203" target="YRFl2U0ToXUnBVI3a0Rl-205" edge="1">
          <mxGeometry relative="1" as="geometry" />
        </mxCell>
        <mxCell id="YRFl2U0ToXUnBVI3a0Rl-235" value="&lt;font style=&quot;font-size: 20px;&quot;&gt;y&lt;/font&gt;" style="edgeLabel;html=1;align=center;verticalAlign=middle;resizable=0;points=[];" parent="YRFl2U0ToXUnBVI3a0Rl-206" vertex="1" connectable="0">
          <mxGeometry x="-0.1178" relative="1" as="geometry">
            <mxPoint x="5" y="-20" as="offset" />
          </mxGeometry>
        </mxCell>
        <mxCell id="YRFl2U0ToXUnBVI3a0Rl-203" value="q28" style="ellipse;whiteSpace=wrap;html=1;rounded=0;shadow=1;strokeColor=#666666;strokeWidth=1;fontSize=30;align=center;fillColor=#f5f5f5;" parent="1" vertex="1">
          <mxGeometry x="2360" y="520" width="80" height="80" as="geometry" />
        </mxCell>
        <mxCell id="YRFl2U0ToXUnBVI3a0Rl-208" value="" style="edgeStyle=orthogonalEdgeStyle;rounded=0;orthogonalLoop=1;jettySize=auto;html=1;" parent="1" source="YRFl2U0ToXUnBVI3a0Rl-205" target="YRFl2U0ToXUnBVI3a0Rl-207" edge="1">
          <mxGeometry relative="1" as="geometry" />
        </mxCell>
        <mxCell id="YRFl2U0ToXUnBVI3a0Rl-237" value="&lt;font style=&quot;font-size: 20px;&quot;&gt;z&lt;/font&gt;" style="edgeLabel;html=1;align=center;verticalAlign=middle;resizable=0;points=[];" parent="YRFl2U0ToXUnBVI3a0Rl-208" vertex="1" connectable="0">
          <mxGeometry x="0.0144" y="1" relative="1" as="geometry">
            <mxPoint y="-19" as="offset" />
          </mxGeometry>
        </mxCell>
        <mxCell id="YRFl2U0ToXUnBVI3a0Rl-205" value="q29" style="ellipse;whiteSpace=wrap;html=1;fontSize=30;fillColor=#f5f5f5;strokeColor=#666666;rounded=0;shadow=1;strokeWidth=1;" parent="1" vertex="1">
          <mxGeometry x="2520" y="520" width="80" height="80" as="geometry" />
        </mxCell>
        <mxCell id="YRFl2U0ToXUnBVI3a0Rl-210" value="" style="edgeStyle=orthogonalEdgeStyle;rounded=0;orthogonalLoop=1;jettySize=auto;html=1;" parent="1" source="YRFl2U0ToXUnBVI3a0Rl-207" target="YRFl2U0ToXUnBVI3a0Rl-209" edge="1">
          <mxGeometry relative="1" as="geometry" />
        </mxCell>
        <mxCell id="YRFl2U0ToXUnBVI3a0Rl-238" value="&lt;span style=&quot;font-size: 20px;&quot;&gt;x&lt;/span&gt;" style="edgeLabel;html=1;align=center;verticalAlign=middle;resizable=0;points=[];" parent="YRFl2U0ToXUnBVI3a0Rl-210" vertex="1" connectable="0">
          <mxGeometry x="-0.0144" relative="1" as="geometry">
            <mxPoint y="-20" as="offset" />
          </mxGeometry>
        </mxCell>
        <mxCell id="YRFl2U0ToXUnBVI3a0Rl-207" value="q30" style="ellipse;whiteSpace=wrap;html=1;fontSize=30;fillColor=#f5f5f5;strokeColor=#666666;rounded=0;shadow=1;strokeWidth=1;" parent="1" vertex="1">
          <mxGeometry x="2680" y="520" width="80" height="80" as="geometry" />
        </mxCell>
        <mxCell id="YlWmxhlo7YsZjN-7zyNk-272" style="edgeStyle=orthogonalEdgeStyle;rounded=0;orthogonalLoop=1;jettySize=auto;html=1;exitX=0.5;exitY=1;exitDx=0;exitDy=0;entryX=0;entryY=0.5;entryDx=0;entryDy=0;" edge="1" parent="1" source="YRFl2U0ToXUnBVI3a0Rl-209" target="YlWmxhlo7YsZjN-7zyNk-270">
          <mxGeometry relative="1" as="geometry" />
        </mxCell>
        <mxCell id="YRFl2U0ToXUnBVI3a0Rl-209" value="q31" style="ellipse;whiteSpace=wrap;html=1;fontSize=30;fillColor=#f5f5f5;strokeColor=#666666;rounded=0;shadow=1;strokeWidth=5;" parent="1" vertex="1">
          <mxGeometry x="2840" y="520" width="80" height="80" as="geometry" />
        </mxCell>
        <mxCell id="YRFl2U0ToXUnBVI3a0Rl-213" value="" style="edgeStyle=orthogonalEdgeStyle;rounded=0;orthogonalLoop=1;jettySize=auto;html=1;" parent="1" source="YRFl2U0ToXUnBVI3a0Rl-211" target="YRFl2U0ToXUnBVI3a0Rl-212" edge="1">
          <mxGeometry relative="1" as="geometry" />
        </mxCell>
        <mxCell id="YRFl2U0ToXUnBVI3a0Rl-211" value="q25" style="ellipse;whiteSpace=wrap;html=1;rounded=0;shadow=1;strokeColor=#666666;strokeWidth=1;fontSize=30;align=center;fillColor=#f5f5f5;" parent="1" vertex="1">
          <mxGeometry x="2520" y="360" width="80" height="80" as="geometry" />
        </mxCell>
        <mxCell id="YRFl2U0ToXUnBVI3a0Rl-215" value="" style="edgeStyle=orthogonalEdgeStyle;rounded=0;orthogonalLoop=1;jettySize=auto;html=1;" parent="1" source="YRFl2U0ToXUnBVI3a0Rl-212" target="YRFl2U0ToXUnBVI3a0Rl-214" edge="1">
          <mxGeometry relative="1" as="geometry" />
        </mxCell>
        <mxCell id="YRFl2U0ToXUnBVI3a0Rl-212" value="q26" style="ellipse;whiteSpace=wrap;html=1;fontSize=30;fillColor=#f5f5f5;strokeColor=#666666;rounded=0;shadow=1;strokeWidth=1;" parent="1" vertex="1">
          <mxGeometry x="2680" y="360" width="80" height="80" as="geometry" />
        </mxCell>
        <mxCell id="YRFl2U0ToXUnBVI3a0Rl-214" value="q27" style="ellipse;whiteSpace=wrap;html=1;fontSize=30;fillColor=#f5f5f5;strokeColor=#666666;rounded=0;shadow=1;strokeWidth=5;" parent="1" vertex="1">
          <mxGeometry x="2840" y="360" width="80" height="80" as="geometry" />
        </mxCell>
        <mxCell id="YRFl2U0ToXUnBVI3a0Rl-219" value="" style="edgeStyle=orthogonalEdgeStyle;rounded=0;orthogonalLoop=1;jettySize=auto;html=1;" parent="1" source="YRFl2U0ToXUnBVI3a0Rl-216" target="YRFl2U0ToXUnBVI3a0Rl-218" edge="1">
          <mxGeometry relative="1" as="geometry" />
        </mxCell>
        <mxCell id="YRFl2U0ToXUnBVI3a0Rl-232" value="&lt;font style=&quot;font-size: 20px;&quot;&gt;w&lt;/font&gt;" style="edgeLabel;html=1;align=center;verticalAlign=middle;resizable=0;points=[];" parent="YRFl2U0ToXUnBVI3a0Rl-219" vertex="1" connectable="0">
          <mxGeometry x="-0.1036" y="-1" relative="1" as="geometry">
            <mxPoint y="-21" as="offset" />
          </mxGeometry>
        </mxCell>
        <mxCell id="YRFl2U0ToXUnBVI3a0Rl-216" value="q33" style="ellipse;whiteSpace=wrap;html=1;fontSize=30;fillColor=#f5f5f5;strokeColor=#666666;rounded=0;shadow=1;strokeWidth=1;" parent="1" vertex="1">
          <mxGeometry x="2520" y="1120" width="80" height="80" as="geometry" />
        </mxCell>
        <mxCell id="YRFl2U0ToXUnBVI3a0Rl-221" value="" style="edgeStyle=orthogonalEdgeStyle;rounded=0;orthogonalLoop=1;jettySize=auto;html=1;" parent="1" source="YRFl2U0ToXUnBVI3a0Rl-218" target="YRFl2U0ToXUnBVI3a0Rl-220" edge="1">
          <mxGeometry relative="1" as="geometry" />
        </mxCell>
        <mxCell id="YRFl2U0ToXUnBVI3a0Rl-233" value="&lt;font style=&quot;font-size: 20px;&quot;&gt;x&lt;/font&gt;" style="edgeLabel;html=1;align=center;verticalAlign=middle;resizable=0;points=[];" parent="YRFl2U0ToXUnBVI3a0Rl-221" vertex="1" connectable="0">
          <mxGeometry x="0.0292" y="1" relative="1" as="geometry">
            <mxPoint y="-19" as="offset" />
          </mxGeometry>
        </mxCell>
        <mxCell id="YRFl2U0ToXUnBVI3a0Rl-218" value="q34" style="ellipse;whiteSpace=wrap;html=1;fontSize=30;fillColor=#f5f5f5;strokeColor=#666666;rounded=0;shadow=1;strokeWidth=1;" parent="1" vertex="1">
          <mxGeometry x="2680" y="1120" width="80" height="80" as="geometry" />
        </mxCell>
        <mxCell id="YRFl2U0ToXUnBVI3a0Rl-220" value="q35" style="ellipse;whiteSpace=wrap;html=1;fontSize=30;fillColor=#f5f5f5;strokeColor=#666666;rounded=0;shadow=1;strokeWidth=5;" parent="1" vertex="1">
          <mxGeometry x="2840" y="1120" width="80" height="80" as="geometry" />
        </mxCell>
        <mxCell id="YRFl2U0ToXUnBVI3a0Rl-222" value="&lt;font style=&quot;font-size: 20px;&quot;&gt;x&lt;/font&gt;" style="edgeLabel;html=1;align=center;verticalAlign=middle;resizable=0;points=[];fontSize=12;" parent="1" vertex="1" connectable="0">
          <mxGeometry x="2330.0019148936167" y="390" as="geometry">
            <mxPoint x="302" y="-10" as="offset" />
          </mxGeometry>
        </mxCell>
        <mxCell id="YRFl2U0ToXUnBVI3a0Rl-224" value="&lt;font style=&quot;font-size: 20px;&quot;&gt;z&lt;/font&gt;" style="edgeLabel;html=1;align=center;verticalAlign=middle;resizable=0;points=[];fontSize=12;" parent="1" vertex="1" connectable="0">
          <mxGeometry x="2500.0019148936167" y="390" as="geometry">
            <mxPoint x="302" y="-10" as="offset" />
          </mxGeometry>
        </mxCell>
        <mxCell id="YlWmxhlo7YsZjN-7zyNk-2" value="&lt;span style=&quot;font-size: 20px;&quot;&gt;z&lt;/span&gt;" style="edgeLabel;html=1;align=center;verticalAlign=middle;resizable=0;points=[];fontSize=12;" vertex="1" connectable="0" parent="1">
          <mxGeometry x="240" y="780" as="geometry" />
        </mxCell>
        <mxCell id="YlWmxhlo7YsZjN-7zyNk-3" value="" style="edgeStyle=none;curved=1;rounded=0;orthogonalLoop=1;jettySize=auto;html=1;fontSize=12;startSize=8;endSize=8;" edge="1" parent="1" source="YlWmxhlo7YsZjN-7zyNk-5" target="YlWmxhlo7YsZjN-7zyNk-7">
          <mxGeometry relative="1" as="geometry" />
        </mxCell>
        <mxCell id="YlWmxhlo7YsZjN-7zyNk-4" value="&lt;font style=&quot;font-size: 20px;&quot;&gt;w&lt;/font&gt;" style="edgeLabel;html=1;align=center;verticalAlign=middle;resizable=0;points=[];fontSize=12;" vertex="1" connectable="0" parent="YlWmxhlo7YsZjN-7zyNk-3">
          <mxGeometry x="-0.0833" y="2" relative="1" as="geometry">
            <mxPoint y="-18" as="offset" />
          </mxGeometry>
        </mxCell>
        <mxCell id="YlWmxhlo7YsZjN-7zyNk-5" value="q7" style="ellipse;whiteSpace=wrap;html=1;rounded=0;shadow=1;strokeColor=#666666;strokeWidth=1;fontSize=30;align=center;fillColor=#f5f5f5;" vertex="1" parent="1">
          <mxGeometry x="272" y="760" width="80" height="80" as="geometry" />
        </mxCell>
        <mxCell id="YlWmxhlo7YsZjN-7zyNk-7" value="q8" style="ellipse;whiteSpace=wrap;html=1;rounded=0;shadow=1;strokeColor=#666666;strokeWidth=1;fontSize=30;align=center;fillColor=#f5f5f5;" vertex="1" parent="1">
          <mxGeometry x="432" y="760" width="80" height="80" as="geometry" />
        </mxCell>
        <mxCell id="YlWmxhlo7YsZjN-7zyNk-8" value="" style="edgeStyle=none;curved=0;rounded=0;orthogonalLoop=1;jettySize=auto;html=1;fontSize=12;startSize=8;endSize=8;" edge="1" parent="1">
          <mxGeometry relative="1" as="geometry">
            <mxPoint x="512" y="800" as="sourcePoint" />
            <mxPoint x="590" y="800" as="targetPoint" />
          </mxGeometry>
        </mxCell>
        <mxCell id="YlWmxhlo7YsZjN-7zyNk-9" value="&lt;span style=&quot;font-size: 20px;&quot;&gt;x&lt;/span&gt;" style="edgeLabel;html=1;align=center;verticalAlign=middle;resizable=0;points=[];fontSize=12;" vertex="1" connectable="0" parent="YlWmxhlo7YsZjN-7zyNk-8">
          <mxGeometry x="-0.0833" y="2" relative="1" as="geometry">
            <mxPoint y="-18" as="offset" />
          </mxGeometry>
        </mxCell>
        <mxCell id="YlWmxhlo7YsZjN-7zyNk-10" value="q9" style="ellipse;whiteSpace=wrap;html=1;rounded=0;shadow=1;strokeColor=#666666;strokeWidth=1;fontSize=30;align=center;fillColor=#f5f5f5;" vertex="1" parent="1">
          <mxGeometry x="592" y="760" width="80" height="80" as="geometry" />
        </mxCell>
        <mxCell id="YlWmxhlo7YsZjN-7zyNk-12" value="" style="edgeStyle=none;curved=1;rounded=0;orthogonalLoop=1;jettySize=auto;html=1;fontSize=12;startSize=8;endSize=8;exitX=1;exitY=0.5;exitDx=0;exitDy=0;" edge="1" parent="1" target="YlWmxhlo7YsZjN-7zyNk-14" source="YlWmxhlo7YsZjN-7zyNk-10">
          <mxGeometry relative="1" as="geometry">
            <mxPoint x="680" y="800" as="sourcePoint" />
          </mxGeometry>
        </mxCell>
        <mxCell id="YlWmxhlo7YsZjN-7zyNk-13" value="&lt;font style=&quot;font-size: 20px;&quot;&gt;y&lt;/font&gt;" style="edgeLabel;html=1;align=center;verticalAlign=middle;resizable=0;points=[];fontSize=12;" vertex="1" connectable="0" parent="YlWmxhlo7YsZjN-7zyNk-12">
          <mxGeometry x="-0.0833" y="2" relative="1" as="geometry">
            <mxPoint y="-18" as="offset" />
          </mxGeometry>
        </mxCell>
        <mxCell id="YlWmxhlo7YsZjN-7zyNk-14" value="q10" style="ellipse;whiteSpace=wrap;html=1;rounded=0;shadow=1;strokeColor=#666666;strokeWidth=1;fontSize=30;align=center;fillColor=#C7C7C7;" vertex="1" parent="1">
          <mxGeometry x="760" y="760" width="80" height="80" as="geometry" />
        </mxCell>
        <mxCell id="YlWmxhlo7YsZjN-7zyNk-38" style="edgeStyle=none;curved=0;rounded=0;orthogonalLoop=1;jettySize=auto;html=1;exitX=0.5;exitY=1;exitDx=0;exitDy=0;entryX=0;entryY=0.5;entryDx=0;entryDy=0;fontSize=12;startSize=8;endSize=8;" edge="1" parent="1" target="YlWmxhlo7YsZjN-7zyNk-45">
          <mxGeometry relative="1" as="geometry">
            <Array as="points">
              <mxPoint x="1280" y="1400" />
            </Array>
            <mxPoint x="1280" y="1080" as="sourcePoint" />
          </mxGeometry>
        </mxCell>
        <mxCell id="YlWmxhlo7YsZjN-7zyNk-39" value="&lt;font style=&quot;font-size: 20px;&quot;&gt;z&lt;/font&gt;" style="edgeLabel;html=1;align=center;verticalAlign=middle;resizable=0;points=[];fontSize=12;" vertex="1" connectable="0" parent="YlWmxhlo7YsZjN-7zyNk-38">
          <mxGeometry x="0.8705" y="1" relative="1" as="geometry">
            <mxPoint y="-19" as="offset" />
          </mxGeometry>
        </mxCell>
        <mxCell id="YlWmxhlo7YsZjN-7zyNk-40" style="edgeStyle=none;curved=0;rounded=0;orthogonalLoop=1;jettySize=auto;html=1;exitX=0.5;exitY=1;exitDx=0;exitDy=0;entryX=0;entryY=0.5;entryDx=0;entryDy=0;fontSize=12;startSize=8;endSize=8;" edge="1" parent="1" target="YlWmxhlo7YsZjN-7zyNk-47">
          <mxGeometry relative="1" as="geometry">
            <Array as="points">
              <mxPoint x="1280" y="1160" />
            </Array>
            <mxPoint x="1280" y="1080" as="sourcePoint" />
          </mxGeometry>
        </mxCell>
        <mxCell id="YlWmxhlo7YsZjN-7zyNk-41" value="&lt;font style=&quot;font-size: 20px;&quot;&gt;x&lt;/font&gt;" style="edgeLabel;html=1;align=center;verticalAlign=middle;resizable=0;points=[];fontSize=12;" vertex="1" connectable="0" parent="YlWmxhlo7YsZjN-7zyNk-40">
          <mxGeometry x="0.5868" y="4" relative="1" as="geometry">
            <mxPoint y="-16" as="offset" />
          </mxGeometry>
        </mxCell>
        <mxCell id="YlWmxhlo7YsZjN-7zyNk-43" style="edgeStyle=orthogonalEdgeStyle;rounded=0;orthogonalLoop=1;jettySize=auto;html=1;exitX=1;exitY=0.5;exitDx=0;exitDy=0;" edge="1" parent="1" source="YlWmxhlo7YsZjN-7zyNk-44" target="YlWmxhlo7YsZjN-7zyNk-60">
          <mxGeometry relative="1" as="geometry" />
        </mxCell>
        <mxCell id="YlWmxhlo7YsZjN-7zyNk-44" value="q20" style="ellipse;whiteSpace=wrap;html=1;rounded=0;shadow=1;strokeColor=#666666;strokeWidth=1;fontSize=30;align=center;fillColor=#f5f5f5;" vertex="1" parent="1">
          <mxGeometry x="1400" y="1000" width="80" height="80" as="geometry" />
        </mxCell>
        <mxCell id="YlWmxhlo7YsZjN-7zyNk-45" value="q8" style="ellipse;whiteSpace=wrap;html=1;rounded=0;shadow=1;strokeColor=#666666;strokeWidth=1;fontSize=30;align=center;fillColor=#C7C7C7;" vertex="1" parent="1">
          <mxGeometry x="1320" y="1360" width="80" height="80" as="geometry" />
        </mxCell>
        <mxCell id="YlWmxhlo7YsZjN-7zyNk-46" value="q5" style="ellipse;whiteSpace=wrap;html=1;rounded=0;shadow=1;strokeColor=#666666;strokeWidth=1;fontSize=30;align=center;fillColor=#C7C7C7;" vertex="1" parent="1">
          <mxGeometry x="1320" y="1240" width="80" height="80" as="geometry" />
        </mxCell>
        <mxCell id="YlWmxhlo7YsZjN-7zyNk-47" value="q5" style="ellipse;whiteSpace=wrap;html=1;rounded=0;shadow=1;strokeColor=#666666;strokeWidth=1;fontSize=30;align=center;fillColor=#C7C7C7;" vertex="1" parent="1">
          <mxGeometry x="1320" y="1120" width="80" height="80" as="geometry" />
        </mxCell>
        <mxCell id="YlWmxhlo7YsZjN-7zyNk-48" value="q19" style="ellipse;whiteSpace=wrap;html=1;rounded=0;shadow=1;strokeColor=#666666;strokeWidth=1;fontSize=30;align=center;fillColor=#C7C7C7;" vertex="1" parent="1">
          <mxGeometry x="1480" y="1360" width="80" height="80" as="geometry" />
        </mxCell>
        <mxCell id="YlWmxhlo7YsZjN-7zyNk-49" value="q10" style="ellipse;whiteSpace=wrap;html=1;rounded=0;shadow=1;strokeColor=#666666;strokeWidth=1;fontSize=30;align=center;fillColor=#C7C7C7;" vertex="1" parent="1">
          <mxGeometry x="1480" y="1240" width="80" height="80" as="geometry" />
        </mxCell>
        <mxCell id="YlWmxhlo7YsZjN-7zyNk-50" value="q11" style="ellipse;whiteSpace=wrap;html=1;rounded=0;shadow=1;strokeColor=#666666;strokeWidth=1;fontSize=30;align=center;fillColor=#C7C7C7;" vertex="1" parent="1">
          <mxGeometry x="1480" y="1120" width="80" height="80" as="geometry" />
        </mxCell>
        <mxCell id="YlWmxhlo7YsZjN-7zyNk-51" style="edgeStyle=none;curved=0;rounded=0;orthogonalLoop=1;jettySize=auto;html=1;exitX=0.5;exitY=1;exitDx=0;exitDy=0;entryX=0;entryY=0.5;entryDx=0;entryDy=0;fontSize=12;startSize=8;endSize=8;" edge="1" parent="1" target="YlWmxhlo7YsZjN-7zyNk-46">
          <mxGeometry relative="1" as="geometry">
            <Array as="points">
              <mxPoint x="1280" y="1280" />
            </Array>
            <mxPoint x="1280" y="1080" as="sourcePoint" />
          </mxGeometry>
        </mxCell>
        <mxCell id="YlWmxhlo7YsZjN-7zyNk-52" value="&lt;font style=&quot;font-size: 20px;&quot;&gt;y&lt;/font&gt;" style="edgeLabel;html=1;align=center;verticalAlign=middle;resizable=0;points=[];fontSize=12;" vertex="1" connectable="0" parent="YlWmxhlo7YsZjN-7zyNk-51">
          <mxGeometry x="0.7841" y="1" relative="1" as="geometry">
            <mxPoint y="-19" as="offset" />
          </mxGeometry>
        </mxCell>
        <mxCell id="YlWmxhlo7YsZjN-7zyNk-53" style="edgeStyle=none;curved=0;rounded=0;orthogonalLoop=1;jettySize=auto;html=1;exitX=0.5;exitY=1;exitDx=0;exitDy=0;entryX=0;entryY=0.5;entryDx=0;entryDy=0;fontSize=12;startSize=8;endSize=8;" edge="1" parent="1">
          <mxGeometry relative="1" as="geometry">
            <mxPoint x="1440" y="1080" as="sourcePoint" />
            <Array as="points">
              <mxPoint x="1440" y="1400" />
            </Array>
            <mxPoint x="1479.9999999999845" y="1400" as="targetPoint" />
          </mxGeometry>
        </mxCell>
        <mxCell id="YlWmxhlo7YsZjN-7zyNk-54" value="&lt;font style=&quot;font-size: 20px;&quot;&gt;z&lt;/font&gt;" style="edgeLabel;html=1;align=center;verticalAlign=middle;resizable=0;points=[];fontSize=12;" vertex="1" connectable="0" parent="YlWmxhlo7YsZjN-7zyNk-53">
          <mxGeometry x="0.8705" y="1" relative="1" as="geometry">
            <mxPoint y="-19" as="offset" />
          </mxGeometry>
        </mxCell>
        <mxCell id="YlWmxhlo7YsZjN-7zyNk-55" style="edgeStyle=none;curved=0;rounded=0;orthogonalLoop=1;jettySize=auto;html=1;exitX=0.5;exitY=1;exitDx=0;exitDy=0;entryX=0;entryY=0.5;entryDx=0;entryDy=0;fontSize=12;startSize=8;endSize=8;" edge="1" parent="1">
          <mxGeometry relative="1" as="geometry">
            <mxPoint x="1440" y="1080" as="sourcePoint" />
            <Array as="points">
              <mxPoint x="1440" y="1160" />
            </Array>
            <mxPoint x="1479.9999999999845" y="1160" as="targetPoint" />
          </mxGeometry>
        </mxCell>
        <mxCell id="YlWmxhlo7YsZjN-7zyNk-56" value="&lt;span style=&quot;font-size: 20px;&quot;&gt;w&lt;/span&gt;" style="edgeLabel;html=1;align=center;verticalAlign=middle;resizable=0;points=[];fontSize=12;" vertex="1" connectable="0" parent="YlWmxhlo7YsZjN-7zyNk-55">
          <mxGeometry x="0.5868" y="4" relative="1" as="geometry">
            <mxPoint y="-16" as="offset" />
          </mxGeometry>
        </mxCell>
        <mxCell id="YlWmxhlo7YsZjN-7zyNk-57" style="edgeStyle=none;curved=0;rounded=0;orthogonalLoop=1;jettySize=auto;html=1;exitX=0.5;exitY=1;exitDx=0;exitDy=0;entryX=0;entryY=0.5;entryDx=0;entryDy=0;fontSize=12;startSize=8;endSize=8;" edge="1" parent="1">
          <mxGeometry relative="1" as="geometry">
            <mxPoint x="1440" y="1080" as="sourcePoint" />
            <Array as="points">
              <mxPoint x="1440" y="1280" />
            </Array>
            <mxPoint x="1479.9999999999845" y="1280" as="targetPoint" />
          </mxGeometry>
        </mxCell>
        <mxCell id="YlWmxhlo7YsZjN-7zyNk-58" value="&lt;font style=&quot;font-size: 20px;&quot;&gt;y&lt;/font&gt;" style="edgeLabel;html=1;align=center;verticalAlign=middle;resizable=0;points=[];fontSize=12;" vertex="1" connectable="0" parent="YlWmxhlo7YsZjN-7zyNk-57">
          <mxGeometry x="0.7841" y="1" relative="1" as="geometry">
            <mxPoint y="-19" as="offset" />
          </mxGeometry>
        </mxCell>
        <mxCell id="YlWmxhlo7YsZjN-7zyNk-59" style="edgeStyle=orthogonalEdgeStyle;rounded=0;orthogonalLoop=1;jettySize=auto;html=1;" edge="1" parent="1" source="YlWmxhlo7YsZjN-7zyNk-60" target="YlWmxhlo7YsZjN-7zyNk-71">
          <mxGeometry relative="1" as="geometry" />
        </mxCell>
        <mxCell id="YlWmxhlo7YsZjN-7zyNk-60" value="q21" style="ellipse;whiteSpace=wrap;html=1;rounded=0;shadow=1;strokeColor=#666666;strokeWidth=1;fontSize=30;align=center;fillColor=#f5f5f5;" vertex="1" parent="1">
          <mxGeometry x="1560" y="1000" width="80" height="80" as="geometry" />
        </mxCell>
        <mxCell id="YlWmxhlo7YsZjN-7zyNk-61" value="q19" style="ellipse;whiteSpace=wrap;html=1;rounded=0;shadow=1;strokeColor=#666666;strokeWidth=1;fontSize=30;align=center;fillColor=#C7C7C7;" vertex="1" parent="1">
          <mxGeometry x="1640" y="1360" width="80" height="80" as="geometry" />
        </mxCell>
        <mxCell id="YlWmxhlo7YsZjN-7zyNk-62" value="q10" style="ellipse;whiteSpace=wrap;html=1;rounded=0;shadow=1;strokeColor=#666666;strokeWidth=1;fontSize=30;align=center;fillColor=#C7C7C7;" vertex="1" parent="1">
          <mxGeometry x="1640" y="1240" width="80" height="80" as="geometry" />
        </mxCell>
        <mxCell id="YlWmxhlo7YsZjN-7zyNk-63" value="q16" style="ellipse;whiteSpace=wrap;html=1;rounded=0;shadow=1;strokeColor=#666666;strokeWidth=1;fontSize=30;align=center;fillColor=#C7C7C7;" vertex="1" parent="1">
          <mxGeometry x="1640" y="1120" width="80" height="80" as="geometry" />
        </mxCell>
        <mxCell id="YlWmxhlo7YsZjN-7zyNk-64" style="edgeStyle=none;curved=0;rounded=0;orthogonalLoop=1;jettySize=auto;html=1;exitX=0.5;exitY=1;exitDx=0;exitDy=0;entryX=0;entryY=0.5;entryDx=0;entryDy=0;fontSize=12;startSize=8;endSize=8;" edge="1" parent="1">
          <mxGeometry relative="1" as="geometry">
            <mxPoint x="1600" y="1080" as="sourcePoint" />
            <Array as="points">
              <mxPoint x="1600" y="1400" />
            </Array>
            <mxPoint x="1639.9999999999845" y="1400" as="targetPoint" />
          </mxGeometry>
        </mxCell>
        <mxCell id="YlWmxhlo7YsZjN-7zyNk-65" value="&lt;font style=&quot;font-size: 20px;&quot;&gt;z&lt;/font&gt;" style="edgeLabel;html=1;align=center;verticalAlign=middle;resizable=0;points=[];fontSize=12;" vertex="1" connectable="0" parent="YlWmxhlo7YsZjN-7zyNk-64">
          <mxGeometry x="0.8705" y="1" relative="1" as="geometry">
            <mxPoint y="-19" as="offset" />
          </mxGeometry>
        </mxCell>
        <mxCell id="YlWmxhlo7YsZjN-7zyNk-66" style="edgeStyle=none;curved=0;rounded=0;orthogonalLoop=1;jettySize=auto;html=1;exitX=0.5;exitY=1;exitDx=0;exitDy=0;entryX=0;entryY=0.5;entryDx=0;entryDy=0;fontSize=12;startSize=8;endSize=8;" edge="1" parent="1">
          <mxGeometry relative="1" as="geometry">
            <mxPoint x="1600" y="1080" as="sourcePoint" />
            <Array as="points">
              <mxPoint x="1600" y="1160" />
            </Array>
            <mxPoint x="1639.9999999999845" y="1160" as="targetPoint" />
          </mxGeometry>
        </mxCell>
        <mxCell id="YlWmxhlo7YsZjN-7zyNk-67" value="&lt;font style=&quot;font-size: 20px;&quot;&gt;x&lt;/font&gt;" style="edgeLabel;html=1;align=center;verticalAlign=middle;resizable=0;points=[];fontSize=12;" vertex="1" connectable="0" parent="YlWmxhlo7YsZjN-7zyNk-66">
          <mxGeometry x="0.5868" y="4" relative="1" as="geometry">
            <mxPoint y="-16" as="offset" />
          </mxGeometry>
        </mxCell>
        <mxCell id="YlWmxhlo7YsZjN-7zyNk-68" style="edgeStyle=none;curved=0;rounded=0;orthogonalLoop=1;jettySize=auto;html=1;exitX=0.5;exitY=1;exitDx=0;exitDy=0;entryX=0;entryY=0.5;entryDx=0;entryDy=0;fontSize=12;startSize=8;endSize=8;" edge="1" parent="1">
          <mxGeometry relative="1" as="geometry">
            <mxPoint x="1600" y="1080" as="sourcePoint" />
            <Array as="points">
              <mxPoint x="1600" y="1280" />
            </Array>
            <mxPoint x="1639.9999999999845" y="1280" as="targetPoint" />
          </mxGeometry>
        </mxCell>
        <mxCell id="YlWmxhlo7YsZjN-7zyNk-69" value="&lt;font style=&quot;font-size: 20px;&quot;&gt;y&lt;/font&gt;" style="edgeLabel;html=1;align=center;verticalAlign=middle;resizable=0;points=[];fontSize=12;" vertex="1" connectable="0" parent="YlWmxhlo7YsZjN-7zyNk-68">
          <mxGeometry x="0.7841" y="1" relative="1" as="geometry">
            <mxPoint y="-19" as="offset" />
          </mxGeometry>
        </mxCell>
        <mxCell id="YlWmxhlo7YsZjN-7zyNk-70" style="edgeStyle=orthogonalEdgeStyle;rounded=0;orthogonalLoop=1;jettySize=auto;html=1;exitX=1;exitY=0.5;exitDx=0;exitDy=0;entryX=0;entryY=0.5;entryDx=0;entryDy=0;" edge="1" parent="1" source="YlWmxhlo7YsZjN-7zyNk-71" target="YlWmxhlo7YsZjN-7zyNk-81">
          <mxGeometry relative="1" as="geometry" />
        </mxCell>
        <mxCell id="YlWmxhlo7YsZjN-7zyNk-71" value="q22" style="ellipse;whiteSpace=wrap;html=1;rounded=0;shadow=1;strokeColor=#666666;strokeWidth=1;fontSize=30;align=center;fillColor=#f5f5f5;" vertex="1" parent="1">
          <mxGeometry x="1720" y="1000" width="80" height="80" as="geometry" />
        </mxCell>
        <mxCell id="YlWmxhlo7YsZjN-7zyNk-72" value="q19" style="ellipse;whiteSpace=wrap;html=1;rounded=0;shadow=1;strokeColor=#666666;strokeWidth=1;fontSize=30;align=center;fillColor=#C7C7C7;" vertex="1" parent="1">
          <mxGeometry x="1794" y="1360" width="80" height="80" as="geometry" />
        </mxCell>
        <mxCell id="YlWmxhlo7YsZjN-7zyNk-73" value="q10" style="ellipse;whiteSpace=wrap;html=1;rounded=0;shadow=1;strokeColor=#666666;strokeWidth=1;fontSize=30;align=center;fillColor=#C7C7C7;" vertex="1" parent="1">
          <mxGeometry x="1794" y="1240" width="80" height="80" as="geometry" />
        </mxCell>
        <mxCell id="YlWmxhlo7YsZjN-7zyNk-74" value="q11" style="ellipse;whiteSpace=wrap;html=1;rounded=0;shadow=1;strokeColor=#666666;strokeWidth=1;fontSize=30;align=center;fillColor=#C7C7C7;" vertex="1" parent="1">
          <mxGeometry x="1794" y="1120" width="80" height="80" as="geometry" />
        </mxCell>
        <mxCell id="YlWmxhlo7YsZjN-7zyNk-75" style="edgeStyle=none;curved=0;rounded=0;orthogonalLoop=1;jettySize=auto;html=1;exitX=0.5;exitY=1;exitDx=0;exitDy=0;entryX=0;entryY=0.5;entryDx=0;entryDy=0;fontSize=12;startSize=8;endSize=8;" edge="1" parent="1">
          <mxGeometry relative="1" as="geometry">
            <mxPoint x="1754" y="1080" as="sourcePoint" />
            <Array as="points">
              <mxPoint x="1754" y="1400" />
            </Array>
            <mxPoint x="1793.9999999999845" y="1400" as="targetPoint" />
          </mxGeometry>
        </mxCell>
        <mxCell id="YlWmxhlo7YsZjN-7zyNk-76" value="&lt;font style=&quot;font-size: 20px;&quot;&gt;z&lt;/font&gt;" style="edgeLabel;html=1;align=center;verticalAlign=middle;resizable=0;points=[];fontSize=12;" vertex="1" connectable="0" parent="YlWmxhlo7YsZjN-7zyNk-75">
          <mxGeometry x="0.8705" y="1" relative="1" as="geometry">
            <mxPoint y="-19" as="offset" />
          </mxGeometry>
        </mxCell>
        <mxCell id="YlWmxhlo7YsZjN-7zyNk-77" style="edgeStyle=none;curved=0;rounded=0;orthogonalLoop=1;jettySize=auto;html=1;exitX=0.5;exitY=1;exitDx=0;exitDy=0;entryX=0;entryY=0.5;entryDx=0;entryDy=0;fontSize=12;startSize=8;endSize=8;" edge="1" parent="1">
          <mxGeometry relative="1" as="geometry">
            <mxPoint x="1754" y="1080" as="sourcePoint" />
            <Array as="points">
              <mxPoint x="1754" y="1160" />
            </Array>
            <mxPoint x="1793.9999999999845" y="1160" as="targetPoint" />
          </mxGeometry>
        </mxCell>
        <mxCell id="YlWmxhlo7YsZjN-7zyNk-78" value="&lt;font style=&quot;font-size: 20px;&quot;&gt;w&lt;/font&gt;" style="edgeLabel;html=1;align=center;verticalAlign=middle;resizable=0;points=[];fontSize=12;" vertex="1" connectable="0" parent="YlWmxhlo7YsZjN-7zyNk-77">
          <mxGeometry x="0.5868" y="4" relative="1" as="geometry">
            <mxPoint y="-16" as="offset" />
          </mxGeometry>
        </mxCell>
        <mxCell id="YlWmxhlo7YsZjN-7zyNk-79" style="edgeStyle=none;curved=0;rounded=0;orthogonalLoop=1;jettySize=auto;html=1;exitX=0.5;exitY=1;exitDx=0;exitDy=0;entryX=0;entryY=0.5;entryDx=0;entryDy=0;fontSize=12;startSize=8;endSize=8;" edge="1" parent="1">
          <mxGeometry relative="1" as="geometry">
            <mxPoint x="1754" y="1080" as="sourcePoint" />
            <Array as="points">
              <mxPoint x="1754" y="1280" />
            </Array>
            <mxPoint x="1793.9999999999845" y="1280" as="targetPoint" />
          </mxGeometry>
        </mxCell>
        <mxCell id="YlWmxhlo7YsZjN-7zyNk-80" value="&lt;font style=&quot;font-size: 20px;&quot;&gt;y&lt;/font&gt;" style="edgeLabel;html=1;align=center;verticalAlign=middle;resizable=0;points=[];fontSize=12;" vertex="1" connectable="0" parent="YlWmxhlo7YsZjN-7zyNk-79">
          <mxGeometry x="0.7841" y="1" relative="1" as="geometry">
            <mxPoint y="-19" as="offset" />
          </mxGeometry>
        </mxCell>
        <mxCell id="YlWmxhlo7YsZjN-7zyNk-81" value="q25" style="ellipse;whiteSpace=wrap;html=1;rounded=0;shadow=1;strokeColor=#666666;strokeWidth=1;fontSize=30;align=center;fillColor=#C7C7C7;" vertex="1" parent="1">
          <mxGeometry x="1880" y="1000" width="80" height="80" as="geometry" />
        </mxCell>
        <mxCell id="YlWmxhlo7YsZjN-7zyNk-82" value="&lt;span style=&quot;font-size: 20px;&quot;&gt;z&lt;/span&gt;" style="edgeLabel;html=1;align=center;verticalAlign=middle;resizable=0;points=[];fontSize=12;" vertex="1" connectable="0" parent="1">
          <mxGeometry x="1200.0033333333336" y="1020" as="geometry" />
        </mxCell>
        <mxCell id="YlWmxhlo7YsZjN-7zyNk-87" style="edgeStyle=orthogonalEdgeStyle;rounded=0;orthogonalLoop=1;jettySize=auto;html=1;exitX=1;exitY=0.5;exitDx=0;exitDy=0;" edge="1" parent="1" source="YlWmxhlo7YsZjN-7zyNk-88" target="YlWmxhlo7YsZjN-7zyNk-44">
          <mxGeometry relative="1" as="geometry" />
        </mxCell>
        <mxCell id="YlWmxhlo7YsZjN-7zyNk-88" value="q19" style="ellipse;whiteSpace=wrap;html=1;rounded=0;shadow=1;strokeColor=#666666;strokeWidth=1;fontSize=30;align=center;fillColor=#f5f5f5;" vertex="1" parent="1">
          <mxGeometry x="1240" y="1000" width="80" height="80" as="geometry" />
        </mxCell>
        <mxCell id="YlWmxhlo7YsZjN-7zyNk-89" value="q19" style="ellipse;whiteSpace=wrap;html=1;rounded=0;shadow=1;strokeColor=#666666;strokeWidth=1;fontSize=30;align=center;fillColor=#C7C7C7;" vertex="1" parent="1">
          <mxGeometry x="1320" y="1360" width="80" height="80" as="geometry" />
        </mxCell>
        <mxCell id="YlWmxhlo7YsZjN-7zyNk-90" value="q10" style="ellipse;whiteSpace=wrap;html=1;rounded=0;shadow=1;strokeColor=#666666;strokeWidth=1;fontSize=30;align=center;fillColor=#C7C7C7;" vertex="1" parent="1">
          <mxGeometry x="1320" y="1240" width="80" height="80" as="geometry" />
        </mxCell>
        <mxCell id="YlWmxhlo7YsZjN-7zyNk-91" value="q15" style="ellipse;whiteSpace=wrap;html=1;rounded=0;shadow=1;strokeColor=#666666;strokeWidth=1;fontSize=30;align=center;fillColor=#C7C7C7;" vertex="1" parent="1">
          <mxGeometry x="1320" y="1120" width="80" height="80" as="geometry" />
        </mxCell>
        <mxCell id="YlWmxhlo7YsZjN-7zyNk-99" value="&lt;span style=&quot;font-size: 20px;&quot;&gt;x&lt;/span&gt;" style="edgeLabel;html=1;align=center;verticalAlign=middle;resizable=0;points=[];fontSize=12;" vertex="1" connectable="0" parent="1">
          <mxGeometry x="1359.9970175438596" y="540" as="geometry" />
        </mxCell>
        <mxCell id="YlWmxhlo7YsZjN-7zyNk-100" value="&lt;span style=&quot;font-size: 20px;&quot;&gt;y&lt;/span&gt;" style="edgeLabel;html=1;align=center;verticalAlign=middle;resizable=0;points=[];fontSize=12;" vertex="1" connectable="0" parent="1">
          <mxGeometry x="1519.9970175438596" y="540" as="geometry" />
        </mxCell>
        <mxCell id="YlWmxhlo7YsZjN-7zyNk-101" value="&lt;span style=&quot;font-size: 20px;&quot;&gt;z&lt;/span&gt;" style="edgeLabel;html=1;align=center;verticalAlign=middle;resizable=0;points=[];fontSize=12;" vertex="1" connectable="0" parent="1">
          <mxGeometry x="1679.9970175438596" y="540" as="geometry" />
        </mxCell>
        <mxCell id="YlWmxhlo7YsZjN-7zyNk-102" value="&lt;span style=&quot;font-size: 20px;&quot;&gt;w&lt;/span&gt;" style="edgeLabel;html=1;align=center;verticalAlign=middle;resizable=0;points=[];fontSize=12;" vertex="1" connectable="0" parent="1">
          <mxGeometry x="1839.9970175438596" y="540" as="geometry" />
        </mxCell>
        <mxCell id="YlWmxhlo7YsZjN-7zyNk-103" value="&lt;span style=&quot;font-size: 20px;&quot;&gt;w&lt;/span&gt;" style="edgeLabel;html=1;align=center;verticalAlign=middle;resizable=0;points=[];fontSize=12;" vertex="1" connectable="0" parent="1">
          <mxGeometry x="1359.9933333333336" y="1020" as="geometry" />
        </mxCell>
        <mxCell id="YlWmxhlo7YsZjN-7zyNk-104" value="&lt;span style=&quot;font-size: 20px;&quot;&gt;x&lt;/span&gt;" style="edgeLabel;html=1;align=center;verticalAlign=middle;resizable=0;points=[];fontSize=12;" vertex="1" connectable="0" parent="1">
          <mxGeometry x="1519.9933333333336" y="1020" as="geometry" />
        </mxCell>
        <mxCell id="YlWmxhlo7YsZjN-7zyNk-105" value="&lt;span style=&quot;font-size: 20px;&quot;&gt;w&lt;/span&gt;" style="edgeLabel;html=1;align=center;verticalAlign=middle;resizable=0;points=[];fontSize=12;" vertex="1" connectable="0" parent="1">
          <mxGeometry x="1679.9933333333336" y="1020" as="geometry" />
        </mxCell>
        <mxCell id="YlWmxhlo7YsZjN-7zyNk-106" value="&lt;span style=&quot;font-size: 20px;&quot;&gt;x&lt;/span&gt;" style="edgeLabel;html=1;align=center;verticalAlign=middle;resizable=0;points=[];fontSize=12;" vertex="1" connectable="0" parent="1">
          <mxGeometry x="1840.0033333333336" y="1020" as="geometry" />
        </mxCell>
        <mxCell id="YlWmxhlo7YsZjN-7zyNk-107" value="q23" style="ellipse;whiteSpace=wrap;html=1;rounded=0;shadow=1;strokeColor=#666666;strokeWidth=1;fontSize=30;align=center;fillColor=#C7C7C7;" vertex="1" parent="1">
          <mxGeometry x="2440" y="240" width="80" height="80" as="geometry" />
        </mxCell>
        <mxCell id="YlWmxhlo7YsZjN-7zyNk-108" value="q32" style="ellipse;whiteSpace=wrap;html=1;rounded=0;shadow=1;strokeColor=#666666;strokeWidth=1;fontSize=30;align=center;fillColor=#C7C7C7;" vertex="1" parent="1">
          <mxGeometry x="2440" y="120" width="80" height="80" as="geometry" />
        </mxCell>
        <mxCell id="YlWmxhlo7YsZjN-7zyNk-109" value="q24" style="ellipse;whiteSpace=wrap;html=1;rounded=0;shadow=1;strokeColor=#666666;strokeWidth=1;fontSize=30;align=center;fillColor=#C7C7C7;" vertex="1" parent="1">
          <mxGeometry x="2440" width="80" height="80" as="geometry" />
        </mxCell>
        <mxCell id="YlWmxhlo7YsZjN-7zyNk-110" style="edgeStyle=none;curved=0;rounded=0;orthogonalLoop=1;jettySize=auto;html=1;exitX=0.5;exitY=0;exitDx=0;exitDy=0;entryX=0;entryY=0.5;entryDx=0;entryDy=0;fontSize=12;startSize=8;endSize=8;" edge="1" parent="1">
          <mxGeometry relative="1" as="geometry">
            <mxPoint x="2400" y="360" as="sourcePoint" />
            <mxPoint x="2440" y="40" as="targetPoint" />
            <Array as="points">
              <mxPoint x="2400" y="40" />
            </Array>
          </mxGeometry>
        </mxCell>
        <mxCell id="YlWmxhlo7YsZjN-7zyNk-111" value="&lt;font style=&quot;font-size: 20px;&quot;&gt;w&lt;/font&gt;" style="edgeLabel;html=1;align=center;verticalAlign=middle;resizable=0;points=[];fontSize=12;" vertex="1" connectable="0" parent="YlWmxhlo7YsZjN-7zyNk-110">
          <mxGeometry x="0.8611" relative="1" as="geometry">
            <mxPoint y="-20" as="offset" />
          </mxGeometry>
        </mxCell>
        <mxCell id="YlWmxhlo7YsZjN-7zyNk-112" style="edgeStyle=none;curved=0;rounded=0;orthogonalLoop=1;jettySize=auto;html=1;exitX=0.5;exitY=0;exitDx=0;exitDy=0;entryX=0;entryY=0.5;entryDx=0;entryDy=0;fontSize=12;startSize=8;endSize=8;" edge="1" parent="1">
          <mxGeometry relative="1" as="geometry">
            <mxPoint x="2400" y="360" as="sourcePoint" />
            <mxPoint x="2440" y="160" as="targetPoint" />
            <Array as="points">
              <mxPoint x="2400" y="160" />
            </Array>
          </mxGeometry>
        </mxCell>
        <mxCell id="YlWmxhlo7YsZjN-7zyNk-113" value="&lt;span style=&quot;font-size: 20px;&quot;&gt;y&lt;/span&gt;" style="edgeLabel;html=1;align=center;verticalAlign=middle;resizable=0;points=[];fontSize=12;" vertex="1" connectable="0" parent="YlWmxhlo7YsZjN-7zyNk-112">
          <mxGeometry x="0.7722" y="2" relative="1" as="geometry">
            <mxPoint y="-18" as="offset" />
          </mxGeometry>
        </mxCell>
        <mxCell id="YlWmxhlo7YsZjN-7zyNk-114" style="edgeStyle=none;curved=0;rounded=0;orthogonalLoop=1;jettySize=auto;html=1;exitX=0.5;exitY=0;exitDx=0;exitDy=0;entryX=0;entryY=0.5;entryDx=0;entryDy=0;fontSize=12;startSize=8;endSize=8;" edge="1" parent="1">
          <mxGeometry relative="1" as="geometry">
            <mxPoint x="2400" y="360" as="sourcePoint" />
            <mxPoint x="2440" y="280" as="targetPoint" />
            <Array as="points">
              <mxPoint x="2400" y="280" />
            </Array>
          </mxGeometry>
        </mxCell>
        <mxCell id="YlWmxhlo7YsZjN-7zyNk-115" value="&lt;font style=&quot;font-size: 20px;&quot;&gt;z&lt;/font&gt;" style="edgeLabel;html=1;align=center;verticalAlign=middle;resizable=0;points=[];fontSize=12;" vertex="1" connectable="0" parent="YlWmxhlo7YsZjN-7zyNk-114">
          <mxGeometry x="0.5778" y="1" relative="1" as="geometry">
            <mxPoint y="-19" as="offset" />
          </mxGeometry>
        </mxCell>
        <mxCell id="YlWmxhlo7YsZjN-7zyNk-116" value="q23" style="ellipse;whiteSpace=wrap;html=1;rounded=0;shadow=1;strokeColor=#666666;strokeWidth=1;fontSize=30;align=center;fillColor=#C7C7C7;" vertex="1" parent="1">
          <mxGeometry x="2600" y="240" width="80" height="80" as="geometry" />
        </mxCell>
        <mxCell id="YlWmxhlo7YsZjN-7zyNk-117" value="q32" style="ellipse;whiteSpace=wrap;html=1;rounded=0;shadow=1;strokeColor=#666666;strokeWidth=1;fontSize=30;align=center;fillColor=#C7C7C7;" vertex="1" parent="1">
          <mxGeometry x="2600" y="120" width="80" height="80" as="geometry" />
        </mxCell>
        <mxCell id="YlWmxhlo7YsZjN-7zyNk-118" value="q24" style="ellipse;whiteSpace=wrap;html=1;rounded=0;shadow=1;strokeColor=#666666;strokeWidth=1;fontSize=30;align=center;fillColor=#C7C7C7;" vertex="1" parent="1">
          <mxGeometry x="2600" width="80" height="80" as="geometry" />
        </mxCell>
        <mxCell id="YlWmxhlo7YsZjN-7zyNk-119" style="edgeStyle=none;curved=0;rounded=0;orthogonalLoop=1;jettySize=auto;html=1;exitX=0.5;exitY=0;exitDx=0;exitDy=0;entryX=0;entryY=0.5;entryDx=0;entryDy=0;fontSize=12;startSize=8;endSize=8;" edge="1" parent="1">
          <mxGeometry relative="1" as="geometry">
            <mxPoint x="2560" y="360" as="sourcePoint" />
            <mxPoint x="2600" y="40" as="targetPoint" />
            <Array as="points">
              <mxPoint x="2560" y="40" />
            </Array>
          </mxGeometry>
        </mxCell>
        <mxCell id="YlWmxhlo7YsZjN-7zyNk-120" value="&lt;font style=&quot;font-size: 20px;&quot;&gt;w&lt;/font&gt;" style="edgeLabel;html=1;align=center;verticalAlign=middle;resizable=0;points=[];fontSize=12;" vertex="1" connectable="0" parent="YlWmxhlo7YsZjN-7zyNk-119">
          <mxGeometry x="0.8611" relative="1" as="geometry">
            <mxPoint y="-20" as="offset" />
          </mxGeometry>
        </mxCell>
        <mxCell id="YlWmxhlo7YsZjN-7zyNk-121" style="edgeStyle=none;curved=0;rounded=0;orthogonalLoop=1;jettySize=auto;html=1;exitX=0.5;exitY=0;exitDx=0;exitDy=0;entryX=0;entryY=0.5;entryDx=0;entryDy=0;fontSize=12;startSize=8;endSize=8;" edge="1" parent="1">
          <mxGeometry relative="1" as="geometry">
            <mxPoint x="2560" y="360" as="sourcePoint" />
            <mxPoint x="2600" y="160" as="targetPoint" />
            <Array as="points">
              <mxPoint x="2560" y="160" />
            </Array>
          </mxGeometry>
        </mxCell>
        <mxCell id="YlWmxhlo7YsZjN-7zyNk-122" value="&lt;span style=&quot;font-size: 20px;&quot;&gt;y&lt;/span&gt;" style="edgeLabel;html=1;align=center;verticalAlign=middle;resizable=0;points=[];fontSize=12;" vertex="1" connectable="0" parent="YlWmxhlo7YsZjN-7zyNk-121">
          <mxGeometry x="0.7722" y="2" relative="1" as="geometry">
            <mxPoint y="-18" as="offset" />
          </mxGeometry>
        </mxCell>
        <mxCell id="YlWmxhlo7YsZjN-7zyNk-123" style="edgeStyle=none;curved=0;rounded=0;orthogonalLoop=1;jettySize=auto;html=1;exitX=0.5;exitY=0;exitDx=0;exitDy=0;entryX=0;entryY=0.5;entryDx=0;entryDy=0;fontSize=12;startSize=8;endSize=8;" edge="1" parent="1">
          <mxGeometry relative="1" as="geometry">
            <mxPoint x="2560" y="360" as="sourcePoint" />
            <mxPoint x="2600" y="280" as="targetPoint" />
            <Array as="points">
              <mxPoint x="2560" y="280" />
            </Array>
          </mxGeometry>
        </mxCell>
        <mxCell id="YlWmxhlo7YsZjN-7zyNk-124" value="&lt;font style=&quot;font-size: 20px;&quot;&gt;z&lt;/font&gt;" style="edgeLabel;html=1;align=center;verticalAlign=middle;resizable=0;points=[];fontSize=12;" vertex="1" connectable="0" parent="YlWmxhlo7YsZjN-7zyNk-123">
          <mxGeometry x="0.5778" y="1" relative="1" as="geometry">
            <mxPoint y="-19" as="offset" />
          </mxGeometry>
        </mxCell>
        <mxCell id="YlWmxhlo7YsZjN-7zyNk-125" value="q8" style="ellipse;whiteSpace=wrap;html=1;rounded=0;shadow=1;strokeColor=#666666;strokeWidth=1;fontSize=30;align=center;fillColor=#C7C7C7;" vertex="1" parent="1">
          <mxGeometry x="2760" y="240" width="80" height="80" as="geometry" />
        </mxCell>
        <mxCell id="YlWmxhlo7YsZjN-7zyNk-126" value="q5" style="ellipse;whiteSpace=wrap;html=1;rounded=0;shadow=1;strokeColor=#666666;strokeWidth=1;fontSize=30;align=center;fillColor=#C7C7C7;" vertex="1" parent="1">
          <mxGeometry x="2760" y="120" width="80" height="80" as="geometry" />
        </mxCell>
        <mxCell id="YlWmxhlo7YsZjN-7zyNk-127" value="q6" style="ellipse;whiteSpace=wrap;html=1;rounded=0;shadow=1;strokeColor=#666666;strokeWidth=1;fontSize=30;align=center;fillColor=#C7C7C7;" vertex="1" parent="1">
          <mxGeometry x="2760" width="80" height="80" as="geometry" />
        </mxCell>
        <mxCell id="YlWmxhlo7YsZjN-7zyNk-128" style="edgeStyle=none;curved=0;rounded=0;orthogonalLoop=1;jettySize=auto;html=1;exitX=0.5;exitY=0;exitDx=0;exitDy=0;entryX=0;entryY=0.5;entryDx=0;entryDy=0;fontSize=12;startSize=8;endSize=8;" edge="1" parent="1" target="YlWmxhlo7YsZjN-7zyNk-127">
          <mxGeometry relative="1" as="geometry">
            <Array as="points">
              <mxPoint x="2720" y="40" />
            </Array>
            <mxPoint x="2720" y="360" as="sourcePoint" />
          </mxGeometry>
        </mxCell>
        <mxCell id="YlWmxhlo7YsZjN-7zyNk-129" value="&lt;font style=&quot;font-size: 20px;&quot;&gt;b&lt;/font&gt;" style="edgeLabel;html=1;align=center;verticalAlign=middle;resizable=0;points=[];fontSize=12;" vertex="1" connectable="0" parent="YlWmxhlo7YsZjN-7zyNk-128">
          <mxGeometry x="0.8611" relative="1" as="geometry">
            <mxPoint y="-20" as="offset" />
          </mxGeometry>
        </mxCell>
        <mxCell id="YlWmxhlo7YsZjN-7zyNk-130" style="edgeStyle=none;curved=0;rounded=0;orthogonalLoop=1;jettySize=auto;html=1;exitX=0.5;exitY=0;exitDx=0;exitDy=0;entryX=0;entryY=0.5;entryDx=0;entryDy=0;fontSize=12;startSize=8;endSize=8;" edge="1" parent="1" target="YlWmxhlo7YsZjN-7zyNk-126">
          <mxGeometry relative="1" as="geometry">
            <Array as="points">
              <mxPoint x="2720" y="160" />
            </Array>
            <mxPoint x="2720" y="360" as="sourcePoint" />
          </mxGeometry>
        </mxCell>
        <mxCell id="YlWmxhlo7YsZjN-7zyNk-131" value="&lt;span style=&quot;font-size: 20px;&quot;&gt;c&lt;/span&gt;" style="edgeLabel;html=1;align=center;verticalAlign=middle;resizable=0;points=[];fontSize=12;" vertex="1" connectable="0" parent="YlWmxhlo7YsZjN-7zyNk-130">
          <mxGeometry x="0.7722" y="2" relative="1" as="geometry">
            <mxPoint y="-18" as="offset" />
          </mxGeometry>
        </mxCell>
        <mxCell id="YlWmxhlo7YsZjN-7zyNk-132" style="edgeStyle=none;curved=0;rounded=0;orthogonalLoop=1;jettySize=auto;html=1;exitX=0.5;exitY=0;exitDx=0;exitDy=0;entryX=0;entryY=0.5;entryDx=0;entryDy=0;fontSize=12;startSize=8;endSize=8;" edge="1" parent="1" target="YlWmxhlo7YsZjN-7zyNk-125">
          <mxGeometry relative="1" as="geometry">
            <Array as="points">
              <mxPoint x="2720" y="280" />
            </Array>
            <mxPoint x="2720" y="360" as="sourcePoint" />
          </mxGeometry>
        </mxCell>
        <mxCell id="YlWmxhlo7YsZjN-7zyNk-133" value="&lt;font style=&quot;font-size: 20px;&quot;&gt;y&lt;/font&gt;" style="edgeLabel;html=1;align=center;verticalAlign=middle;resizable=0;points=[];fontSize=12;" vertex="1" connectable="0" parent="YlWmxhlo7YsZjN-7zyNk-132">
          <mxGeometry x="0.5778" y="1" relative="1" as="geometry">
            <mxPoint y="-19" as="offset" />
          </mxGeometry>
        </mxCell>
        <mxCell id="YlWmxhlo7YsZjN-7zyNk-134" value="q29" style="ellipse;whiteSpace=wrap;html=1;rounded=0;shadow=1;strokeColor=#666666;strokeWidth=1;fontSize=30;align=center;fillColor=#C7C7C7;" vertex="1" parent="1">
          <mxGeometry x="2760" y="240" width="80" height="80" as="geometry" />
        </mxCell>
        <mxCell id="YlWmxhlo7YsZjN-7zyNk-135" value="q28" style="ellipse;whiteSpace=wrap;html=1;rounded=0;shadow=1;strokeColor=#666666;strokeWidth=1;fontSize=30;align=center;fillColor=#C7C7C7;" vertex="1" parent="1">
          <mxGeometry x="2760" y="120" width="80" height="80" as="geometry" />
        </mxCell>
        <mxCell id="YlWmxhlo7YsZjN-7zyNk-136" value="q24" style="ellipse;whiteSpace=wrap;html=1;rounded=0;shadow=1;strokeColor=#666666;strokeWidth=1;fontSize=30;align=center;fillColor=#C7C7C7;" vertex="1" parent="1">
          <mxGeometry x="2760" width="80" height="80" as="geometry" />
        </mxCell>
        <mxCell id="YlWmxhlo7YsZjN-7zyNk-137" style="edgeStyle=none;curved=0;rounded=0;orthogonalLoop=1;jettySize=auto;html=1;exitX=0.5;exitY=0;exitDx=0;exitDy=0;entryX=0;entryY=0.5;entryDx=0;entryDy=0;fontSize=12;startSize=8;endSize=8;" edge="1" parent="1" target="YlWmxhlo7YsZjN-7zyNk-136">
          <mxGeometry relative="1" as="geometry">
            <Array as="points">
              <mxPoint x="2720" y="40" />
            </Array>
            <mxPoint x="2720" y="360" as="sourcePoint" />
          </mxGeometry>
        </mxCell>
        <mxCell id="YlWmxhlo7YsZjN-7zyNk-138" value="&lt;font style=&quot;font-size: 20px;&quot;&gt;w&lt;/font&gt;" style="edgeLabel;html=1;align=center;verticalAlign=middle;resizable=0;points=[];fontSize=12;" vertex="1" connectable="0" parent="YlWmxhlo7YsZjN-7zyNk-137">
          <mxGeometry x="0.8611" relative="1" as="geometry">
            <mxPoint y="-20" as="offset" />
          </mxGeometry>
        </mxCell>
        <mxCell id="YlWmxhlo7YsZjN-7zyNk-139" style="edgeStyle=none;curved=0;rounded=0;orthogonalLoop=1;jettySize=auto;html=1;exitX=0.5;exitY=0;exitDx=0;exitDy=0;entryX=0;entryY=0.5;entryDx=0;entryDy=0;fontSize=12;startSize=8;endSize=8;" edge="1" parent="1" target="YlWmxhlo7YsZjN-7zyNk-135">
          <mxGeometry relative="1" as="geometry">
            <Array as="points">
              <mxPoint x="2720" y="160" />
            </Array>
            <mxPoint x="2720" y="360" as="sourcePoint" />
          </mxGeometry>
        </mxCell>
        <mxCell id="YlWmxhlo7YsZjN-7zyNk-140" value="&lt;span style=&quot;font-size: 20px;&quot;&gt;x&lt;/span&gt;" style="edgeLabel;html=1;align=center;verticalAlign=middle;resizable=0;points=[];fontSize=12;" vertex="1" connectable="0" parent="YlWmxhlo7YsZjN-7zyNk-139">
          <mxGeometry x="0.7722" y="2" relative="1" as="geometry">
            <mxPoint y="-18" as="offset" />
          </mxGeometry>
        </mxCell>
        <mxCell id="YlWmxhlo7YsZjN-7zyNk-141" style="edgeStyle=none;curved=0;rounded=0;orthogonalLoop=1;jettySize=auto;html=1;exitX=0.5;exitY=0;exitDx=0;exitDy=0;entryX=0;entryY=0.5;entryDx=0;entryDy=0;fontSize=12;startSize=8;endSize=8;" edge="1" parent="1" target="YlWmxhlo7YsZjN-7zyNk-134">
          <mxGeometry relative="1" as="geometry">
            <Array as="points">
              <mxPoint x="2720" y="280" />
            </Array>
            <mxPoint x="2720" y="360" as="sourcePoint" />
          </mxGeometry>
        </mxCell>
        <mxCell id="YlWmxhlo7YsZjN-7zyNk-160" value="q23" style="ellipse;whiteSpace=wrap;html=1;rounded=0;shadow=1;strokeColor=#666666;strokeWidth=1;fontSize=30;align=center;fillColor=#C7C7C7;" vertex="1" parent="1">
          <mxGeometry x="2440" y="880" width="80" height="80" as="geometry" />
        </mxCell>
        <mxCell id="YlWmxhlo7YsZjN-7zyNk-161" value="q28" style="ellipse;whiteSpace=wrap;html=1;rounded=0;shadow=1;strokeColor=#666666;strokeWidth=1;fontSize=30;align=center;fillColor=#C7C7C7;" vertex="1" parent="1">
          <mxGeometry x="2440" y="760" width="80" height="80" as="geometry" />
        </mxCell>
        <mxCell id="YlWmxhlo7YsZjN-7zyNk-162" value="q24" style="ellipse;whiteSpace=wrap;html=1;rounded=0;shadow=1;strokeColor=#666666;strokeWidth=1;fontSize=30;align=center;fillColor=#C7C7C7;" vertex="1" parent="1">
          <mxGeometry x="2440" y="640" width="80" height="80" as="geometry" />
        </mxCell>
        <mxCell id="YlWmxhlo7YsZjN-7zyNk-163" style="edgeStyle=none;curved=0;rounded=0;orthogonalLoop=1;jettySize=auto;html=1;exitX=0.5;exitY=1;exitDx=0;exitDy=0;entryX=0;entryY=0.5;entryDx=0;entryDy=0;fontSize=12;startSize=8;endSize=8;" edge="1" parent="1">
          <mxGeometry relative="1" as="geometry">
            <mxPoint x="2400" y="600" as="sourcePoint" />
            <Array as="points">
              <mxPoint x="2400" y="920" />
            </Array>
            <mxPoint x="2439.9999999999845" y="920" as="targetPoint" />
          </mxGeometry>
        </mxCell>
        <mxCell id="YlWmxhlo7YsZjN-7zyNk-164" value="&lt;font style=&quot;font-size: 20px;&quot;&gt;z&lt;/font&gt;" style="edgeLabel;html=1;align=center;verticalAlign=middle;resizable=0;points=[];fontSize=12;" vertex="1" connectable="0" parent="YlWmxhlo7YsZjN-7zyNk-163">
          <mxGeometry x="0.8705" y="1" relative="1" as="geometry">
            <mxPoint y="-19" as="offset" />
          </mxGeometry>
        </mxCell>
        <mxCell id="YlWmxhlo7YsZjN-7zyNk-165" style="edgeStyle=none;curved=0;rounded=0;orthogonalLoop=1;jettySize=auto;html=1;exitX=0.5;exitY=1;exitDx=0;exitDy=0;entryX=0;entryY=0.5;entryDx=0;entryDy=0;fontSize=12;startSize=8;endSize=8;" edge="1" parent="1">
          <mxGeometry relative="1" as="geometry">
            <mxPoint x="2400" y="600" as="sourcePoint" />
            <Array as="points">
              <mxPoint x="2400" y="680" />
            </Array>
            <mxPoint x="2439.9999999999845" y="680" as="targetPoint" />
          </mxGeometry>
        </mxCell>
        <mxCell id="YlWmxhlo7YsZjN-7zyNk-166" value="&lt;font style=&quot;font-size: 20px;&quot;&gt;w&lt;/font&gt;" style="edgeLabel;html=1;align=center;verticalAlign=middle;resizable=0;points=[];fontSize=12;" vertex="1" connectable="0" parent="YlWmxhlo7YsZjN-7zyNk-165">
          <mxGeometry x="0.5868" y="4" relative="1" as="geometry">
            <mxPoint y="-16" as="offset" />
          </mxGeometry>
        </mxCell>
        <mxCell id="YlWmxhlo7YsZjN-7zyNk-167" style="edgeStyle=none;curved=0;rounded=0;orthogonalLoop=1;jettySize=auto;html=1;exitX=0.5;exitY=1;exitDx=0;exitDy=0;entryX=0;entryY=0.5;entryDx=0;entryDy=0;fontSize=12;startSize=8;endSize=8;" edge="1" parent="1">
          <mxGeometry relative="1" as="geometry">
            <mxPoint x="2400" y="600" as="sourcePoint" />
            <Array as="points">
              <mxPoint x="2400" y="800" />
            </Array>
            <mxPoint x="2439.9999999999845" y="800" as="targetPoint" />
          </mxGeometry>
        </mxCell>
        <mxCell id="YlWmxhlo7YsZjN-7zyNk-168" value="&lt;font style=&quot;font-size: 20px;&quot;&gt;x&lt;/font&gt;" style="edgeLabel;html=1;align=center;verticalAlign=middle;resizable=0;points=[];fontSize=12;" vertex="1" connectable="0" parent="YlWmxhlo7YsZjN-7zyNk-167">
          <mxGeometry x="0.7841" y="1" relative="1" as="geometry">
            <mxPoint y="-19" as="offset" />
          </mxGeometry>
        </mxCell>
        <mxCell id="YlWmxhlo7YsZjN-7zyNk-169" value="q32" style="ellipse;whiteSpace=wrap;html=1;rounded=0;shadow=1;strokeColor=#666666;strokeWidth=1;fontSize=30;align=center;fillColor=#C7C7C7;" vertex="1" parent="1">
          <mxGeometry x="2600" y="880" width="80" height="80" as="geometry" />
        </mxCell>
        <mxCell id="YlWmxhlo7YsZjN-7zyNk-170" value="q28" style="ellipse;whiteSpace=wrap;html=1;rounded=0;shadow=1;strokeColor=#666666;strokeWidth=1;fontSize=30;align=center;fillColor=#C7C7C7;" vertex="1" parent="1">
          <mxGeometry x="2600" y="760" width="80" height="80" as="geometry" />
        </mxCell>
        <mxCell id="YlWmxhlo7YsZjN-7zyNk-171" value="q24" style="ellipse;whiteSpace=wrap;html=1;rounded=0;shadow=1;strokeColor=#666666;strokeWidth=1;fontSize=30;align=center;fillColor=#C7C7C7;" vertex="1" parent="1">
          <mxGeometry x="2600" y="640" width="80" height="80" as="geometry" />
        </mxCell>
        <mxCell id="YlWmxhlo7YsZjN-7zyNk-172" style="edgeStyle=none;curved=0;rounded=0;orthogonalLoop=1;jettySize=auto;html=1;exitX=0.5;exitY=1;exitDx=0;exitDy=0;entryX=0;entryY=0.5;entryDx=0;entryDy=0;fontSize=12;startSize=8;endSize=8;" edge="1" parent="1">
          <mxGeometry relative="1" as="geometry">
            <mxPoint x="2560" y="600" as="sourcePoint" />
            <Array as="points">
              <mxPoint x="2560" y="920" />
            </Array>
            <mxPoint x="2599.9999999999845" y="920" as="targetPoint" />
          </mxGeometry>
        </mxCell>
        <mxCell id="YlWmxhlo7YsZjN-7zyNk-173" value="&lt;font style=&quot;font-size: 20px;&quot;&gt;y&lt;/font&gt;" style="edgeLabel;html=1;align=center;verticalAlign=middle;resizable=0;points=[];fontSize=12;" vertex="1" connectable="0" parent="YlWmxhlo7YsZjN-7zyNk-172">
          <mxGeometry x="0.8705" y="1" relative="1" as="geometry">
            <mxPoint y="-19" as="offset" />
          </mxGeometry>
        </mxCell>
        <mxCell id="YlWmxhlo7YsZjN-7zyNk-174" style="edgeStyle=none;curved=0;rounded=0;orthogonalLoop=1;jettySize=auto;html=1;exitX=0.5;exitY=1;exitDx=0;exitDy=0;entryX=0;entryY=0.5;entryDx=0;entryDy=0;fontSize=12;startSize=8;endSize=8;" edge="1" parent="1">
          <mxGeometry relative="1" as="geometry">
            <mxPoint x="2560" y="600" as="sourcePoint" />
            <Array as="points">
              <mxPoint x="2560" y="680" />
            </Array>
            <mxPoint x="2599.9999999999845" y="680" as="targetPoint" />
          </mxGeometry>
        </mxCell>
        <mxCell id="YlWmxhlo7YsZjN-7zyNk-175" value="&lt;font style=&quot;font-size: 20px;&quot;&gt;w&lt;/font&gt;" style="edgeLabel;html=1;align=center;verticalAlign=middle;resizable=0;points=[];fontSize=12;" vertex="1" connectable="0" parent="YlWmxhlo7YsZjN-7zyNk-174">
          <mxGeometry x="0.5868" y="4" relative="1" as="geometry">
            <mxPoint y="-16" as="offset" />
          </mxGeometry>
        </mxCell>
        <mxCell id="YlWmxhlo7YsZjN-7zyNk-176" style="edgeStyle=none;curved=0;rounded=0;orthogonalLoop=1;jettySize=auto;html=1;exitX=0.5;exitY=1;exitDx=0;exitDy=0;entryX=0;entryY=0.5;entryDx=0;entryDy=0;fontSize=12;startSize=8;endSize=8;" edge="1" parent="1">
          <mxGeometry relative="1" as="geometry">
            <mxPoint x="2560" y="600" as="sourcePoint" />
            <Array as="points">
              <mxPoint x="2560" y="800" />
            </Array>
            <mxPoint x="2599.9999999999845" y="800" as="targetPoint" />
          </mxGeometry>
        </mxCell>
        <mxCell id="YlWmxhlo7YsZjN-7zyNk-177" value="&lt;font style=&quot;font-size: 20px;&quot;&gt;x&lt;/font&gt;" style="edgeLabel;html=1;align=center;verticalAlign=middle;resizable=0;points=[];fontSize=12;" vertex="1" connectable="0" parent="YlWmxhlo7YsZjN-7zyNk-176">
          <mxGeometry x="0.7841" y="1" relative="1" as="geometry">
            <mxPoint y="-19" as="offset" />
          </mxGeometry>
        </mxCell>
        <mxCell id="YlWmxhlo7YsZjN-7zyNk-196" value="q23" style="ellipse;whiteSpace=wrap;html=1;rounded=0;shadow=1;strokeColor=#666666;strokeWidth=1;fontSize=30;align=center;fillColor=#C7C7C7;" vertex="1" parent="1">
          <mxGeometry x="2760" y="880" width="80" height="80" as="geometry" />
        </mxCell>
        <mxCell id="YlWmxhlo7YsZjN-7zyNk-197" value="q32" style="ellipse;whiteSpace=wrap;html=1;rounded=0;shadow=1;strokeColor=#666666;strokeWidth=1;fontSize=30;align=center;fillColor=#C7C7C7;" vertex="1" parent="1">
          <mxGeometry x="2760" y="760" width="80" height="80" as="geometry" />
        </mxCell>
        <mxCell id="YlWmxhlo7YsZjN-7zyNk-198" value="q34" style="ellipse;whiteSpace=wrap;html=1;rounded=0;shadow=1;strokeColor=#666666;strokeWidth=1;fontSize=30;align=center;fillColor=#C7C7C7;" vertex="1" parent="1">
          <mxGeometry x="2760" y="640" width="80" height="80" as="geometry" />
        </mxCell>
        <mxCell id="YlWmxhlo7YsZjN-7zyNk-199" style="edgeStyle=none;curved=0;rounded=0;orthogonalLoop=1;jettySize=auto;html=1;exitX=0.5;exitY=1;exitDx=0;exitDy=0;entryX=0;entryY=0.5;entryDx=0;entryDy=0;fontSize=12;startSize=8;endSize=8;" edge="1" parent="1">
          <mxGeometry relative="1" as="geometry">
            <mxPoint x="2720" y="600" as="sourcePoint" />
            <Array as="points">
              <mxPoint x="2720" y="920" />
            </Array>
            <mxPoint x="2759.9999999999845" y="920" as="targetPoint" />
          </mxGeometry>
        </mxCell>
        <mxCell id="YlWmxhlo7YsZjN-7zyNk-200" value="&lt;font style=&quot;font-size: 20px;&quot;&gt;z&lt;/font&gt;" style="edgeLabel;html=1;align=center;verticalAlign=middle;resizable=0;points=[];fontSize=12;" vertex="1" connectable="0" parent="YlWmxhlo7YsZjN-7zyNk-199">
          <mxGeometry x="0.8705" y="1" relative="1" as="geometry">
            <mxPoint y="-19" as="offset" />
          </mxGeometry>
        </mxCell>
        <mxCell id="YlWmxhlo7YsZjN-7zyNk-201" style="edgeStyle=none;curved=0;rounded=0;orthogonalLoop=1;jettySize=auto;html=1;exitX=0.5;exitY=1;exitDx=0;exitDy=0;entryX=0;entryY=0.5;entryDx=0;entryDy=0;fontSize=12;startSize=8;endSize=8;" edge="1" parent="1">
          <mxGeometry relative="1" as="geometry">
            <mxPoint x="2720" y="600" as="sourcePoint" />
            <Array as="points">
              <mxPoint x="2720" y="680" />
            </Array>
            <mxPoint x="2759.9999999999845" y="680" as="targetPoint" />
          </mxGeometry>
        </mxCell>
        <mxCell id="YlWmxhlo7YsZjN-7zyNk-202" value="&lt;span style=&quot;font-size: 20px;&quot;&gt;w&lt;/span&gt;" style="edgeLabel;html=1;align=center;verticalAlign=middle;resizable=0;points=[];fontSize=12;" vertex="1" connectable="0" parent="YlWmxhlo7YsZjN-7zyNk-201">
          <mxGeometry x="0.5868" y="4" relative="1" as="geometry">
            <mxPoint y="-16" as="offset" />
          </mxGeometry>
        </mxCell>
        <mxCell id="YlWmxhlo7YsZjN-7zyNk-203" style="edgeStyle=none;curved=0;rounded=0;orthogonalLoop=1;jettySize=auto;html=1;exitX=0.5;exitY=1;exitDx=0;exitDy=0;entryX=0;entryY=0.5;entryDx=0;entryDy=0;fontSize=12;startSize=8;endSize=8;" edge="1" parent="1">
          <mxGeometry relative="1" as="geometry">
            <mxPoint x="2720" y="600" as="sourcePoint" />
            <Array as="points">
              <mxPoint x="2720" y="800" />
            </Array>
            <mxPoint x="2759.9999999999845" y="800" as="targetPoint" />
          </mxGeometry>
        </mxCell>
        <mxCell id="YlWmxhlo7YsZjN-7zyNk-204" value="&lt;font style=&quot;font-size: 20px;&quot;&gt;y&lt;/font&gt;" style="edgeLabel;html=1;align=center;verticalAlign=middle;resizable=0;points=[];fontSize=12;" vertex="1" connectable="0" parent="YlWmxhlo7YsZjN-7zyNk-203">
          <mxGeometry x="0.7841" y="1" relative="1" as="geometry">
            <mxPoint y="-19" as="offset" />
          </mxGeometry>
        </mxCell>
        <mxCell id="YlWmxhlo7YsZjN-7zyNk-205" value="q32" style="ellipse;whiteSpace=wrap;html=1;rounded=0;shadow=1;strokeColor=#666666;strokeWidth=1;fontSize=30;align=center;fillColor=#C7C7C7;" vertex="1" parent="1">
          <mxGeometry x="2440" y="1480" width="80" height="80" as="geometry" />
        </mxCell>
        <mxCell id="YlWmxhlo7YsZjN-7zyNk-206" value="q28" style="ellipse;whiteSpace=wrap;html=1;rounded=0;shadow=1;strokeColor=#666666;strokeWidth=1;fontSize=30;align=center;fillColor=#C7C7C7;" vertex="1" parent="1">
          <mxGeometry x="2440" y="1360" width="80" height="80" as="geometry" />
        </mxCell>
        <mxCell id="YlWmxhlo7YsZjN-7zyNk-207" value="q24" style="ellipse;whiteSpace=wrap;html=1;rounded=0;shadow=1;strokeColor=#666666;strokeWidth=1;fontSize=30;align=center;fillColor=#C7C7C7;" vertex="1" parent="1">
          <mxGeometry x="2440" y="1240" width="80" height="80" as="geometry" />
        </mxCell>
        <mxCell id="YlWmxhlo7YsZjN-7zyNk-208" style="edgeStyle=none;curved=0;rounded=0;orthogonalLoop=1;jettySize=auto;html=1;exitX=0.5;exitY=1;exitDx=0;exitDy=0;entryX=0;entryY=0.5;entryDx=0;entryDy=0;fontSize=12;startSize=8;endSize=8;" edge="1" parent="1">
          <mxGeometry relative="1" as="geometry">
            <mxPoint x="2400" y="1200" as="sourcePoint" />
            <Array as="points">
              <mxPoint x="2400" y="1520" />
            </Array>
            <mxPoint x="2439.9999999999845" y="1520" as="targetPoint" />
          </mxGeometry>
        </mxCell>
        <mxCell id="YlWmxhlo7YsZjN-7zyNk-209" value="&lt;font style=&quot;font-size: 20px;&quot;&gt;y&lt;/font&gt;" style="edgeLabel;html=1;align=center;verticalAlign=middle;resizable=0;points=[];fontSize=12;" vertex="1" connectable="0" parent="YlWmxhlo7YsZjN-7zyNk-208">
          <mxGeometry x="0.8705" y="1" relative="1" as="geometry">
            <mxPoint y="-19" as="offset" />
          </mxGeometry>
        </mxCell>
        <mxCell id="YlWmxhlo7YsZjN-7zyNk-210" style="edgeStyle=none;curved=0;rounded=0;orthogonalLoop=1;jettySize=auto;html=1;exitX=0.5;exitY=1;exitDx=0;exitDy=0;entryX=0;entryY=0.5;entryDx=0;entryDy=0;fontSize=12;startSize=8;endSize=8;" edge="1" parent="1">
          <mxGeometry relative="1" as="geometry">
            <mxPoint x="2400" y="1200" as="sourcePoint" />
            <Array as="points">
              <mxPoint x="2400" y="1280" />
            </Array>
            <mxPoint x="2439.9999999999845" y="1280" as="targetPoint" />
          </mxGeometry>
        </mxCell>
        <mxCell id="YlWmxhlo7YsZjN-7zyNk-211" value="&lt;font style=&quot;font-size: 20px;&quot;&gt;w&lt;/font&gt;" style="edgeLabel;html=1;align=center;verticalAlign=middle;resizable=0;points=[];fontSize=12;" vertex="1" connectable="0" parent="YlWmxhlo7YsZjN-7zyNk-210">
          <mxGeometry x="0.5868" y="4" relative="1" as="geometry">
            <mxPoint y="-16" as="offset" />
          </mxGeometry>
        </mxCell>
        <mxCell id="YlWmxhlo7YsZjN-7zyNk-212" style="edgeStyle=none;curved=0;rounded=0;orthogonalLoop=1;jettySize=auto;html=1;exitX=0.5;exitY=1;exitDx=0;exitDy=0;entryX=0;entryY=0.5;entryDx=0;entryDy=0;fontSize=12;startSize=8;endSize=8;" edge="1" parent="1">
          <mxGeometry relative="1" as="geometry">
            <mxPoint x="2400" y="1200" as="sourcePoint" />
            <Array as="points">
              <mxPoint x="2400" y="1400" />
            </Array>
            <mxPoint x="2439.9999999999845" y="1400" as="targetPoint" />
          </mxGeometry>
        </mxCell>
        <mxCell id="YlWmxhlo7YsZjN-7zyNk-213" value="&lt;font style=&quot;font-size: 20px;&quot;&gt;x&lt;/font&gt;" style="edgeLabel;html=1;align=center;verticalAlign=middle;resizable=0;points=[];fontSize=12;" vertex="1" connectable="0" parent="YlWmxhlo7YsZjN-7zyNk-212">
          <mxGeometry x="0.7841" y="1" relative="1" as="geometry">
            <mxPoint y="-19" as="offset" />
          </mxGeometry>
        </mxCell>
        <mxCell id="YlWmxhlo7YsZjN-7zyNk-214" style="edgeStyle=none;curved=0;rounded=0;orthogonalLoop=1;jettySize=auto;html=1;exitX=0.5;exitY=1;exitDx=0;exitDy=0;entryX=0;entryY=0.5;entryDx=0;entryDy=0;fontSize=12;startSize=8;endSize=8;" edge="1" parent="1" target="YlWmxhlo7YsZjN-7zyNk-218">
          <mxGeometry relative="1" as="geometry">
            <Array as="points">
              <mxPoint x="2560" y="1520" />
            </Array>
            <mxPoint x="2560" y="1200" as="sourcePoint" />
          </mxGeometry>
        </mxCell>
        <mxCell id="YlWmxhlo7YsZjN-7zyNk-215" value="&lt;font style=&quot;font-size: 20px;&quot;&gt;z&lt;/font&gt;" style="edgeLabel;html=1;align=center;verticalAlign=middle;resizable=0;points=[];fontSize=12;" vertex="1" connectable="0" parent="YlWmxhlo7YsZjN-7zyNk-214">
          <mxGeometry x="0.8705" y="1" relative="1" as="geometry">
            <mxPoint y="-19" as="offset" />
          </mxGeometry>
        </mxCell>
        <mxCell id="YlWmxhlo7YsZjN-7zyNk-216" style="edgeStyle=none;curved=0;rounded=0;orthogonalLoop=1;jettySize=auto;html=1;exitX=0.5;exitY=1;exitDx=0;exitDy=0;entryX=0;entryY=0.5;entryDx=0;entryDy=0;fontSize=12;startSize=8;endSize=8;" edge="1" parent="1" target="YlWmxhlo7YsZjN-7zyNk-220">
          <mxGeometry relative="1" as="geometry">
            <Array as="points">
              <mxPoint x="2560" y="1280" />
            </Array>
            <mxPoint x="2560" y="1200" as="sourcePoint" />
          </mxGeometry>
        </mxCell>
        <mxCell id="YlWmxhlo7YsZjN-7zyNk-217" value="&lt;font style=&quot;font-size: 20px;&quot;&gt;x&lt;/font&gt;" style="edgeLabel;html=1;align=center;verticalAlign=middle;resizable=0;points=[];fontSize=12;" vertex="1" connectable="0" parent="YlWmxhlo7YsZjN-7zyNk-216">
          <mxGeometry x="0.5868" y="4" relative="1" as="geometry">
            <mxPoint y="-16" as="offset" />
          </mxGeometry>
        </mxCell>
        <mxCell id="YlWmxhlo7YsZjN-7zyNk-218" value="q8" style="ellipse;whiteSpace=wrap;html=1;rounded=0;shadow=1;strokeColor=#666666;strokeWidth=1;fontSize=30;align=center;fillColor=#C7C7C7;" vertex="1" parent="1">
          <mxGeometry x="2600" y="1480" width="80" height="80" as="geometry" />
        </mxCell>
        <mxCell id="YlWmxhlo7YsZjN-7zyNk-219" value="q5" style="ellipse;whiteSpace=wrap;html=1;rounded=0;shadow=1;strokeColor=#666666;strokeWidth=1;fontSize=30;align=center;fillColor=#C7C7C7;" vertex="1" parent="1">
          <mxGeometry x="2600" y="1360" width="80" height="80" as="geometry" />
        </mxCell>
        <mxCell id="YlWmxhlo7YsZjN-7zyNk-220" value="q5" style="ellipse;whiteSpace=wrap;html=1;rounded=0;shadow=1;strokeColor=#666666;strokeWidth=1;fontSize=30;align=center;fillColor=#C7C7C7;" vertex="1" parent="1">
          <mxGeometry x="2600" y="1240" width="80" height="80" as="geometry" />
        </mxCell>
        <mxCell id="YlWmxhlo7YsZjN-7zyNk-221" style="edgeStyle=none;curved=0;rounded=0;orthogonalLoop=1;jettySize=auto;html=1;exitX=0.5;exitY=1;exitDx=0;exitDy=0;entryX=0;entryY=0.5;entryDx=0;entryDy=0;fontSize=12;startSize=8;endSize=8;" edge="1" parent="1" target="YlWmxhlo7YsZjN-7zyNk-219">
          <mxGeometry relative="1" as="geometry">
            <Array as="points">
              <mxPoint x="2560" y="1400" />
            </Array>
            <mxPoint x="2560" y="1200" as="sourcePoint" />
          </mxGeometry>
        </mxCell>
        <mxCell id="YlWmxhlo7YsZjN-7zyNk-222" value="&lt;font style=&quot;font-size: 20px;&quot;&gt;y&lt;/font&gt;" style="edgeLabel;html=1;align=center;verticalAlign=middle;resizable=0;points=[];fontSize=12;" vertex="1" connectable="0" parent="YlWmxhlo7YsZjN-7zyNk-221">
          <mxGeometry x="0.7841" y="1" relative="1" as="geometry">
            <mxPoint y="-19" as="offset" />
          </mxGeometry>
        </mxCell>
        <mxCell id="YlWmxhlo7YsZjN-7zyNk-223" value="q23" style="ellipse;whiteSpace=wrap;html=1;rounded=0;shadow=1;strokeColor=#666666;strokeWidth=1;fontSize=30;align=center;fillColor=#C7C7C7;" vertex="1" parent="1">
          <mxGeometry x="2600" y="1480" width="80" height="80" as="geometry" />
        </mxCell>
        <mxCell id="YlWmxhlo7YsZjN-7zyNk-224" value="q32" style="ellipse;whiteSpace=wrap;html=1;rounded=0;shadow=1;strokeColor=#666666;strokeWidth=1;fontSize=30;align=center;fillColor=#C7C7C7;" vertex="1" parent="1">
          <mxGeometry x="2600" y="1360" width="80" height="80" as="geometry" />
        </mxCell>
        <mxCell id="YlWmxhlo7YsZjN-7zyNk-225" value="q28" style="ellipse;whiteSpace=wrap;html=1;rounded=0;shadow=1;strokeColor=#666666;strokeWidth=1;fontSize=30;align=center;fillColor=#C7C7C7;" vertex="1" parent="1">
          <mxGeometry x="2600" y="1240" width="80" height="80" as="geometry" />
        </mxCell>
        <mxCell id="YlWmxhlo7YsZjN-7zyNk-227" value="q23" style="ellipse;whiteSpace=wrap;html=1;rounded=0;shadow=1;strokeColor=#666666;strokeWidth=1;fontSize=30;align=center;fillColor=#C7C7C7;" vertex="1" parent="1">
          <mxGeometry x="2760" y="1480" width="80" height="80" as="geometry" />
        </mxCell>
        <mxCell id="YlWmxhlo7YsZjN-7zyNk-228" value="q32" style="ellipse;whiteSpace=wrap;html=1;rounded=0;shadow=1;strokeColor=#666666;strokeWidth=1;fontSize=30;align=center;fillColor=#C7C7C7;" vertex="1" parent="1">
          <mxGeometry x="2760" y="1360" width="80" height="80" as="geometry" />
        </mxCell>
        <mxCell id="YlWmxhlo7YsZjN-7zyNk-229" value="q24" style="ellipse;whiteSpace=wrap;html=1;rounded=0;shadow=1;strokeColor=#666666;strokeWidth=1;fontSize=30;align=center;fillColor=#C7C7C7;" vertex="1" parent="1">
          <mxGeometry x="2760" y="1240" width="80" height="80" as="geometry" />
        </mxCell>
        <mxCell id="YlWmxhlo7YsZjN-7zyNk-230" style="edgeStyle=none;curved=0;rounded=0;orthogonalLoop=1;jettySize=auto;html=1;exitX=0.5;exitY=1;exitDx=0;exitDy=0;entryX=0;entryY=0.5;entryDx=0;entryDy=0;fontSize=12;startSize=8;endSize=8;" edge="1" parent="1">
          <mxGeometry relative="1" as="geometry">
            <mxPoint x="2720" y="1200" as="sourcePoint" />
            <Array as="points">
              <mxPoint x="2720" y="1520" />
            </Array>
            <mxPoint x="2759.9999999999845" y="1520" as="targetPoint" />
          </mxGeometry>
        </mxCell>
        <mxCell id="YlWmxhlo7YsZjN-7zyNk-231" value="&lt;font style=&quot;font-size: 20px;&quot;&gt;z&lt;/font&gt;" style="edgeLabel;html=1;align=center;verticalAlign=middle;resizable=0;points=[];fontSize=12;" vertex="1" connectable="0" parent="YlWmxhlo7YsZjN-7zyNk-230">
          <mxGeometry x="0.8705" y="1" relative="1" as="geometry">
            <mxPoint y="-19" as="offset" />
          </mxGeometry>
        </mxCell>
        <mxCell id="YlWmxhlo7YsZjN-7zyNk-232" style="edgeStyle=none;curved=0;rounded=0;orthogonalLoop=1;jettySize=auto;html=1;exitX=0.5;exitY=1;exitDx=0;exitDy=0;entryX=0;entryY=0.5;entryDx=0;entryDy=0;fontSize=12;startSize=8;endSize=8;" edge="1" parent="1">
          <mxGeometry relative="1" as="geometry">
            <mxPoint x="2720" y="1200" as="sourcePoint" />
            <Array as="points">
              <mxPoint x="2720" y="1280" />
            </Array>
            <mxPoint x="2759.9999999999845" y="1280" as="targetPoint" />
          </mxGeometry>
        </mxCell>
        <mxCell id="YlWmxhlo7YsZjN-7zyNk-233" value="&lt;font style=&quot;font-size: 20px;&quot;&gt;w&lt;/font&gt;" style="edgeLabel;html=1;align=center;verticalAlign=middle;resizable=0;points=[];fontSize=12;" vertex="1" connectable="0" parent="YlWmxhlo7YsZjN-7zyNk-232">
          <mxGeometry x="0.5868" y="4" relative="1" as="geometry">
            <mxPoint y="-16" as="offset" />
          </mxGeometry>
        </mxCell>
        <mxCell id="YlWmxhlo7YsZjN-7zyNk-234" style="edgeStyle=none;curved=0;rounded=0;orthogonalLoop=1;jettySize=auto;html=1;exitX=0.5;exitY=1;exitDx=0;exitDy=0;entryX=0;entryY=0.5;entryDx=0;entryDy=0;fontSize=12;startSize=8;endSize=8;" edge="1" parent="1">
          <mxGeometry relative="1" as="geometry">
            <mxPoint x="2720" y="1200" as="sourcePoint" />
            <Array as="points">
              <mxPoint x="2720" y="1400" />
            </Array>
            <mxPoint x="2759.9999999999845" y="1400" as="targetPoint" />
          </mxGeometry>
        </mxCell>
        <mxCell id="YlWmxhlo7YsZjN-7zyNk-235" value="&lt;font style=&quot;font-size: 20px;&quot;&gt;y&lt;/font&gt;" style="edgeLabel;html=1;align=center;verticalAlign=middle;resizable=0;points=[];fontSize=12;" vertex="1" connectable="0" parent="YlWmxhlo7YsZjN-7zyNk-234">
          <mxGeometry x="0.7841" y="1" relative="1" as="geometry">
            <mxPoint y="-19" as="offset" />
          </mxGeometry>
        </mxCell>
        <mxCell id="YlWmxhlo7YsZjN-7zyNk-236" style="edgeStyle=orthogonalEdgeStyle;rounded=0;orthogonalLoop=1;jettySize=auto;html=1;entryX=0;entryY=0.5;entryDx=0;entryDy=0;exitX=0.5;exitY=0;exitDx=0;exitDy=0;" edge="1" parent="1" target="YlWmxhlo7YsZjN-7zyNk-246" source="YRFl2U0ToXUnBVI3a0Rl-214">
          <mxGeometry relative="1" as="geometry">
            <mxPoint x="2840" y="360" as="sourcePoint" />
            <mxPoint x="2880" y="-79.99999999999979" as="targetPoint" />
          </mxGeometry>
        </mxCell>
        <mxCell id="YlWmxhlo7YsZjN-7zyNk-237" value="q23" style="ellipse;whiteSpace=wrap;html=1;rounded=0;shadow=1;strokeColor=#666666;strokeWidth=1;fontSize=30;align=center;fillColor=#C7C7C7;" vertex="1" parent="1">
          <mxGeometry x="2920" y="239.77" width="80" height="80" as="geometry" />
        </mxCell>
        <mxCell id="YlWmxhlo7YsZjN-7zyNk-238" value="q32" style="ellipse;whiteSpace=wrap;html=1;rounded=0;shadow=1;strokeColor=#666666;strokeWidth=1;fontSize=30;align=center;fillColor=#C7C7C7;" vertex="1" parent="1">
          <mxGeometry x="2920" y="119.77" width="80" height="80" as="geometry" />
        </mxCell>
        <mxCell id="YlWmxhlo7YsZjN-7zyNk-239" value="q28" style="ellipse;whiteSpace=wrap;html=1;rounded=0;shadow=1;strokeColor=#666666;strokeWidth=1;fontSize=30;align=center;fillColor=#C7C7C7;" vertex="1" parent="1">
          <mxGeometry x="2920" y="-10.23" width="80" height="80" as="geometry" />
        </mxCell>
        <mxCell id="YlWmxhlo7YsZjN-7zyNk-240" style="edgeStyle=none;curved=0;rounded=0;orthogonalLoop=1;jettySize=auto;html=1;exitX=0.5;exitY=0;exitDx=0;exitDy=0;entryX=0;entryY=0.5;entryDx=0;entryDy=0;fontSize=12;startSize=8;endSize=8;" edge="1" parent="1">
          <mxGeometry relative="1" as="geometry">
            <mxPoint x="2880" y="359.77" as="sourcePoint" />
            <mxPoint x="2920" y="39.769999999999996" as="targetPoint" />
            <Array as="points">
              <mxPoint x="2880" y="39.769999999999996" />
            </Array>
          </mxGeometry>
        </mxCell>
        <mxCell id="YlWmxhlo7YsZjN-7zyNk-241" value="&lt;font style=&quot;font-size: 20px;&quot;&gt;x&lt;/font&gt;" style="edgeLabel;html=1;align=center;verticalAlign=middle;resizable=0;points=[];fontSize=12;" vertex="1" connectable="0" parent="YlWmxhlo7YsZjN-7zyNk-240">
          <mxGeometry x="0.8611" relative="1" as="geometry">
            <mxPoint y="-20" as="offset" />
          </mxGeometry>
        </mxCell>
        <mxCell id="YlWmxhlo7YsZjN-7zyNk-242" style="edgeStyle=none;curved=0;rounded=0;orthogonalLoop=1;jettySize=auto;html=1;exitX=0.5;exitY=0;exitDx=0;exitDy=0;entryX=0;entryY=0.5;entryDx=0;entryDy=0;fontSize=12;startSize=8;endSize=8;" edge="1" parent="1">
          <mxGeometry relative="1" as="geometry">
            <mxPoint x="2880" y="359.77" as="sourcePoint" />
            <mxPoint x="2920" y="159.77" as="targetPoint" />
            <Array as="points">
              <mxPoint x="2880" y="159.77" />
            </Array>
          </mxGeometry>
        </mxCell>
        <mxCell id="YlWmxhlo7YsZjN-7zyNk-243" value="&lt;span style=&quot;font-size: 20px;&quot;&gt;y&lt;/span&gt;" style="edgeLabel;html=1;align=center;verticalAlign=middle;resizable=0;points=[];fontSize=12;" vertex="1" connectable="0" parent="YlWmxhlo7YsZjN-7zyNk-242">
          <mxGeometry x="0.7722" y="2" relative="1" as="geometry">
            <mxPoint y="-18" as="offset" />
          </mxGeometry>
        </mxCell>
        <mxCell id="YlWmxhlo7YsZjN-7zyNk-244" style="edgeStyle=none;curved=0;rounded=0;orthogonalLoop=1;jettySize=auto;html=1;exitX=0.5;exitY=0;exitDx=0;exitDy=0;entryX=0;entryY=0.5;entryDx=0;entryDy=0;fontSize=12;startSize=8;endSize=8;" edge="1" parent="1">
          <mxGeometry relative="1" as="geometry">
            <mxPoint x="2880" y="359.77" as="sourcePoint" />
            <mxPoint x="2920" y="279.77" as="targetPoint" />
            <Array as="points">
              <mxPoint x="2880" y="279.77" />
            </Array>
          </mxGeometry>
        </mxCell>
        <mxCell id="YlWmxhlo7YsZjN-7zyNk-245" value="&lt;font style=&quot;font-size: 20px;&quot;&gt;z&lt;/font&gt;" style="edgeLabel;html=1;align=center;verticalAlign=middle;resizable=0;points=[];fontSize=12;" vertex="1" connectable="0" parent="YlWmxhlo7YsZjN-7zyNk-244">
          <mxGeometry x="0.5778" y="1" relative="1" as="geometry">
            <mxPoint y="-19" as="offset" />
          </mxGeometry>
        </mxCell>
        <mxCell id="YlWmxhlo7YsZjN-7zyNk-246" value="q24" style="ellipse;whiteSpace=wrap;html=1;rounded=0;shadow=1;strokeColor=#666666;strokeWidth=1;fontSize=30;align=center;fillColor=#C7C7C7;" vertex="1" parent="1">
          <mxGeometry x="2920" y="-120.23" width="80" height="80" as="geometry" />
        </mxCell>
        <mxCell id="YlWmxhlo7YsZjN-7zyNk-247" value="&lt;font style=&quot;font-size: 20px;&quot;&gt;w&lt;/font&gt;" style="edgeLabel;html=1;align=center;verticalAlign=middle;resizable=0;points=[];fontSize=12;" vertex="1" connectable="0" parent="1">
          <mxGeometry x="2895.3846153846157" y="-100.23000000000023" as="geometry">
            <mxPoint y="2" as="offset" />
          </mxGeometry>
        </mxCell>
        <mxCell id="YlWmxhlo7YsZjN-7zyNk-261" value="q29" style="ellipse;whiteSpace=wrap;html=1;rounded=0;shadow=1;strokeColor=#666666;strokeWidth=1;fontSize=30;align=center;fillColor=#C7C7C7;" vertex="1" parent="1">
          <mxGeometry x="2920" y="880" width="80" height="80" as="geometry" />
        </mxCell>
        <mxCell id="YlWmxhlo7YsZjN-7zyNk-262" value="q28" style="ellipse;whiteSpace=wrap;html=1;rounded=0;shadow=1;strokeColor=#666666;strokeWidth=1;fontSize=30;align=center;fillColor=#C7C7C7;" vertex="1" parent="1">
          <mxGeometry x="2920" y="760" width="80" height="80" as="geometry" />
        </mxCell>
        <mxCell id="YlWmxhlo7YsZjN-7zyNk-263" value="q24" style="ellipse;whiteSpace=wrap;html=1;rounded=0;shadow=1;strokeColor=#666666;strokeWidth=1;fontSize=30;align=center;fillColor=#C7C7C7;" vertex="1" parent="1">
          <mxGeometry x="2920" y="640" width="80" height="80" as="geometry" />
        </mxCell>
        <mxCell id="YlWmxhlo7YsZjN-7zyNk-264" style="edgeStyle=none;curved=0;rounded=0;orthogonalLoop=1;jettySize=auto;html=1;exitX=0.5;exitY=1;exitDx=0;exitDy=0;entryX=0;entryY=0.5;entryDx=0;entryDy=0;fontSize=12;startSize=8;endSize=8;" edge="1" parent="1">
          <mxGeometry relative="1" as="geometry">
            <mxPoint x="2880" y="600" as="sourcePoint" />
            <Array as="points">
              <mxPoint x="2880" y="920" />
            </Array>
            <mxPoint x="2919.9999999999845" y="920" as="targetPoint" />
          </mxGeometry>
        </mxCell>
        <mxCell id="YlWmxhlo7YsZjN-7zyNk-265" value="&lt;font style=&quot;font-size: 20px;&quot;&gt;y&lt;/font&gt;" style="edgeLabel;html=1;align=center;verticalAlign=middle;resizable=0;points=[];fontSize=12;" vertex="1" connectable="0" parent="YlWmxhlo7YsZjN-7zyNk-264">
          <mxGeometry x="0.8705" y="1" relative="1" as="geometry">
            <mxPoint y="-19" as="offset" />
          </mxGeometry>
        </mxCell>
        <mxCell id="YlWmxhlo7YsZjN-7zyNk-266" style="edgeStyle=none;curved=0;rounded=0;orthogonalLoop=1;jettySize=auto;html=1;exitX=0.5;exitY=1;exitDx=0;exitDy=0;entryX=0;entryY=0.5;entryDx=0;entryDy=0;fontSize=12;startSize=8;endSize=8;" edge="1" parent="1">
          <mxGeometry relative="1" as="geometry">
            <mxPoint x="2880" y="600" as="sourcePoint" />
            <Array as="points">
              <mxPoint x="2880" y="680" />
            </Array>
            <mxPoint x="2919.9999999999845" y="680" as="targetPoint" />
          </mxGeometry>
        </mxCell>
        <mxCell id="YlWmxhlo7YsZjN-7zyNk-267" value="&lt;font style=&quot;font-size: 20px;&quot;&gt;w&lt;/font&gt;" style="edgeLabel;html=1;align=center;verticalAlign=middle;resizable=0;points=[];fontSize=12;" vertex="1" connectable="0" parent="YlWmxhlo7YsZjN-7zyNk-266">
          <mxGeometry x="0.5868" y="4" relative="1" as="geometry">
            <mxPoint y="-16" as="offset" />
          </mxGeometry>
        </mxCell>
        <mxCell id="YlWmxhlo7YsZjN-7zyNk-268" style="edgeStyle=none;curved=0;rounded=0;orthogonalLoop=1;jettySize=auto;html=1;exitX=0.5;exitY=1;exitDx=0;exitDy=0;entryX=0;entryY=0.5;entryDx=0;entryDy=0;fontSize=12;startSize=8;endSize=8;" edge="1" parent="1">
          <mxGeometry relative="1" as="geometry">
            <mxPoint x="2880" y="600" as="sourcePoint" />
            <Array as="points">
              <mxPoint x="2880" y="800" />
            </Array>
            <mxPoint x="2919.9999999999845" y="800" as="targetPoint" />
          </mxGeometry>
        </mxCell>
        <mxCell id="YlWmxhlo7YsZjN-7zyNk-269" value="&lt;font style=&quot;font-size: 20px;&quot;&gt;x&lt;/font&gt;" style="edgeLabel;html=1;align=center;verticalAlign=middle;resizable=0;points=[];fontSize=12;" vertex="1" connectable="0" parent="YlWmxhlo7YsZjN-7zyNk-268">
          <mxGeometry x="0.7841" y="1" relative="1" as="geometry">
            <mxPoint y="-19" as="offset" />
          </mxGeometry>
        </mxCell>
        <mxCell id="YlWmxhlo7YsZjN-7zyNk-270" value="q23" style="ellipse;whiteSpace=wrap;html=1;rounded=0;shadow=1;strokeColor=#666666;strokeWidth=1;fontSize=30;align=center;fillColor=#C7C7C7;" vertex="1" parent="1">
          <mxGeometry x="2918.46" y="1000" width="80" height="80" as="geometry" />
        </mxCell>
        <mxCell id="YlWmxhlo7YsZjN-7zyNk-271" value="&lt;font style=&quot;font-size: 20px;&quot;&gt;z&lt;/font&gt;" style="edgeLabel;html=1;align=center;verticalAlign=middle;resizable=0;points=[];fontSize=12;" vertex="1" connectable="0" parent="1">
          <mxGeometry x="2895.383076923078" y="1019.9999999999995" as="geometry" />
        </mxCell>
        <mxCell id="YlWmxhlo7YsZjN-7zyNk-273" style="edgeStyle=orthogonalEdgeStyle;rounded=0;orthogonalLoop=1;jettySize=auto;html=1;exitX=0.5;exitY=1;exitDx=0;exitDy=0;entryX=0;entryY=0.5;entryDx=0;entryDy=0;" edge="1" parent="1" target="YlWmxhlo7YsZjN-7zyNk-283" source="YRFl2U0ToXUnBVI3a0Rl-220">
          <mxGeometry relative="1" as="geometry">
            <mxPoint x="2840" y="1200" as="sourcePoint" />
            <mxPoint x="2878.46" y="1640" as="targetPoint" />
            <Array as="points">
              <mxPoint x="2879" y="1200" />
              <mxPoint x="2879" y="1640" />
            </Array>
          </mxGeometry>
        </mxCell>
        <mxCell id="YlWmxhlo7YsZjN-7zyNk-274" value="q29" style="ellipse;whiteSpace=wrap;html=1;rounded=0;shadow=1;strokeColor=#666666;strokeWidth=1;fontSize=30;align=center;fillColor=#C7C7C7;" vertex="1" parent="1">
          <mxGeometry x="2918.46" y="1480" width="80" height="80" as="geometry" />
        </mxCell>
        <mxCell id="YlWmxhlo7YsZjN-7zyNk-275" value="q26" style="ellipse;whiteSpace=wrap;html=1;rounded=0;shadow=1;strokeColor=#666666;strokeWidth=1;fontSize=30;align=center;fillColor=#C7C7C7;" vertex="1" parent="1">
          <mxGeometry x="2918.46" y="1360" width="80" height="80" as="geometry" />
        </mxCell>
        <mxCell id="YlWmxhlo7YsZjN-7zyNk-276" value="q24" style="ellipse;whiteSpace=wrap;html=1;rounded=0;shadow=1;strokeColor=#666666;strokeWidth=1;fontSize=30;align=center;fillColor=#C7C7C7;" vertex="1" parent="1">
          <mxGeometry x="2918.46" y="1240" width="80" height="80" as="geometry" />
        </mxCell>
        <mxCell id="YlWmxhlo7YsZjN-7zyNk-277" style="edgeStyle=none;curved=0;rounded=0;orthogonalLoop=1;jettySize=auto;html=1;exitX=0.5;exitY=1;exitDx=0;exitDy=0;entryX=0;entryY=0.5;entryDx=0;entryDy=0;fontSize=12;startSize=8;endSize=8;" edge="1" parent="1">
          <mxGeometry relative="1" as="geometry">
            <mxPoint x="2878.46" y="1200" as="sourcePoint" />
            <Array as="points">
              <mxPoint x="2878.46" y="1520" />
            </Array>
            <mxPoint x="2918.4599999999846" y="1520" as="targetPoint" />
          </mxGeometry>
        </mxCell>
        <mxCell id="YlWmxhlo7YsZjN-7zyNk-278" value="&lt;font style=&quot;font-size: 20px;&quot;&gt;y&lt;/font&gt;" style="edgeLabel;html=1;align=center;verticalAlign=middle;resizable=0;points=[];fontSize=12;" vertex="1" connectable="0" parent="YlWmxhlo7YsZjN-7zyNk-277">
          <mxGeometry x="0.8705" y="1" relative="1" as="geometry">
            <mxPoint y="-19" as="offset" />
          </mxGeometry>
        </mxCell>
        <mxCell id="YlWmxhlo7YsZjN-7zyNk-279" style="edgeStyle=none;curved=0;rounded=0;orthogonalLoop=1;jettySize=auto;html=1;exitX=0.5;exitY=1;exitDx=0;exitDy=0;entryX=0;entryY=0.5;entryDx=0;entryDy=0;fontSize=12;startSize=8;endSize=8;" edge="1" parent="1">
          <mxGeometry relative="1" as="geometry">
            <mxPoint x="2878.46" y="1200" as="sourcePoint" />
            <Array as="points">
              <mxPoint x="2878.46" y="1280" />
            </Array>
            <mxPoint x="2918.4599999999846" y="1280" as="targetPoint" />
          </mxGeometry>
        </mxCell>
        <mxCell id="YlWmxhlo7YsZjN-7zyNk-280" value="&lt;font style=&quot;font-size: 20px;&quot;&gt;w&lt;/font&gt;" style="edgeLabel;html=1;align=center;verticalAlign=middle;resizable=0;points=[];fontSize=12;" vertex="1" connectable="0" parent="YlWmxhlo7YsZjN-7zyNk-279">
          <mxGeometry x="0.5868" y="4" relative="1" as="geometry">
            <mxPoint y="-16" as="offset" />
          </mxGeometry>
        </mxCell>
        <mxCell id="YlWmxhlo7YsZjN-7zyNk-281" style="edgeStyle=none;curved=0;rounded=0;orthogonalLoop=1;jettySize=auto;html=1;exitX=0.5;exitY=1;exitDx=0;exitDy=0;entryX=0;entryY=0.5;entryDx=0;entryDy=0;fontSize=12;startSize=8;endSize=8;" edge="1" parent="1">
          <mxGeometry relative="1" as="geometry">
            <mxPoint x="2878.46" y="1200" as="sourcePoint" />
            <Array as="points">
              <mxPoint x="2878.46" y="1400" />
            </Array>
            <mxPoint x="2918.4599999999846" y="1400" as="targetPoint" />
          </mxGeometry>
        </mxCell>
        <mxCell id="YlWmxhlo7YsZjN-7zyNk-282" value="&lt;font style=&quot;font-size: 20px;&quot;&gt;x&lt;/font&gt;" style="edgeLabel;html=1;align=center;verticalAlign=middle;resizable=0;points=[];fontSize=12;" vertex="1" connectable="0" parent="YlWmxhlo7YsZjN-7zyNk-281">
          <mxGeometry x="0.7841" y="1" relative="1" as="geometry">
            <mxPoint y="-19" as="offset" />
          </mxGeometry>
        </mxCell>
        <mxCell id="YlWmxhlo7YsZjN-7zyNk-283" value="q23" style="ellipse;whiteSpace=wrap;html=1;rounded=0;shadow=1;strokeColor=#666666;strokeWidth=1;fontSize=30;align=center;fillColor=#C7C7C7;" vertex="1" parent="1">
          <mxGeometry x="2916.92" y="1600" width="80" height="80" as="geometry" />
        </mxCell>
        <mxCell id="YlWmxhlo7YsZjN-7zyNk-284" value="&lt;font style=&quot;font-size: 20px;&quot;&gt;z&lt;/font&gt;" style="edgeLabel;html=1;align=center;verticalAlign=middle;resizable=0;points=[];fontSize=12;" vertex="1" connectable="0" parent="1">
          <mxGeometry x="2893.843076923078" y="1619.9999999999995" as="geometry" />
        </mxCell>
      </root>
    </mxGraphModel>
  </diagram>
</mxfile>
